<svg width="205" height="227" viewBox="0 0 205 227" fill="none" xmlns="http://www.w3.org/2000/svg">
<path fill-rule="evenodd" clip-rule="evenodd" d="M126.104 11.8781C126.576 5.22499 127.018 3.73234 128.988 2.13706C131.033 0.480998 131.57 0.421213 133.414 1.64283C135.235 2.84851 135.55 4.17276 135.801 11.634L136.089 20.2342H139.954C145.485 20.2342 146.971 21.0582 146.971 24.1272C146.971 27.9625 145.238 29.202 139.876 29.202C138.091 29.202 136.887 29.1525 136.047 29.6811C134.226 30.8262 134.111 34.6843 133.494 47.636C132.605 66.2612 130.903 70.1682 125.279 66.4834C122.819 64.8712 122.805 64.7765 123.459 54.2542C123.821 48.4221 124.389 40.3989 124.721 36.4261L125.325 29.202H117.415C109.03 29.202 107.114 28.3541 107.114 24.6404C107.114 21.2276 109.123 20.3468 117.624 20.0309L125.548 19.736L126.104 11.8781ZM1.82282 27.1574C4.25909 18.8023 8.56067 12.8218 14.6409 9.33426C21.0409 5.66442 27.5197 5.28777 33.3239 8.24915C39.9661 11.638 43.3031 17.8826 40.1544 21.0313C38.2413 22.9445 35.9116 22.4393 31.8841 19.2378C24.9828 13.7534 17.673 16.116 13.0904 25.313C5.44882 40.647 15.2158 57.664 27.4958 50.41C29.0871 49.4704 30.3894 48.3604 30.3894 47.9449C30.3894 47.5293 31.7386 46.4911 33.3877 45.6381C37.3893 43.5685 40.3537 45.0552 40.3537 49.1326C40.3537 52.5912 34.8943 58.5628 29.7786 60.7011C25.8417 62.3452 18.6714 62.5007 14.7604 61.027C10.97 59.5971 5.7338 54.4485 3.33341 49.7892C0.54341 44.3746 -0.153094 33.9371 1.82282 27.1574ZM160.141 21.412C160.412 11.2444 160.523 10.7721 162.914 9.56444C166.779 7.61243 187.234 7.82866 189.249 9.84244C193.508 14.1022 189.838 16.6201 178.461 17.2449L169.391 17.7431L169.096 24.469L168.802 31.1949H178.69C189.352 31.1949 191.265 32.0169 190.642 36.3305C190.23 39.1783 187.579 39.9356 177.572 40.0631L169.809 40.1627L170.099 48.3833L170.388 56.6038L174.871 56.9296C177.338 57.108 181.941 56.7094 185.101 56.0418C190.263 54.9527 191.047 55.0115 192.823 56.6188C193.91 57.6022 194.8 58.9404 194.8 59.5931C194.8 66.3738 165.392 68.5769 161.904 62.0583C161.336 60.9961 160.59 55.8575 160.247 50.6402C159.848 44.561 159.141 40.7526 158.28 40.0382C156.5 38.5605 156.566 34.7352 158.398 33.2147C159.478 32.3189 159.933 29.2369 160.141 21.412ZM83.8079 22.3337C84.2822 17.1522 85.0305 14.418 86.3319 13.1167C88.54 10.9086 89.2175 10.8448 91.6379 12.6145C93.6058 14.0533 93.821 18.3479 92.6223 32.1913C91.3439 46.9414 89.0422 52.916 83.223 56.5889C75.0792 61.7304 65.4776 60.5148 59.3815 53.5707C55.5253 49.1794 54.8846 45.3711 55.601 31.1192C56.2497 18.2085 57.9855 12.2628 61.1063 12.2628C64.8648 12.2628 65.3063 14.3313 65.0302 30.6449C64.7702 46.0367 64.805 46.3257 67.1188 48.2109C70.395 50.8793 75.7428 50.7 78.6195 47.8233C81.001 45.4418 82.2555 39.2799 83.8079 22.3337ZM84.1965 95.4645C81.0219 93.8234 80.1809 90.4126 82.403 88.1906C84.2723 86.3213 89.64 86.7856 92.5396 89.0664L95.1732 91.138L101.763 88.9449C107.304 87.1015 108.938 86.9271 112.028 87.8528C119.622 90.1286 122.69 96.8376 121.679 108.959C120.854 118.855 121.137 119.519 125.98 119.058C129.12 118.758 130.072 119.086 130.977 120.777C131.776 122.27 131.793 123.432 131.035 124.849C129.873 127.019 125.082 129.841 122.559 129.841C119.956 129.841 115.238 126.995 113.87 124.6C113.114 123.277 112.392 117.299 112.097 109.913L111.598 97.4574L108.424 97.1495C104.81 96.7997 99.6332 99.1304 98.3109 101.702C97.8207 102.656 97.162 107.622 96.8462 112.738C96.2334 122.666 94.5644 126.852 91.2194 126.852C88.0706 126.852 85.9552 123.949 86.57 120.471C87.0364 117.833 87.4678 104.124 87.2536 98.7288C87.2167 97.7832 85.8406 96.3145 84.1965 95.4645ZM169.889 185.387C169.889 163.974 170.209 155.827 171.085 154.951C171.743 154.294 173.222 153.756 174.373 153.756C178.47 153.756 178.857 155.355 178.857 172.233C178.857 181.082 179.149 193.098 179.507 198.938L180.157 209.556L189.72 209.57C200.142 209.586 204.082 210.819 204.572 214.217C205.174 218.392 201.554 219.52 187.558 219.52C186.641 219.52 185.783 219.521 184.977 219.522C175.035 219.534 173.251 219.537 171.085 217.37L169.889 214.628V185.387ZM0.700845 194.333C1.3545 182.48 5.62918 174.743 13.9484 170.358C20.7819 166.755 31.909 169.587 36.9648 176.217C40.0558 180.269 39.9073 184.543 36.634 185.745C34.8385 186.404 33.5262 185.799 29.8474 182.614C22.418 176.184 16.2122 177.535 11.3726 186.638C9.20735 190.709 9.67169 203.321 12.1598 208.061C15.0215 213.51 18.4721 216.501 22.691 217.185C25.8846 217.703 26.7305 217.302 31.1577 213.16C36.2384 208.408 38.1018 207.702 40.1544 209.755C44.2398 213.84 36.8851 224.128 28.3408 226.28C12.8951 230.168 -0.425119 214.772 0.700845 194.333Z" fill="black"/>
</svg>
