<svg width="106" height="81" viewBox="0 0 106 81" fill="none" xmlns="http://www.w3.org/2000/svg">
<mask id="path-1-inside-1_159_1374" fill="white">
<path fill-rule="evenodd" clip-rule="evenodd" d="M77.1111 9.47292C80.5508 5.3507 84.3372 1.61109 85.5239 1.1627C88.3378 0.0995125 91.1697 1.63402 91.1697 4.22174C91.1697 5.34771 88.9277 8.78439 86.1885 11.8584L81.2064 17.4473L84.2654 19.3844L87.3245 21.3214L91.9877 16.8096C97.5727 11.406 100.541 9.75291 103.165 10.5859C104.502 11.0104 105.12 12.0995 105.12 14.0356C105.12 16.2128 103.965 17.832 100.111 21.0584C93.1167 26.9144 92.5757 28.2207 94.8126 33.8505C97.6903 41.0916 97.4083 57.702 94.2915 64.6073C89.2006 75.8859 86.1885 77.0439 80.7072 78.4198C69.3499 81.2705 58.6463 72.4143 54.7084 56.9099C50.8642 41.7771 57.4835 22.5072 68.0247 18.1408C69.5821 17.4961 73.6704 13.5961 77.1111 9.47292ZM20.6555 9.6991C22.3763 7.02568 25.1573 4.00054 26.8363 2.97721C30.563 0.704359 31.7816 0.65154 33.8043 2.67329C36.1071 4.97604 35.7583 6.31922 31.8822 10.0758C29.9641 11.9351 28.3947 13.7177 28.3947 14.0386C28.3947 14.3584 29.7449 15.1306 31.394 15.7534C34.2288 16.8236 34.6872 16.6173 39.7231 12.0148C45.8043 6.45673 49.1234 4.84451 51.6145 6.23851C54.8399 8.04404 53.6034 11.6979 48.2346 16.2257C41.0842 22.2551 40.9049 22.839 44.1014 29.6645C46.5447 34.8818 46.8217 36.5688 46.7748 45.9472C46.733 54.3381 46.2826 57.5237 44.501 62.0365C42.0827 68.1586 35.6926 76.126 31.5185 78.2225C10.2089 88.9251 -7.99981 57.4998 3.9095 30.5713C5.47588 27.03 8.35556 23.1688 11.9387 19.8049C15.0117 16.9202 18.9337 12.3725 20.6555 9.6991ZM25.0836 70.4045C31.7716 68.7255 37.3626 58.4165 37.3626 47.7627C37.3626 44.5721 37.0258 41.9794 36.6153 42.0023C36.2047 42.0242 34.2986 43.4172 32.3804 45.0972C27.6454 49.2453 17.6811 53.9166 13.5669 53.9176C10.2488 53.9186 10.2069 53.9734 10.7868 57.5456C12.0892 65.5708 19.126 71.9001 25.0836 70.4045ZM78.7183 69.0444C82.5725 67.2887 86.1736 60.8328 87.3882 53.5011C88.7175 45.4828 87.8307 44.037 83.6756 47.4448C79.9728 50.4829 71.1734 53.9186 67.093 53.9186C64.1575 53.9186 64.0459 54.0651 64.6617 57.141C66.252 65.0955 73.6455 71.3561 78.7183 69.0444Z"/>
</mask>
<path d="M85.5239 1.1627L85.8774 2.09816L85.8774 2.09816L85.5239 1.1627ZM77.1111 9.47292L77.8789 10.1136L77.8789 10.1136L77.1111 9.47292ZM86.1885 11.8584L86.935 12.5238L86.9351 12.5236L86.1885 11.8584ZM81.2064 17.4473L80.4599 16.7819L79.6757 17.6617L80.6714 18.2922L81.2064 17.4473ZM84.2654 19.3844L83.7304 20.2292L83.7304 20.2292L84.2654 19.3844ZM87.3245 21.3214L86.7895 22.1663L87.4543 22.5873L88.0198 22.0401L87.3245 21.3214ZM91.9877 16.8096L92.6831 17.5283L92.6831 17.5283L91.9877 16.8096ZM103.165 10.5859L102.862 11.539L102.862 11.5391L103.165 10.5859ZM100.111 21.0584L99.4687 20.2916L99.4687 20.2917L100.111 21.0584ZM94.8126 33.8505L93.8833 34.2198L93.8833 34.2198L94.8126 33.8505ZM94.2915 64.6073L95.2029 65.0187L95.2029 65.0187L94.2915 64.6073ZM80.7072 78.4198L80.9506 79.3897L80.9506 79.3897L80.7072 78.4198ZM54.7084 56.9099L55.6776 56.6637L55.6776 56.6637L54.7084 56.9099ZM68.0247 18.1408L67.6422 17.2169L67.642 17.217L68.0247 18.1408ZM26.8363 2.97721L27.3568 3.83111L27.357 3.83096L26.8363 2.97721ZM20.6555 9.6991L21.4962 10.2406L21.4963 10.2404L20.6555 9.6991ZM33.8043 2.67329L34.5114 1.96619L34.5113 1.96601L33.8043 2.67329ZM31.8822 10.0758L31.1863 9.35766L31.1862 9.35773L31.8822 10.0758ZM31.394 15.7534L31.0407 16.6889L31.0408 16.689L31.394 15.7534ZM39.7231 12.0148L40.3978 12.753L40.3978 12.7529L39.7231 12.0148ZM51.6145 6.23851L52.1029 5.36593L52.1028 5.36586L51.6145 6.23851ZM48.2346 16.2257L48.8792 16.9902L48.8793 16.9901L48.2346 16.2257ZM44.1014 29.6645L45.007 29.2404L45.007 29.2404L44.1014 29.6645ZM46.7748 45.9472L45.7748 45.9422L45.7748 45.9422L46.7748 45.9472ZM44.501 62.0365L45.4311 62.4039L45.4311 62.4037L44.501 62.0365ZM31.5185 78.2225L31.9674 79.1161L31.9674 79.1161L31.5185 78.2225ZM3.9095 30.5713L2.99496 30.1668L2.99494 30.1668L3.9095 30.5713ZM11.9387 19.8049L11.2543 19.0758L11.2543 19.0758L11.9387 19.8049ZM25.0836 70.4045L24.8401 69.4346L24.8401 69.4346L25.0836 70.4045ZM36.6153 42.0023L36.6686 43.0009L36.671 43.0008L36.6153 42.0023ZM32.3804 45.0972L31.7216 44.345L31.7215 44.345L32.3804 45.0972ZM13.5669 53.9176L13.5666 52.9176L13.5666 52.9176L13.5669 53.9176ZM10.7868 57.5456L11.7739 57.3854L11.7739 57.3853L10.7868 57.5456ZM87.3882 53.5011L86.4017 53.3375L86.4017 53.3376L87.3882 53.5011ZM78.7183 69.0444L78.3038 68.1343L78.3036 68.1344L78.7183 69.0444ZM83.6756 47.4448L83.0414 46.6716L83.0412 46.6717L83.6756 47.4448ZM64.6617 57.141L65.6423 56.945L65.6423 56.9447L64.6617 57.141ZM85.1705 0.227246C84.7931 0.36982 84.3699 0.658204 83.9651 0.970872C83.5359 1.30247 83.04 1.73128 82.5014 2.23007L83.8604 3.69745C84.3739 3.22185 84.8222 2.83602 85.1878 2.55363C85.5778 2.25232 85.8001 2.12737 85.8774 2.09816L85.1705 0.227246ZM78.3056 6.56052C77.6523 7.29152 76.9918 8.05504 76.3433 8.83225L77.8789 10.1136C78.5125 9.35434 79.1581 8.60796 79.7968 7.89331L78.3056 6.56052ZM76.3433 8.83223C76.0121 9.22908 75.6747 9.62406 75.3339 10.0143L76.8405 11.3298C77.1907 10.9287 77.5378 10.5223 77.8789 10.1136L76.3433 8.83223ZM73.2381 12.3134C72.4809 13.1089 71.7392 13.8504 71.0452 14.5077L72.4206 15.9597C73.1423 15.2761 73.9084 14.5099 74.6867 13.6924L73.2381 12.3134ZM68.7469 16.505C68.2221 16.9053 67.8531 17.1296 67.6422 17.2169L68.4072 19.0648C68.8679 18.8741 69.4059 18.5176 69.9598 18.0952L68.7469 16.505ZM67.642 17.217C66.9244 17.5142 66.2272 17.874 65.5521 18.2899L66.6011 19.9927C67.1912 19.6292 67.7939 19.3188 68.4074 19.0647L67.642 17.217ZM61.9693 21.2064C60.9454 22.2623 59.9924 23.4564 59.1176 24.7596L60.7781 25.8743C61.5942 24.6587 62.4732 23.5596 63.405 22.5988L61.9693 21.2064ZM56.8725 28.6811C56.2288 30.0012 55.6499 31.3909 55.1415 32.8319L57.0276 33.4973C57.5119 32.1247 58.0616 30.8057 58.6702 29.5576L56.8725 28.6811ZM53.8707 37.1335C53.5235 38.5739 53.2435 40.0465 53.0361 41.536L55.0169 41.8119C55.2154 40.3872 55.4831 38.9791 55.815 37.6022L53.8707 37.1335ZM52.6378 46.0006C52.5794 47.498 52.5975 48.999 52.6973 50.4887L54.6928 50.355C54.5979 48.9384 54.5806 47.5082 54.6362 46.0784L52.6378 46.0006ZM53.2555 54.9532C53.3937 55.6947 53.5546 56.4296 53.7392 57.1561L55.6776 56.6637C55.504 55.9802 55.3522 55.2873 55.2217 54.5869L53.2555 54.9532ZM53.7392 57.156C53.8989 57.7848 54.0695 58.4032 54.2508 59.0108L56.1674 58.4391C55.994 57.8581 55.8306 57.2662 55.6776 56.6637L53.7392 57.156ZM55.5105 62.6455C55.9986 63.8716 56.5337 65.0436 57.1122 66.1581L58.8873 65.2367C58.3406 64.1834 57.833 63.0721 57.3686 61.9058L55.5105 62.6455ZM59.0846 69.4906C59.8283 70.5951 60.6215 71.6235 61.4591 72.5704L62.9571 71.2453C62.1805 70.3673 61.4406 69.4088 60.7436 68.3735L59.0846 69.4906ZM64.2609 75.296C65.2941 76.1535 66.3762 76.9024 67.4995 77.5345L68.4803 75.7915C67.4671 75.2213 66.4837 74.5417 65.5381 73.757L64.2609 75.296ZM71.1278 79.1173C72.3966 79.5188 73.7001 79.7792 75.0279 79.8895L75.1935 77.8964C74.0176 77.7987 72.8608 77.568 71.7312 77.2105L71.1278 79.1173ZM79.0012 79.7719C79.6492 79.6804 80.2994 79.5531 80.9506 79.3897L80.4637 77.4499C79.8798 77.5964 79.2987 77.71 78.7213 77.7916L79.0012 79.7719ZM80.9506 79.3897C81.5255 79.2454 82.0832 79.101 82.6226 78.9459L82.0697 77.0238C81.5633 77.1695 81.0317 77.3073 80.4637 77.4499L80.9506 79.3897ZM85.9727 77.6334C86.9853 77.0834 87.9451 76.3765 88.8942 75.4162L87.4717 74.0104C86.6582 74.8335 85.8555 75.4211 85.0182 75.8758L85.9727 77.6334ZM91.1326 72.637C91.7196 71.7698 92.3151 70.7807 92.9304 69.6483L91.173 68.6934C90.5824 69.7805 90.0202 70.7124 89.4763 71.5159L91.1326 72.637ZM94.4809 66.5803C94.7175 66.0816 94.958 65.5614 95.2029 65.0187L93.38 64.1959C93.1398 64.728 92.9046 65.2368 92.6739 65.7233L94.4809 66.5803ZM95.2029 65.0187C95.4693 64.4286 95.7123 63.7817 95.9335 63.0902L94.0286 62.4809C93.8261 63.1139 93.6094 63.6878 93.38 64.1959L95.2029 65.0187ZM96.8906 59.1695C97.1208 57.9209 97.3078 56.5949 97.4514 55.2251L95.4623 55.0164C95.3234 56.3415 95.1434 57.6156 94.9237 58.8068L96.8906 59.1695ZM97.7424 51.2668C97.8 49.9514 97.821 48.6217 97.8048 47.3033L95.8049 47.3278C95.8206 48.6089 95.8003 49.9012 95.7443 51.1793L97.7424 51.2668ZM97.6394 43.3377C97.5398 41.9668 97.3961 40.6359 97.2071 39.3775L95.2293 39.6746C95.4098 40.8764 95.5483 42.1562 95.6447 43.4826L97.6394 43.3377ZM96.3898 35.4313C96.1964 34.7364 95.9809 34.0826 95.7419 33.4812L93.8833 34.2198C94.0916 34.7438 94.2852 35.3286 94.463 35.9675L96.3898 35.4313ZM95.7419 33.4813C95.4827 32.8289 95.2666 32.2485 95.0957 31.7201L93.1928 32.3359C93.3825 32.9221 93.616 33.547 93.8833 34.2198L95.7419 33.4813ZM94.7451 28.4619C94.9464 27.651 95.4604 26.7912 96.5293 25.649L95.069 24.2824C93.8959 25.536 93.1235 26.6935 92.804 27.9799L94.7451 28.4619ZM99.2822 23.0734C99.7351 22.682 100.224 22.2673 100.753 21.8251L99.4687 20.2917C98.9353 20.7382 98.4375 21.16 97.9744 21.5603L99.2822 23.0734ZM100.753 21.8252C101.391 21.2904 101.962 20.7951 102.469 20.3308L101.118 18.8559C100.639 19.2948 100.092 19.7699 99.4687 20.2916L100.753 21.8252ZM105.538 16.6264C105.952 15.7675 106.12 14.9286 106.12 14.0356H104.12C104.12 14.6544 104.009 15.1929 103.736 15.7582L105.538 16.6264ZM106.12 14.0356C106.12 13.6032 106.092 13.1938 106.031 12.8097L104.056 13.1221C104.097 13.3842 104.12 13.6869 104.12 14.0356H106.12ZM104.75 10.325C104.375 10.0082 103.941 9.78327 103.467 9.63279L102.862 11.5391C103.121 11.6214 103.313 11.7292 103.459 11.8528L104.75 10.325ZM103.467 9.63281C102.819 9.42692 102.148 9.34415 101.443 9.3984L101.596 11.3925C102.04 11.3583 102.454 11.4094 102.862 11.539L103.467 9.63281ZM97.9016 10.6566C97.0285 11.1714 96.0914 11.846 95.0669 12.6837L96.3329 14.232C97.3066 13.4359 98.1585 12.8269 98.9175 12.3794L97.9016 10.6566ZM92.517 14.9272C92.1223 15.2949 91.7144 15.6827 91.2924 16.0909L92.6831 17.5283C93.097 17.1278 93.4957 16.7488 93.8802 16.3907L92.517 14.9272ZM91.2924 16.0909L90.1266 17.2189L91.5173 18.6562L92.6831 17.5283L91.2924 16.0909ZM87.795 19.4748L86.6291 20.6028L88.0198 22.0401L89.1856 20.9122L87.795 19.4748ZM87.8595 20.4766L87.0947 19.9923L86.0247 21.682L86.7895 22.1663L87.8595 20.4766ZM85.5652 19.0238L84.8004 18.5395L83.7304 20.2292L84.4952 20.7135L85.5652 19.0238ZM84.8004 18.5395L84.0357 18.0553L82.9657 19.745L83.7304 20.2292L84.8004 18.5395ZM82.5061 17.0867L81.7414 16.6025L80.6714 18.2922L81.4362 18.7765L82.5061 17.0867ZM81.9529 18.1127L83.1984 16.7155L81.7055 15.3847L80.4599 16.7819L81.9529 18.1127ZM85.6895 13.921L86.935 12.5238L85.4421 11.1929L84.1965 12.5902L85.6895 13.921ZM86.9351 12.5236C87.4634 11.9308 87.9732 11.3252 88.4531 10.7248L86.8907 9.47621C86.4325 10.0496 85.9456 10.6278 85.4419 11.1931L86.9351 12.5236ZM91.1738 6.83629C91.4587 6.34462 91.6972 5.88026 91.8675 5.4666C92.0265 5.08017 92.1697 4.63671 92.1697 4.22174H90.1697C90.1697 4.21172 90.1702 4.24731 90.1448 4.34331C90.1207 4.43437 90.0801 4.55456 90.018 4.7054C89.8934 5.00803 89.7014 5.38818 89.4433 5.83351L91.1738 6.83629ZM92.1697 4.22174C92.1697 3.34636 91.9169 2.54785 91.4701 1.87821L89.8064 2.98818C90.0341 3.32947 90.1697 3.74181 90.1697 4.22174H92.1697ZM87.3821 -0.178149C86.6598 -0.18287 85.9101 -0.0522229 85.1705 0.227247L85.8774 2.09816C86.3914 1.90394 86.8972 1.81872 87.3691 1.82181L87.3821 -0.178149ZM26.3159 2.12332C25.7171 2.48825 25.0426 3.04167 24.3621 3.68325L25.7341 5.13849C26.3694 4.5395 26.9283 4.09223 27.3568 3.83111L26.3159 2.12332ZM21.1932 7.21617C20.6969 7.85869 20.2281 8.51553 19.8146 9.15785L21.4963 10.2404C21.8744 9.65307 22.3092 9.0431 22.776 8.43887L21.1932 7.21617ZM19.8148 9.15763C19.5606 9.55232 19.2514 9.99675 18.8968 10.4788L20.5078 11.664C20.88 11.1581 21.214 10.6787 21.4962 10.2406L19.8148 9.15763ZM16.8648 13.055C16.1802 13.8761 15.4455 14.7202 14.6975 15.544L16.1782 16.8884C16.9445 16.0444 17.6978 15.1791 18.401 14.3356L16.8648 13.055ZM12.4287 17.934C12.0267 18.3373 11.6332 18.7201 11.2543 19.0758L12.6231 20.534C13.0201 20.1614 13.4294 19.763 13.845 19.3462L12.4287 17.934ZM11.2543 19.0758C10.8321 19.4721 10.4195 19.8752 10.0174 20.2838L11.4427 21.6868C11.8265 21.2969 12.2202 20.9122 12.6232 20.5339L11.2543 19.0758ZM7.69207 22.8455C6.933 23.7546 6.2291 24.6786 5.58988 25.6054L7.23629 26.7409C7.83887 25.8672 8.50538 24.9919 9.22731 24.1273L7.69207 22.8455ZM3.76744 28.5839C3.48491 29.1145 3.2267 29.6429 2.99496 30.1668L4.82403 30.9758C5.03477 30.4993 5.27144 30.0146 5.53275 29.5239L3.76744 28.5839ZM2.99494 30.1668C2.72243 30.783 2.46533 31.4015 2.22334 32.0218L4.08657 32.7487C4.31784 32.1559 4.56357 31.5647 4.82405 30.9758L2.99494 30.1668ZM0.934383 35.8149C0.556922 37.1121 0.241811 38.4123 -0.0137171 39.7105L1.94863 40.0968C2.19286 38.856 2.49401 37.6134 2.85474 36.3737L0.934383 35.8149ZM-0.612521 43.6716C-0.755059 45.0144 -0.836064 46.3499 -0.858651 47.6729L1.14106 47.707C1.16264 46.4427 1.24006 45.1662 1.37631 43.8827L-0.612521 43.6716ZM-0.748463 51.68C-0.650925 53.0282 -0.493196 54.3569 -0.278751 55.6602L1.69471 55.3354C1.49011 54.092 1.33949 52.8234 1.24632 51.5357L-0.748463 51.68ZM0.557713 59.5885C0.903315 60.9026 1.3083 62.1819 1.76872 63.419L3.64311 62.7214C3.20614 61.5473 2.82102 60.3311 2.49194 59.0798L0.557713 59.5885ZM3.36829 67.1092C3.98119 68.3361 4.6537 69.5065 5.38111 70.6113L7.05154 69.5115C6.36947 68.4756 5.73632 67.3742 5.15746 66.2154L3.36829 67.1092ZM7.83043 73.8427C8.74222 74.8863 9.71428 75.8414 10.7406 76.6952L12.0197 75.1577C11.0797 74.3757 10.1829 73.4955 9.33654 72.5268L7.83043 73.8427ZM14.119 79.0197C15.3342 79.6939 16.6044 80.2357 17.921 80.6284L18.4926 78.7118C17.3217 78.3626 16.1847 77.8786 15.0893 77.2708L14.119 79.0197ZM22.0043 81.3423C23.3548 81.4168 24.7347 81.3365 26.1353 81.0897L25.7881 79.12C24.5366 79.3406 23.3102 79.4113 22.1144 79.3454L22.0043 81.3423ZM30.0942 79.9573C30.717 79.7105 31.3416 79.4304 31.9674 79.1161L31.0697 77.3288C30.495 77.6175 29.9241 77.8734 29.3575 78.0979L30.0942 79.9573ZM31.9674 79.1161C32.4968 78.8502 33.0416 78.5087 33.5918 78.111L32.42 76.4902C31.9341 76.8415 31.4814 77.1221 31.0697 77.3289L31.9674 79.1161ZM36.3622 75.717C37.175 74.9112 37.9939 74.0154 38.7941 73.0621L37.2622 71.7763C36.4965 72.6885 35.7187 73.5386 34.9542 74.2966L36.3622 75.717ZM40.9925 70.2311C41.6944 69.2545 42.3619 68.2494 42.9737 67.2417L41.2642 66.2037C40.6807 67.1647 40.0419 68.1268 39.3684 69.0639L40.9925 70.2311ZM44.6998 64.0734C44.9696 63.5094 45.2149 62.9512 45.4311 62.4039L43.5709 61.6691C43.3737 62.1683 43.1475 62.6837 42.8956 63.2104L44.6998 64.0734ZM45.4311 62.4037C45.6981 61.7274 45.9377 61.0757 46.1517 60.4288L44.2529 59.8006C44.0529 60.4052 43.8268 61.021 43.5709 61.6693L45.4311 62.4037ZM47.1692 56.3121C47.3764 55.0619 47.5177 53.7091 47.6117 52.1428L45.6153 52.0229C45.5243 53.539 45.3892 54.8201 45.1961 55.9851L47.1692 56.3121ZM47.7544 48.011C47.7646 47.3596 47.7712 46.6747 47.7748 45.9522L45.7748 45.9422C45.7713 46.6589 45.7647 47.3365 45.7546 47.9795L47.7544 48.011ZM47.7748 45.9522C47.7785 45.2063 47.7802 44.5079 47.7789 43.8519L45.779 43.8558C45.7802 44.5059 45.7786 45.1993 45.7748 45.9422L47.7748 45.9522ZM47.6988 39.6357C47.6215 37.9511 47.4778 36.5929 47.2213 35.3352L45.2616 35.735C45.4905 36.8573 45.6264 38.1049 45.7009 39.7274L47.6988 39.6357ZM45.8795 31.1789C45.6219 30.5726 45.3319 29.9341 45.007 29.2404L43.1958 30.0886C43.5153 30.7709 43.7942 31.3855 44.0388 31.961L45.8795 31.1789ZM45.007 29.2404C44.6924 28.5686 44.4141 27.9649 44.1731 27.4136L42.3405 28.2147C42.5922 28.7903 42.8793 29.4127 43.1958 30.0886L45.007 29.2404ZM43.1165 23.9116C43.0908 23.0045 43.414 22.1852 44.4771 20.9964L42.9863 19.6632C41.7358 21.0614 41.0718 22.3585 41.1173 23.9681L43.1165 23.9116ZM47.3363 18.3033C47.8077 17.8964 48.321 17.4609 48.8792 16.9902L47.59 15.4612C47.0296 15.9338 46.5095 16.3749 46.0295 16.7892L47.3363 18.3033ZM48.8793 16.9901C49.308 16.6286 49.7125 16.2712 50.0924 15.9185L48.7316 14.4529C48.3768 14.7823 47.9962 15.1186 47.5899 15.4613L48.8793 16.9901ZM52.3439 13.5324C53.1624 12.51 53.763 11.5072 54.0918 10.5401L52.1982 9.89635C51.9681 10.5732 51.5112 11.3723 50.7825 12.2825L52.3439 13.5324ZM53.607 6.62428C53.2202 6.12057 52.708 5.70462 52.1029 5.36593L51.126 7.1111C51.5443 7.34522 51.8308 7.59509 52.0208 7.84246L53.607 6.62428ZM52.1028 5.36586C51.455 5.00336 50.7528 4.79861 49.9905 4.76866L49.912 6.76712C50.3514 6.78439 50.7468 6.89887 51.1262 7.11117L52.1028 5.36586ZM46.1634 5.83086C45.2288 6.3259 44.2182 6.99436 43.1136 7.83413L44.324 9.42628C45.3731 8.62875 46.2901 8.02698 47.0995 7.59823L46.1634 5.83086ZM40.3664 10.096C39.9411 10.4687 39.502 10.8622 39.0485 11.2767L40.3978 12.7529C40.8421 12.3469 41.2707 11.9628 41.6845 11.6002L40.3664 10.096ZM39.0485 11.2766C38.3574 11.9083 37.7571 12.4529 37.2267 12.9214L38.5508 14.4203C39.0946 13.94 39.7052 13.3859 40.3978 12.753L39.0485 11.2766ZM33.6868 15.2801C33.2444 15.323 32.7512 15.1969 31.7472 14.8178L31.0408 16.689C32.0099 17.0548 32.9142 17.3644 33.8798 17.2708L33.6868 15.2801ZM31.7473 14.8179C31.4802 14.717 31.2218 14.6122 30.9774 14.5064L30.1829 16.3418C30.4566 16.4603 30.7442 16.577 31.0407 16.6889L31.7473 14.8179ZM29.5502 13.7814C29.4687 13.73 29.4015 13.6843 29.3479 13.645C29.2933 13.6048 29.26 13.5764 29.2428 13.5604C29.2216 13.5406 29.2408 13.5543 29.2717 13.6011C29.2883 13.6263 29.3164 13.6731 29.3415 13.74C29.3668 13.8072 29.3947 13.9097 29.3947 14.0386H27.3947C27.3947 14.3513 27.5246 14.5849 27.6027 14.7031C27.6894 14.8344 27.791 14.941 27.8768 15.0212C28.0497 15.1829 28.265 15.3356 28.4846 15.4738L29.5502 13.7814ZM29.3947 14.0386C29.3947 14.1777 29.3622 14.2751 29.3532 14.3012C29.341 14.3368 29.3312 14.3545 29.3339 14.3493C29.3395 14.3384 29.3623 14.2985 29.4144 14.2234C29.5164 14.0764 29.6799 13.8672 29.9044 13.602L28.3779 12.3098C28.1353 12.5963 27.9256 12.8607 27.7712 13.0833C27.6951 13.193 27.6188 13.3119 27.5575 13.4304C27.52 13.5028 27.3947 13.742 27.3947 14.0386H29.3947ZM31.6539 11.711C31.948 11.4121 32.2581 11.1041 32.5782 10.7938L31.1862 9.35773C30.8548 9.679 30.5335 9.99813 30.2283 10.3083L31.6539 11.711ZM32.5782 10.7939C33.2004 10.1908 33.7424 9.64009 34.2027 9.13093L32.719 7.78975C32.2989 8.25449 31.7908 8.7718 31.1863 9.35766L32.5782 10.7939ZM36.0533 4.16348C35.7736 3.36672 35.202 2.65678 34.5114 1.96619L33.0972 3.3804C33.7254 4.0086 34.0378 4.4601 34.1661 4.82581L36.0533 4.16348ZM34.5113 1.96601C33.9289 1.38397 33.343 0.894938 32.6939 0.583269L31.8282 2.38621C32.1779 2.55413 32.576 2.85943 33.0974 3.38057L34.5113 1.96601ZM28.0819 1.11872C27.5462 1.39322 26.9613 1.72965 26.3156 2.12347L27.357 3.83096C27.9802 3.45088 28.5188 3.14211 28.994 2.89866L28.0819 1.11872ZM36.3626 47.7627C36.3626 48.4997 36.3349 49.2355 36.2811 49.9671L38.2757 50.1139C38.333 49.3345 38.3626 48.5497 38.3626 47.7627H36.3626ZM35.6454 54.3348C35.3248 55.8022 34.9043 57.222 34.399 58.5668L36.2711 59.2703C36.8108 57.8343 37.2585 56.322 37.5993 54.7616L35.6454 54.3348ZM32.5338 62.5411C31.7661 63.8709 30.912 65.0552 29.9977 66.0572L31.475 67.4053C32.4984 66.2838 33.4354 64.9795 34.2659 63.5411L32.5338 62.5411ZM26.7251 68.6924C26.1023 69.0272 25.4723 69.2759 24.8401 69.4346L25.3271 71.3744C26.134 71.1718 26.9178 70.8595 27.672 70.454L26.7251 68.6924ZM24.8401 69.4346C24.343 69.5594 23.8351 69.6215 23.3203 69.6245L23.332 71.6244C24.0008 71.6205 24.6687 71.5397 25.3271 71.3744L24.8401 69.4346ZM20.2518 68.9881C19.2988 68.5961 18.3563 68.0305 17.4609 67.3137L16.211 68.875C17.2381 69.6972 18.3432 70.3656 19.4909 70.8378L20.2518 68.9881ZM15.1269 64.9538C14.4491 64.0994 13.8413 63.1534 13.328 62.1374L11.5428 63.0392C12.117 64.1757 12.798 65.2361 13.5601 66.1968L15.1269 64.9538ZM12.1278 59.0178C11.9824 58.4833 11.8637 57.9384 11.7739 57.3854L9.79976 57.7058C9.90091 58.3291 10.0346 58.9422 10.1979 59.5427L12.1278 59.0178ZM11.7739 57.3853C11.6749 56.7752 11.5982 56.2929 11.5516 55.8981L9.56538 56.1328C9.61803 56.5785 9.70222 57.105 9.79977 57.7058L11.7739 57.3853ZM12.0883 54.9449C12.4594 54.9203 12.9335 54.9178 13.5672 54.9176L13.5666 52.9176C12.9495 52.9178 12.4056 52.9195 11.956 52.9493L12.0883 54.9449ZM13.5671 54.9176C14.1521 54.9174 14.8061 54.8374 15.4979 54.7011L15.1112 52.7388C14.4985 52.8596 13.9808 52.9175 13.5666 52.9176L13.5671 54.9176ZM19.0069 53.695C20.0724 53.3151 21.1942 52.8603 22.33 52.3511L21.5119 50.5261C20.4176 51.0166 19.3449 51.4512 18.3353 51.8111L19.0069 53.695ZM25.5387 50.7864C26.6032 50.2252 27.6498 49.63 28.6432 49.0171L27.593 47.315C26.6407 47.9025 25.6334 48.4755 24.6059 49.0173L25.5387 50.7864ZM31.6216 46.9971C32.1271 46.6158 32.6026 46.2321 33.0394 45.8494L31.7215 44.345C31.3266 44.691 30.8897 45.0439 30.4172 45.4004L31.6216 46.9971ZM33.0393 45.8495C33.3696 45.5602 33.6995 45.2796 34.0209 45.0137L32.746 43.4727C32.4103 43.7505 32.0661 44.0432 31.7216 44.345L33.0393 45.8495ZM36.0403 43.4593C36.3086 43.2733 36.5235 43.1368 36.6789 43.05C36.7573 43.0062 36.8053 42.9836 36.8277 42.9743C36.8383 42.97 36.8328 42.9729 36.8142 42.9782C36.7995 42.9823 36.7467 42.9967 36.6686 43.0009L36.5619 41.0037C36.3459 41.0153 36.1609 41.0857 36.0623 41.1266C35.9423 41.1763 35.8201 41.2388 35.7035 41.304C35.4689 41.435 35.195 41.6117 34.9006 41.8158L36.0403 43.4593ZM36.671 43.0008C36.4434 43.0135 36.2585 42.9393 36.1373 42.8604C36.0264 42.7882 35.9653 42.7111 35.9424 42.6799C35.9004 42.6226 35.9037 42.6041 35.9315 42.6833C35.982 42.8273 36.0455 43.0939 36.1074 43.4962L38.0841 43.1918C38.0158 42.7485 37.9302 42.3391 37.8187 42.0212C37.7654 41.8694 37.6844 41.6734 37.5555 41.4976C37.4488 41.3519 37.1223 40.9724 36.5595 41.0039L36.671 43.0008ZM36.3384 46.3204C36.3542 46.7801 36.3626 47.2636 36.3626 47.7627H38.3626C38.3626 47.2413 38.3538 46.7349 38.3372 46.2519L36.3384 46.3204ZM86.4017 53.3376C86.2794 54.0761 86.132 54.8054 85.9621 55.5215L87.908 55.9834C88.0885 55.2232 88.2449 54.4488 88.3748 53.6645L86.4017 53.3376ZM84.634 59.7648C84.0596 61.2189 83.3971 62.5517 82.6766 63.7164L84.3774 64.7686C85.167 63.4923 85.8811 62.0516 86.4942 60.4996L84.634 59.7648ZM79.97 67.0277C79.4057 67.5183 78.8464 67.8872 78.3038 68.1343L79.1329 69.9544C79.883 69.6127 80.6023 69.1282 81.2822 68.5371L79.97 67.0277ZM78.3036 68.1344C77.8761 68.3292 77.4264 68.4499 76.9582 68.5014L77.1768 70.4894C77.8473 70.4157 78.5042 70.2409 79.133 69.9543L78.3036 68.1344ZM74.068 68.0486C73.1708 67.6974 72.2574 67.1602 71.3721 66.4593L70.1306 68.0274C71.1471 68.8321 72.2308 69.4771 73.339 69.911L74.068 68.0486ZM69.0914 64.1942C68.4249 63.3775 67.8168 62.4712 67.2936 61.4973L65.5317 62.4438C66.1154 63.5302 66.7946 64.5431 67.5419 65.4588L69.0914 64.1942ZM66.0404 58.511C65.8818 57.9977 65.7483 57.475 65.6423 56.945L63.6811 57.3371C63.8008 57.9359 63.9514 58.5248 64.1295 59.1014L66.0404 58.511ZM65.6423 56.9447C65.5352 56.4101 65.4558 55.9909 65.4082 55.6514L63.4275 55.9289C63.4842 56.3331 63.5746 56.8047 63.6812 57.3373L65.6423 56.9447ZM65.8012 54.9495C66.1229 54.9242 66.5381 54.9186 67.093 54.9186V52.9186C66.5439 52.9186 66.0547 52.9234 65.644 52.9557L65.8012 54.9495ZM67.093 54.9186C67.8155 54.9186 68.6379 54.8237 69.5107 54.6621L69.1465 52.6956C68.3466 52.8437 67.6532 52.9186 67.093 52.9186V54.9186ZM73.9933 53.4462C75.4172 52.9608 76.8778 52.3811 78.2687 51.7489L77.4411 49.9281C76.109 50.5336 74.7092 51.0891 73.3479 51.5532L73.9933 53.4462ZM82.3663 49.5888C83.0878 49.1399 83.747 48.6797 84.3099 48.2179L83.0412 46.6717C82.5625 47.0645 81.9785 47.4746 81.3099 47.8905L82.3663 49.5888ZM84.3097 48.218C85.3328 47.3789 86.046 46.9339 86.5089 46.7755L85.8617 44.8832C85.0341 45.1662 84.0849 45.8157 83.0414 46.6716L84.3097 48.218ZM86.8179 50.4187C86.7241 51.2619 86.5849 52.2324 86.4017 53.3375L88.3748 53.6646C88.5618 52.5367 88.7068 51.529 88.8056 50.6397L86.8179 50.4187ZM85.5239 1.1627L86.2308 3.03361L86.2308 3.03361L85.5239 1.1627ZM77.1111 9.47292L78.6467 10.7543L78.6467 10.7543L77.1111 9.47292ZM86.1885 11.8584L87.6815 13.1892L87.6817 13.1889L86.1885 11.8584ZM81.2064 17.4473L79.7135 16.1165L78.145 17.876L80.1364 19.137L81.2064 17.4473ZM84.2654 19.3844L83.1955 21.0741L83.1955 21.0741L84.2654 19.3844ZM87.3245 21.3214L86.2545 23.0112L87.5841 23.8531L88.7152 22.7588L87.3245 21.3214ZM91.9877 16.8096L93.3784 18.247L93.3784 18.247L91.9877 16.8096ZM103.165 10.5859L102.559 12.4921L102.56 12.4922L103.165 10.5859ZM100.111 21.0584L98.8268 19.5248L98.8267 19.5249L100.111 21.0584ZM94.8126 33.8505L92.954 34.5891L92.954 34.5892L94.8126 33.8505ZM94.2915 64.6073L96.1144 65.4301L96.1144 65.4301L94.2915 64.6073ZM80.7072 78.4198L81.1941 80.3596L81.1941 80.3596L80.7072 78.4198ZM54.7084 56.9099L56.6469 56.4175L56.6468 56.4174L54.7084 56.9099ZM68.0247 18.1408L67.2597 16.2929L67.2593 16.2931L68.0247 18.1408ZM26.8363 2.97721L27.8772 4.685L27.8777 4.6847L26.8363 2.97721ZM20.6555 9.6991L22.3369 10.782L22.3372 10.7816L20.6555 9.6991ZM33.8043 2.67329L35.2186 1.25908L35.2182 1.25873L33.8043 2.67329ZM31.8822 10.0758L30.4903 8.63956L30.4902 8.63971L31.8822 10.0758ZM31.394 15.7534L30.6874 17.6244L30.6876 17.6245L31.394 15.7534ZM39.7231 12.0148L41.0724 13.4911L41.0724 13.4911L39.7231 12.0148ZM51.6145 6.23851L52.5914 4.49334L52.5912 4.49321L51.6145 6.23851ZM48.2346 16.2257L49.5239 17.7547L49.524 17.7546L48.2346 16.2257ZM44.1014 29.6645L45.9127 28.8163L45.9126 28.8163L44.1014 29.6645ZM46.7748 45.9472L44.7749 45.9372L44.7749 45.9372L46.7748 45.9472ZM44.501 62.0365L46.3611 62.7713L46.3613 62.7709L44.501 62.0365ZM31.5185 78.2225L32.4162 80.0097L32.4162 80.0097L31.5185 78.2225ZM3.9095 30.5713L2.08043 29.7623L2.08039 29.7624L3.9095 30.5713ZM11.9387 19.8049L10.5699 18.3467L10.5698 18.3468L11.9387 19.8049ZM25.0836 70.4045L24.5966 68.4647L24.5966 68.4647L25.0836 70.4045ZM36.6153 42.0023L36.7219 43.9995L36.7267 43.9992L36.6153 42.0023ZM32.3804 45.0972L31.0627 43.5927L31.0625 43.5928L32.3804 45.0972ZM13.5669 53.9176L13.5664 51.9176L13.5663 51.9176L13.5669 53.9176ZM10.7868 57.5456L12.761 57.2252L12.761 57.2251L10.7868 57.5456ZM87.3882 53.5011L85.4152 53.174L85.4151 53.1742L87.3882 53.5011ZM78.7183 69.0444L77.8892 67.2243L77.8889 67.2244L78.7183 69.0444ZM83.6756 47.4448L82.4073 45.8984L82.4069 45.8987L83.6756 47.4448ZM64.6617 57.141L66.6229 56.7489L66.6228 56.7484L64.6617 57.141ZM84.817 -0.70821C84.2897 -0.508955 83.7659 -0.138853 83.3538 0.17949C82.8927 0.535688 82.373 0.985991 81.8219 1.49638L84.5398 4.43115C85.0409 3.96713 85.4654 3.6028 85.7991 3.34501C85.9658 3.21627 86.094 3.1264 86.1857 3.06815C86.2893 3.00239 86.2973 3.0085 86.2308 3.03361L84.817 -0.70821ZM77.56 5.89412C76.8994 6.6333 76.2315 7.40539 75.5755 8.19157L78.6467 10.7543C79.2728 10.004 79.911 9.26618 80.5424 8.5597L77.56 5.89412ZM75.5755 8.19153C75.2493 8.58244 74.9167 8.97175 74.5807 9.35663L77.5937 11.9875C77.9487 11.581 78.3007 11.169 78.6467 10.7543L75.5755 8.19153ZM72.5138 11.6239C71.7671 12.4084 71.0376 13.1376 70.3576 13.7817L73.1083 16.6857C73.8439 15.989 74.6222 15.2105 75.411 14.3819L72.5138 11.6239ZM68.1404 15.7099C67.6301 16.0991 67.3457 16.2573 67.2597 16.2929L68.7896 19.9888C69.3753 19.7463 69.9979 19.3238 70.5662 18.8904L68.1404 15.7099ZM67.2593 16.2931C66.4896 16.6119 65.7451 16.9965 65.0276 17.4385L67.1255 20.8442C67.6733 20.5067 68.2287 20.2211 68.79 19.9886L67.2593 16.2931ZM61.2514 20.5103C60.1814 21.6136 59.1916 22.8552 58.2873 24.2023L61.6084 26.4317C62.395 25.2599 63.2372 24.2083 64.1229 23.2949L61.2514 20.5103ZM55.9736 28.2428C55.3124 29.599 54.719 31.024 54.1985 32.4992L57.9706 33.83C58.4429 32.4915 58.978 31.208 59.569 29.9959L55.9736 28.2428ZM52.8986 36.8991C52.5436 38.3714 52.2576 39.8761 52.0456 41.3981L56.0074 41.9499C56.2013 40.5576 56.4629 39.1816 56.7872 37.8366L52.8986 36.8991ZM51.6385 45.9617C51.5789 47.493 51.5972 49.0292 51.6995 50.5555L55.6905 50.2881C55.5981 48.9081 55.5811 47.5132 55.6355 46.1174L51.6385 45.9617ZM52.2725 55.1364C52.4144 55.8984 52.58 56.6544 52.77 57.4023L56.6468 56.4174C56.4787 55.7555 56.3315 55.0837 56.2048 54.4037L52.2725 55.1364ZM52.7699 57.4022C52.933 58.0441 53.1073 58.6757 53.2926 59.2967L57.1256 58.1532C56.9563 57.5855 56.7965 57.0069 56.6469 56.4175L52.7699 57.4022ZM54.5814 63.0154C55.0814 64.2713 55.6303 65.4737 56.2246 66.6188L59.7749 64.776C59.244 63.7533 58.7502 62.6724 58.2977 61.5359L54.5814 63.0154ZM58.2551 70.0491C59.0221 71.1883 59.8421 72.2517 60.7101 73.233L63.7062 70.5828C62.9599 69.7392 62.2468 68.8156 61.5731 67.815L58.2551 70.0491ZM63.6223 76.0655C64.6993 76.9594 65.8308 77.7429 67.0091 78.406L68.9707 74.92C68.0125 74.3808 67.0785 73.7358 66.1768 72.9874L63.6223 76.0655ZM70.8261 80.0708C72.1645 80.4943 73.5413 80.7694 74.9451 80.8861L75.2763 76.8998C74.1763 76.8084 73.0929 76.5926 72.0329 76.2571L70.8261 80.0708ZM79.1411 80.7621C79.8245 80.6655 80.5092 80.5315 81.1941 80.3596L80.2203 76.4799C79.67 76.6181 79.1234 76.7249 78.5813 76.8015L79.1411 80.7621ZM81.1941 80.3596C81.7725 80.2144 82.3431 80.0668 82.899 79.9069L81.7933 76.0628C81.3033 76.2037 80.7848 76.3383 80.2203 76.4799L81.1941 80.3596ZM86.4499 78.5122C87.5503 77.9146 88.5886 77.1481 89.6055 76.1191L86.7604 73.3074C86.0147 74.062 85.2906 74.5899 84.5409 74.9971L86.4499 78.5122ZM91.9607 73.1975C92.5692 72.2985 93.1815 71.2808 93.8091 70.1257L90.2944 68.216C89.7161 69.2803 89.1705 70.1837 88.6482 70.9553L91.9607 73.1975ZM95.3844 67.0089C95.6239 66.504 95.867 65.9781 96.1144 65.4301L92.4686 63.7845C92.2308 64.3113 91.9982 64.8143 91.7703 65.2947L95.3844 67.0089ZM96.1144 65.4301C96.3992 64.7991 96.6555 64.1155 96.886 63.3949L93.0761 62.1762C92.883 62.78 92.6794 63.3173 92.4686 63.7845L96.1144 65.4301ZM97.874 59.3509C98.1095 58.0736 98.2999 56.7217 98.446 55.3294L94.4678 54.9121C94.3312 56.2148 94.1547 57.4629 93.9403 58.6254L97.874 59.3509ZM98.7414 51.3106C98.7999 49.9765 98.8211 48.6281 98.8047 47.291L94.805 47.3401C94.8205 48.6025 94.8004 49.8761 94.7452 51.1355L98.7414 51.3106ZM98.6368 43.2652C98.5356 41.8721 98.3892 40.5156 98.196 39.229L94.2404 39.8231C94.4166 40.9967 94.5525 42.2508 94.6473 43.5551L98.6368 43.2652ZM97.3532 35.1631C97.152 34.4403 96.9256 33.752 96.6712 33.1119L92.954 34.5892C93.1469 35.0745 93.3296 35.6247 93.4996 36.2357L97.3532 35.1631ZM96.6713 33.112C96.4161 32.4698 96.2087 31.9117 96.0471 31.4123L92.2414 32.6437C92.4404 33.2588 92.6826 33.9061 92.954 34.5891L96.6713 33.112ZM95.7156 28.7029C95.8579 28.1297 96.2427 27.4188 97.2595 26.3322L94.3388 23.5991C93.1137 24.9084 92.212 26.2148 91.8335 27.7389L95.7156 28.7029ZM99.9361 23.83C100.384 23.443 100.869 23.0319 101.395 22.5918L98.8267 19.5249C98.2907 19.9737 97.7888 20.399 97.3205 20.8037L99.9361 23.83ZM101.394 22.592C102.041 22.0506 102.623 21.5453 103.144 21.0683L100.443 18.1185C99.9773 18.5446 99.4422 19.0097 98.8268 19.5248L101.394 22.592ZM106.439 17.0605C106.924 16.0548 107.12 15.0658 107.12 14.0356H103.12C103.12 14.5173 103.037 14.9056 102.836 15.3241L106.439 17.0605ZM107.12 14.0356C107.12 13.5613 107.089 13.0986 107.019 12.6535L103.068 13.2784C103.1 13.4794 103.12 13.7288 103.12 14.0356H107.12ZM105.395 9.56104C104.906 9.14772 104.351 8.86422 103.77 8.67966L102.56 12.4922C102.712 12.5404 102.782 12.5897 102.814 12.6167L105.395 9.56104ZM103.77 8.6797C103.001 8.43567 102.202 8.33706 101.366 8.40134L101.673 12.3896C101.986 12.3654 102.271 12.4007 102.559 12.4921L103.77 8.6797ZM97.3937 9.79518C96.4635 10.3436 95.4839 11.0511 94.4339 11.9096L96.9659 15.0062C97.9142 14.2308 98.7235 13.6546 99.4254 13.2408L97.3937 9.79518ZM91.8354 14.1955C91.4355 14.568 91.023 14.9601 90.5971 15.3723L93.3784 18.247C93.7884 17.8503 94.1825 17.4757 94.5618 17.1224L91.8354 14.1955ZM90.5971 15.3723L89.4312 16.5002L92.2126 19.3749L93.3784 18.247L90.5971 15.3723ZM87.0996 18.7561L85.9338 19.8841L88.7152 22.7588L89.881 21.6308L87.0996 18.7561ZM88.3944 19.6317L87.6297 19.1474L85.4897 22.5269L86.2545 23.0112L88.3944 19.6317ZM86.1002 18.1789L85.3354 17.6947L83.1955 21.0741L83.9602 21.5584L86.1002 18.1789ZM85.3354 17.6947L84.5706 17.2104L82.4307 20.5898L83.1955 21.0741L85.3354 17.6947ZM83.0411 16.2419L82.2764 15.7576L80.1364 19.137L80.9012 19.6213L83.0411 16.2419ZM82.6993 18.7782L83.9449 17.3809L80.959 14.7192L79.7135 16.1165L82.6993 18.7782ZM86.4359 14.5864L87.6815 13.1892L84.6956 10.5275L83.4501 11.9248L86.4359 14.5864ZM87.6817 13.1889C88.2223 12.5823 88.7436 11.963 89.2343 11.3491L86.1095 8.85192C85.6621 9.41179 85.1868 9.97631 84.6953 10.5278L87.6817 13.1889ZM92.039 7.33768C92.3374 6.82284 92.5991 6.31637 92.7922 5.8472C92.9629 5.43249 93.1697 4.83961 93.1697 4.22174H89.1697C89.1697 4.09566 89.1905 4.04031 89.178 4.08753C89.1681 4.12485 89.1437 4.20219 89.0933 4.3248C88.9916 4.57192 88.8228 4.90995 88.5781 5.33212L92.039 7.33768ZM93.1697 4.22174C93.1697 3.14864 92.8583 2.15704 92.302 1.32323L88.9745 3.54316C89.0927 3.72028 89.1697 3.93954 89.1697 4.22174H93.1697ZM87.3887 -1.17813C86.5411 -1.18367 85.6695 -1.03031 84.817 -0.708208L86.2308 3.03361C86.632 2.88203 87.0159 2.81952 87.3625 2.82179L87.3887 -1.17813ZM25.7954 1.26942C25.1115 1.68626 24.3792 2.29276 23.6761 2.95563L26.42 5.86611C27.0328 5.28841 27.5339 4.89422 27.8772 4.685L25.7954 1.26942ZM20.4019 6.60482C19.8907 7.26649 19.4049 7.94677 18.9738 8.6166L22.3372 10.7816C22.6975 10.2218 23.1153 9.6353 23.5673 9.05021L20.4019 6.60482ZM18.974 8.61616C18.7338 8.98912 18.4371 9.41609 18.0913 9.8862L21.3133 12.2566C21.6943 11.7387 22.0407 11.2419 22.3369 10.782L18.974 8.61616ZM16.0966 12.4147C15.4214 13.2246 14.6959 14.058 13.9571 14.8718L16.9186 17.5606C17.694 16.7065 18.4566 15.8306 19.1691 14.9759L16.0966 12.4147ZM11.7206 17.228C11.3253 17.6244 10.9397 17.9995 10.5699 18.3467L13.3075 21.2631C13.7135 20.882 14.1308 20.4758 14.5531 20.0523L11.7206 17.228ZM10.5698 18.3468C10.1381 18.7521 9.71606 19.1643 9.30467 19.5823L12.1554 22.3882C12.5299 22.0078 12.9143 21.6323 13.3076 21.263L10.5698 18.3468ZM6.92445 22.2046C6.14681 23.136 5.42421 24.0843 4.76668 25.0377L8.05949 27.3087C8.64375 26.4615 9.29157 25.6106 9.99493 24.7682L6.92445 22.2046ZM2.88478 28.1139C2.59164 28.6644 2.32266 29.2146 2.08043 29.7623L5.73856 31.3803C5.93881 30.9276 6.16471 30.4647 6.4154 29.9939L2.88478 28.1139ZM2.08039 29.7624C1.80186 30.3921 1.53908 31.0243 1.29172 31.6584L5.01818 33.1121C5.2441 32.5331 5.48414 31.9556 5.7386 31.3802L2.08039 29.7624ZM-0.0257946 35.5355C-0.411623 36.8615 -0.733711 38.1904 -0.994893 39.5174L2.92981 40.2899C3.16838 39.0778 3.46256 37.864 3.81491 36.6531L-0.0257946 35.5355ZM-1.60693 43.5661C-1.75262 44.9385 -1.83542 46.3036 -1.8585 47.6558L2.14091 47.7241C2.162 46.4891 2.23762 45.2421 2.37072 43.9883L-1.60693 43.5661ZM-1.74586 51.7522C-1.64613 53.1305 -1.48485 54.4894 -1.26548 55.8225L2.68144 55.1731C2.48176 53.9595 2.3347 52.7211 2.24372 51.4635L-1.74586 51.7522ZM-0.409402 59.8428C-0.0555382 61.1884 0.359385 62.4992 0.831522 63.7678L4.58031 62.3726C4.15506 61.23 3.77987 60.0454 3.45906 58.8255L-0.409402 59.8428ZM2.47371 67.5561C3.10363 68.8171 3.79582 70.022 4.54589 71.1612L7.88675 68.9615C7.22735 67.9601 6.61388 66.8932 6.05204 65.7685L2.47371 67.5561ZM7.07738 74.5006C8.02186 75.5816 9.03158 76.5743 10.101 77.464L12.6592 74.389C11.7624 73.6428 10.9033 72.8001 10.0896 71.8688L7.07738 74.5006ZM13.6339 79.8941C14.9089 80.6015 16.2457 81.1722 17.6352 81.5866L18.7785 77.7535C17.6804 77.426 16.61 76.9709 15.5745 76.3964L13.6339 79.8941ZM21.9492 82.3408C23.3771 82.4196 24.8337 82.3345 26.3089 82.0745L25.6145 78.1352C24.4376 78.3427 23.2879 78.4086 22.1695 78.3469L21.9492 82.3408ZM30.4626 80.887C31.1135 80.629 31.7649 80.3368 32.4162 80.0097L30.6209 76.4352C30.0717 76.711 29.5276 76.9549 28.9891 77.1683L30.4626 80.887ZM32.4162 80.0097C33.0045 79.7142 33.5954 79.3423 34.1777 78.9214L31.8341 75.6798C31.3803 76.0079 30.9738 76.258 30.6209 76.4352L32.4162 80.0097ZM37.0662 76.4271C37.9031 75.5975 38.7426 74.6789 39.5601 73.705L36.4962 71.1334C35.7478 72.0251 34.9906 72.8524 34.2501 73.5864L37.0662 76.4271ZM41.8045 70.8148C42.5206 69.8183 43.2025 68.7917 43.8285 67.7607L40.4094 65.6847C39.84 66.6224 39.2157 67.563 38.5564 68.4803L41.8045 70.8148ZM45.6019 64.5049C45.8806 63.9222 46.1354 63.3426 46.3611 62.7713L42.6409 61.3017C42.4531 61.7769 42.2365 62.2708 41.9935 62.779L45.6019 64.5049ZM46.3613 62.7709C46.6338 62.0805 46.8801 61.4109 47.1011 60.7429L43.3035 59.4865C43.1105 60.07 42.8911 60.6678 42.6407 61.3021L46.3613 62.7709ZM48.1557 56.4756C48.37 55.1827 48.5144 53.7941 48.6099 52.2027L44.6171 51.963C44.5276 53.454 44.3956 54.6993 44.2095 55.8216L48.1557 56.4756ZM48.7542 48.0267C48.7645 47.3712 48.7712 46.6826 48.7748 45.9571L44.7749 45.9372C44.7713 46.651 44.7648 47.325 44.7547 47.9638L48.7542 48.0267ZM48.7748 45.9572C48.7785 45.2098 48.7802 44.509 48.7789 43.8499L44.779 43.8578C44.7802 44.5048 44.7786 45.1958 44.7749 45.9372L48.7748 45.9572ZM48.6978 39.5899C48.619 37.8742 48.4714 36.4607 48.2011 35.1354L44.2818 35.9348C44.4969 36.9894 44.6289 38.1818 44.702 39.7733L48.6978 39.5899ZM46.7999 30.7879C46.5357 30.1662 46.2401 29.5156 45.9127 28.8163L42.2902 30.5127C42.607 31.1893 42.8804 31.7919 43.1184 32.352L46.7999 30.7879ZM45.9126 28.8163C45.599 28.1465 45.3251 27.5522 45.0894 27.013L41.4243 28.6153C41.6812 29.2029 41.9727 29.8348 42.2902 30.5128L45.9126 28.8163ZM44.1161 23.8833C44.1004 23.3275 44.2531 22.747 45.2225 21.663L42.2409 18.9966C40.8968 20.4996 40.0622 22.0355 40.1177 23.9964L44.1161 23.8833ZM47.9896 19.0603C48.4568 18.6571 48.9667 18.2245 49.5239 17.7547L46.9453 14.6967C46.3839 15.1702 45.8604 15.6142 45.3761 16.0322L47.9896 19.0603ZM49.524 17.7546C49.9639 17.3836 50.3804 17.0157 50.7728 16.6514L48.0512 13.72C47.7089 14.0378 47.3403 14.3636 46.9452 14.6968L49.524 17.7546ZM53.1245 14.1574C53.9879 13.0789 54.6605 11.9742 55.0386 10.8619L51.2514 9.5745C51.0707 10.1062 50.6856 10.8035 50.0019 11.6575L53.1245 14.1574ZM54.4001 6.01518C53.9148 5.38331 53.2899 4.88431 52.5914 4.49334L50.6376 7.98369C50.9624 8.16553 51.1362 8.33235 51.2277 8.45156L54.4001 6.01518ZM52.5912 4.49321C51.8092 4.0556 50.9535 3.80572 50.0297 3.76943L49.8727 7.76635C50.1507 7.77727 50.3927 7.84663 50.6378 7.98382L52.5912 4.49321ZM45.6953 4.94718C44.6982 5.47536 43.6408 6.17716 42.5084 7.03805L44.9292 10.2224C45.9505 9.44595 46.8208 8.87752 47.5676 8.48192L45.6953 4.94718ZM39.7074 9.34386C39.2762 9.72167 38.8319 10.1198 38.3738 10.5385L41.0724 13.4911C41.5121 13.0892 41.9355 12.7098 42.3435 12.3523L39.7074 9.34386ZM38.3739 10.5385C37.6835 11.1695 37.0884 11.7093 36.5647 12.1719L39.2128 15.1698C39.7633 14.6836 40.3791 14.1247 41.0724 13.4911L38.3739 10.5385ZM33.5903 14.2848C33.4095 14.3023 33.1219 14.2679 32.1003 13.8823L30.6876 17.6245C31.6392 17.9837 32.7491 18.3851 33.9763 18.2661L33.5903 14.2848ZM32.1006 13.8824C31.8482 13.7871 31.6045 13.6882 31.3746 13.5887L29.7857 17.2596C30.0739 17.3843 30.3763 17.5069 30.6874 17.6244L32.1006 13.8824ZM30.0831 12.9352C29.9371 12.8433 29.9008 12.8065 29.9258 12.8299C29.9369 12.8404 30.0165 12.9142 30.1062 13.0501C30.1785 13.1596 30.3947 13.5126 30.3947 14.0386H26.3947C26.3947 14.6309 26.64 15.06 26.7681 15.254C26.9137 15.4744 27.0757 15.6412 27.1938 15.7516C27.4327 15.975 27.7076 16.1663 27.9517 16.3201L30.0831 12.9352ZM30.3947 14.0386C30.3947 14.1971 30.3749 14.3263 30.3567 14.4143C30.3381 14.5045 30.316 14.5767 30.2988 14.6266C30.2658 14.7226 30.2334 14.7868 30.2221 14.8087C30.2086 14.8348 30.2014 14.8458 30.2057 14.8389C30.2093 14.833 30.2188 14.8183 30.236 14.7935C30.3118 14.6843 30.4522 14.5026 30.6677 14.248L27.6146 11.6637C27.3631 11.9609 27.1302 12.2529 26.9496 12.5132C26.8615 12.6402 26.7584 12.7986 26.6692 12.971C26.6279 13.051 26.3947 13.4793 26.3947 14.0386H30.3947ZM32.3667 12.4124C32.6553 12.1191 32.9598 11.8166 33.2743 11.5118L30.4902 8.63971C30.1531 8.96646 29.8262 9.29115 29.5154 9.607L32.3667 12.4124ZM33.2741 11.5119C33.9052 10.9003 34.4641 10.3329 34.9445 9.80152L31.9772 7.11917C31.5771 7.56168 31.086 8.06229 30.4903 8.63956L33.2741 11.5119ZM36.9969 3.83231C36.6416 2.82003 35.9403 1.98087 35.2186 1.25908L32.3901 4.08751C32.9871 4.68451 33.1699 5.00679 33.2226 5.15698L36.9969 3.83231ZM35.2182 1.25873C34.6054 0.646241 33.9255 0.0653427 33.1267 -0.318201L31.3954 3.28768C31.5954 3.38373 31.8995 3.59717 32.3905 4.08786L35.2182 1.25873ZM27.6259 0.228752C27.0599 0.518771 26.4519 0.86903 25.7949 1.26972L27.8777 4.6847C28.4896 4.3115 29.0052 4.01655 29.45 3.78863L27.6259 0.228752ZM35.3626 47.7627C35.3626 48.4747 35.3359 49.1861 35.2838 49.8938L39.273 50.1872C39.3321 49.3839 39.3626 48.5747 39.3626 47.7627H35.3626ZM34.6684 54.1214C34.358 55.5424 33.9511 56.9159 33.4629 58.215L37.2072 59.6221C37.764 58.1404 38.2253 56.5818 38.5763 54.975L34.6684 54.1214ZM31.6678 62.0412C30.9314 63.3166 30.1188 64.4409 29.259 65.3832L32.2137 68.0794C33.2917 66.8981 34.2701 65.5339 35.1319 64.0411L31.6678 62.0412ZM26.2517 67.8116C25.6946 68.111 25.1415 68.3279 24.5966 68.4647L25.5706 72.3443C26.4648 72.1198 27.3255 71.7756 28.1455 71.3348L26.2517 67.8116ZM24.5966 68.4647C24.1802 68.5692 23.7522 68.6219 23.3144 68.6245L23.3378 72.6244C24.0837 72.6201 24.8315 72.5299 25.5706 72.3443L24.5966 68.4647ZM20.6322 68.0633C19.7766 67.7114 18.9154 67.1971 18.0859 66.533L15.5861 69.6557C16.679 70.5306 17.8654 71.2504 19.1104 71.7626L20.6322 68.0633ZM15.9103 64.3323C15.2747 63.5311 14.7034 62.6422 14.2205 61.6864L10.6503 63.4901C11.2549 64.6869 11.9724 65.8045 12.7767 66.8183L15.9103 64.3323ZM13.0928 58.7553C12.9563 58.2538 12.845 57.743 12.761 57.2252L8.81267 57.866C8.91953 58.5244 9.06071 59.1717 9.233 59.8052L13.0928 58.7553ZM12.761 57.2251C12.6612 56.6104 12.5883 56.1501 12.5447 55.7808L8.57229 56.2501C8.62794 56.7212 8.7159 57.2698 8.81269 57.8661L12.761 57.2251ZM12.1544 55.9427C12.4863 55.9207 12.9255 55.9178 13.5675 55.9176L13.5663 51.9176C12.9576 51.9178 12.3787 51.9191 11.8899 51.9515L12.1544 55.9427ZM13.5674 55.9176C14.2378 55.9174 14.9598 55.8263 15.6912 55.6822L14.9178 51.7577C14.3447 51.8706 13.8951 51.9175 13.5664 51.9176L13.5674 55.9176ZM19.3427 54.6369C20.4361 54.2471 21.5825 53.7821 22.7391 53.2636L21.1028 49.6136C20.0293 50.0948 18.9811 50.5192 17.9995 50.8692L19.3427 54.6369ZM26.0052 51.671C27.0881 51.1 28.1543 50.4937 29.1682 49.8681L27.0679 46.4639C26.1362 47.0388 25.1486 47.6006 24.1394 48.1328L26.0052 51.671ZM32.2238 47.7954C32.7457 47.4017 33.2405 47.0027 33.6983 46.6016L31.0625 43.5928C30.6887 43.9204 30.2711 44.258 29.815 44.602L32.2238 47.7954ZM33.6982 46.6017C34.0213 46.3187 34.3441 46.0442 34.6584 45.7842L32.1086 42.7022C31.7657 42.9859 31.4144 43.2847 31.0627 43.5927L33.6982 46.6017ZM36.6101 44.2811C36.8654 44.1041 37.0508 43.9877 37.1666 43.923C37.2258 43.8899 37.2369 43.8873 37.2104 43.8982C37.196 43.9042 37.1529 43.9215 37.0873 43.9401C37.0534 43.9498 37.0067 43.9617 36.9493 43.9724C36.8928 43.983 36.8155 43.9945 36.7219 43.9995L36.5086 40.0052C36.1184 40.026 35.8056 40.1505 35.6797 40.2027C35.5108 40.2726 35.3516 40.3551 35.2158 40.431C34.9416 40.5841 34.6382 40.7809 34.3308 40.994L36.6101 44.2811ZM36.7267 43.9992C36.2487 44.0259 35.8564 43.8707 35.5917 43.6984C35.3476 43.5395 35.2033 43.3631 35.1359 43.2711C35.0084 43.0971 34.9728 42.9715 34.9879 43.0143C35.0079 43.0714 35.0603 43.2666 35.1191 43.6484L39.0725 43.0396C39.001 42.5758 38.9044 42.095 38.7623 41.6901C38.6963 41.502 38.5764 41.1988 38.3621 40.9064C38.192 40.6743 37.5838 39.9451 36.5038 40.0054L36.7267 43.9992ZM35.339 46.3546C35.3543 46.8027 35.3626 47.2748 35.3626 47.7627H39.3626C39.3626 47.2301 39.3536 46.7124 39.3366 46.2177L35.339 46.3546ZM85.4151 53.1742C85.2966 53.8897 85.1538 54.5966 84.9891 55.2906L88.881 56.2143C89.0667 55.432 89.2276 54.6351 89.3614 53.828L85.4151 53.1742ZM83.704 59.3974C83.1489 60.8025 82.5122 62.0814 81.8261 63.1903L85.2278 65.2947C86.0519 63.9626 86.7918 62.468 87.4242 60.867L83.704 59.3974ZM79.3139 66.2731C78.8074 66.7134 78.328 67.0244 77.8892 67.2243L79.5474 70.8644C80.4014 70.4754 81.2005 69.9331 81.9382 69.2918L79.3139 66.2731ZM77.8889 67.2244C77.5621 67.3734 77.2159 67.467 76.8489 67.5074L77.2861 71.4834C78.0577 71.3986 78.8182 71.1967 79.5477 70.8643L77.8889 67.2244ZM74.4325 67.1174C73.6409 66.8075 72.8125 66.3243 71.9928 65.6753L69.5099 68.8114C70.592 69.6681 71.7607 70.367 72.9745 70.8422L74.4325 67.1174ZM69.8661 63.5619C69.24 62.7948 68.6675 61.9417 68.1745 61.024L64.6508 62.9171C65.2647 64.0598 65.9795 65.1259 66.7672 66.0911L69.8661 63.5619ZM66.9958 58.2157C66.847 57.7342 66.722 57.2445 66.6229 56.7489L62.7005 57.5331C62.8271 58.1663 62.9862 58.7884 63.1741 59.3966L66.9958 58.2157ZM66.6228 56.7484C66.5156 56.2128 66.4416 55.8197 66.3985 55.5126L62.4372 56.0677C62.4984 56.5042 62.5942 57.0021 62.7006 57.5336L66.6228 56.7484ZM65.8798 55.9465C66.1571 55.9246 66.5352 55.9186 67.093 55.9186V51.9186C66.5468 51.9186 66.0206 51.9229 65.5655 51.9588L65.8798 55.9465ZM67.093 55.9186C67.8966 55.9186 68.7835 55.8138 69.6927 55.6454L68.9645 51.7123C68.2009 51.8537 67.572 51.9186 67.093 51.9186V55.9186ZM74.316 54.3927C75.7712 53.8966 77.2622 53.3048 78.6825 52.6592L77.0273 49.0178C75.7246 49.6099 74.3551 50.1533 73.0252 50.6067L74.316 54.3927ZM82.8944 50.4379C83.6425 49.9726 84.3393 49.4873 84.9442 48.991L82.4069 45.8987C81.9703 46.2569 81.4239 46.6419 80.7817 47.0413L82.8944 50.4379ZM84.9438 48.9912C85.9567 48.1605 86.552 47.8177 86.8326 47.7217L85.538 43.937C84.5281 44.2824 83.461 45.0341 82.4073 45.8984L84.9438 48.9912ZM85.824 50.3082C85.7328 51.1284 85.5965 52.0803 85.4152 53.174L89.3613 53.8282C89.5502 52.6888 89.6981 51.6625 89.7995 50.7502L85.824 50.3082Z" fill="black" mask="url(#path-1-inside-1_159_1374)"/>
</svg>
