<svg width="1618" height="217" viewBox="0 0 1618 217" fill="none" xmlns="http://www.w3.org/2000/svg">
<path d="M89.1889 171.964C96.9693 171.964 103.516 170.825 108.83 168.548C114.333 166.271 118.982 163.709 122.777 160.863C126.573 158.016 129.894 155.454 132.74 153.177C135.776 150.9 138.813 149.761 141.849 149.761C145.644 149.761 147.542 152.608 147.542 158.301C147.542 161.337 147.162 165.038 146.403 169.402C145.644 173.577 144.601 178.321 143.272 183.635C142.513 186.861 140.615 190.371 137.579 194.167C134.733 197.962 130.748 201.568 125.624 204.983C120.5 208.209 114.143 210.961 106.552 213.238C99.1516 215.326 90.6121 216.369 80.9341 216.369C71.256 216.369 61.5779 214.946 51.8999 212.099C42.2218 209.253 33.5875 204.414 25.9968 197.582C18.4062 190.751 12.2388 181.547 7.49464 169.971C2.75049 158.396 0.378418 143.879 0.378418 126.42C0.378418 120.158 0.75795 112.947 1.51701 104.787C2.46584 96.4372 4.17374 87.8977 6.64069 79.1685C9.10765 70.4393 12.5234 61.8998 16.8881 53.5501C21.4424 45.0106 27.2303 37.42 34.2516 30.7782C41.273 24.1364 49.8124 18.823 59.87 14.8379C70.1174 10.663 82.2624 8.5756 96.3051 8.5756C107.501 8.5756 117.179 9.90397 125.339 12.5607C133.689 15.2174 140.521 18.9178 145.834 23.662C151.337 28.2164 155.322 33.6247 157.789 39.887C160.446 46.1493 161.774 52.791 161.774 59.8124C161.774 71.9574 158.169 80.8764 150.958 86.5694C143.936 92.0726 133.879 94.8242 120.785 94.8242C116.61 94.8242 113.953 94.5396 112.815 93.9703C111.866 93.2112 111.391 91.7879 111.391 89.7005C111.202 83.2485 111.012 77.6504 110.822 72.9062C110.632 68.1621 109.968 64.2719 108.83 61.2356C107.691 58.0096 105.888 55.7324 103.421 54.4041C101.144 52.8859 97.9181 52.1269 93.7432 52.1269C87.6707 52.1269 82.4522 53.4552 78.0876 56.112C73.9127 58.5789 70.3072 61.8998 67.2709 66.0747C64.4244 70.0598 62.0523 74.6141 60.1547 79.7378C58.4468 84.8615 57.0235 90.08 55.8849 95.3935C54.9361 100.707 54.2719 105.831 53.8924 110.765C53.7026 115.698 53.6078 119.968 53.6078 123.574C53.6078 141.032 56.4542 153.462 62.1472 160.863C68.03 168.264 77.0438 171.964 89.1889 171.964Z" fill="#DEDEDE"/>
<path d="M236.69 81.161C236.69 85.1461 236.311 90.7442 235.552 97.9553C234.982 105.166 234.318 112.662 233.559 120.443C232.99 128.223 232.326 135.529 231.567 142.361C230.997 149.192 230.713 154.126 230.713 157.162C230.713 163.804 232.326 169.023 235.552 172.818C238.968 176.424 243.617 178.226 249.5 178.226C254.623 178.226 258.893 176.234 262.309 172.249C265.914 168.074 268.761 162.76 270.848 156.308C273.125 149.667 274.928 142.171 276.257 133.821C277.585 125.471 278.534 117.027 279.103 108.487C279.862 99.9479 280.431 91.6931 280.811 83.7229C281.38 75.563 281.95 68.5416 282.519 62.6589C282.709 61.1407 283.278 59.8124 284.227 58.6738C285.176 57.5352 286.694 56.9659 288.781 56.9659H299.028C304.911 56.9659 309.655 57.6301 313.261 58.9584C317.056 60.097 319.998 61.8049 322.085 64.0821C324.362 66.3593 325.88 69.2058 326.639 72.6216C327.588 75.8476 328.063 79.6429 328.063 84.0075C328.063 86.854 327.873 90.934 327.493 96.2474C327.304 101.371 326.829 108.582 326.07 117.881C325.311 126.99 324.362 138.66 323.224 152.893C322.275 166.935 321.041 184.394 319.523 205.268C319.144 209.253 318.669 211.625 318.1 212.384C317.72 213.143 316.202 213.523 313.546 213.523H302.444C296.751 213.523 292.007 212.859 288.212 211.53C284.606 210.202 281.665 208.494 279.388 206.407C277.11 204.319 275.497 201.852 274.549 199.006C273.6 196.159 273.03 193.218 272.841 190.182C269.994 195.115 266.768 199.29 263.163 202.706C259.747 206.122 256.141 208.873 252.346 210.961C248.551 212.859 244.66 214.187 240.675 214.946C236.69 215.895 232.8 216.369 229.005 216.369C221.794 216.369 215.342 215.231 209.649 212.953C203.956 210.486 199.117 207.26 195.132 203.275C191.336 199.29 188.395 194.546 186.307 189.043C184.22 183.54 183.176 177.657 183.176 171.395C183.176 168.928 183.271 164.943 183.461 159.439C183.841 153.747 184.22 147.389 184.6 140.368C185.169 133.347 185.738 125.946 186.307 118.165C186.877 110.195 187.351 102.699 187.731 95.6781C188.3 88.6568 188.774 82.4894 189.154 77.176C189.723 71.8625 190.103 68.0672 190.293 65.79C190.672 62.3742 191.431 60.097 192.57 58.9584C193.708 57.6301 195.606 56.9659 198.263 56.9659H207.371C213.254 56.9659 218.093 57.5352 221.889 58.6738C225.684 59.8124 228.625 61.4254 230.713 63.5128C232.99 65.6002 234.508 68.1621 235.267 71.1983C236.216 74.0448 236.69 77.3657 236.69 81.161Z" fill="#DEDEDE"/>
<path d="M419.893 95.3935C419.324 102.605 418.66 109.721 417.9 116.742C417.331 123.763 416.762 130.405 416.193 136.668C415.623 142.93 415.149 148.528 414.769 153.462C414.58 158.396 414.485 162.191 414.485 164.848C414.485 169.782 415.054 173.103 416.193 174.811C417.331 176.329 419.229 177.088 421.886 177.088C423.973 177.088 425.776 176.708 427.294 175.949C428.812 175.19 430.235 174.336 431.564 173.387C432.892 172.438 434.031 171.584 434.979 170.825C436.118 170.066 437.351 169.687 438.68 169.687C440.008 169.687 441.242 170.446 442.38 171.964C443.519 173.482 444.088 176.993 444.088 182.496C444.088 192.933 441.242 201.188 435.549 207.26C429.856 213.333 420.083 216.369 406.23 216.369C392.567 216.369 382.414 213.238 375.772 206.976C369.32 200.524 366.094 190.751 366.094 177.657C366.094 174.811 366.189 171.49 366.379 167.694C366.759 163.709 367.233 158.586 367.802 152.323C368.372 146.061 369.036 138.375 369.795 129.267C370.744 120.158 371.692 108.867 372.641 95.3935H357.555C356.037 95.3935 355.088 95.1088 354.708 94.5395C354.519 93.7805 354.424 92.7368 354.424 91.4084L355.278 76.8913C355.467 74.4244 355.752 72.0523 356.132 69.7751C356.701 67.3081 357.65 65.1258 358.978 63.2282C360.496 61.3305 362.584 59.8124 365.24 58.6738C367.897 57.5352 371.408 56.9659 375.772 56.9659C377.101 53.5501 378.619 49.4701 380.327 44.726C382.035 39.9818 383.743 35.4275 385.45 31.0629C387.158 26.5085 388.771 22.7132 390.29 19.6769C391.997 16.6406 393.516 15.1225 394.844 15.1225H403.099C411.069 15.1225 416.572 17.5895 419.608 22.5234C422.645 27.4573 424.163 33.3401 424.163 40.1716C424.163 43.9669 423.878 49.565 423.309 56.9659H453.197C456.233 56.9659 457.751 58.2943 457.751 60.951L456.613 76.322C456.233 82.015 454.62 86.6643 451.774 90.2698C449.117 93.6856 443.519 95.3935 434.979 95.3935H419.893Z" fill="#DEDEDE"/>
<path d="M541.887 216.369C533.538 216.369 525.188 215.326 516.838 213.238C508.678 211.151 501.277 207.545 494.636 202.421C488.184 197.298 482.87 190.466 478.695 181.927C474.52 173.387 472.433 162.665 472.433 149.761C472.433 145.017 472.813 139.324 473.572 132.682C474.331 126.041 475.754 119.209 477.841 112.188C480.118 105.166 483.155 98.24 486.95 91.4084C490.935 84.3871 496.059 78.1248 502.321 72.6216C508.583 67.1184 516.174 62.6589 525.093 59.2431C534.012 55.8273 544.639 54.1194 556.974 54.1194C566.841 54.1194 575.191 55.258 582.023 57.5352C588.854 59.8124 594.358 62.9435 598.532 66.9286C602.707 70.7239 605.743 75.1834 607.641 80.3071C609.539 85.4308 610.488 90.934 610.488 96.8167C610.488 105.546 608.685 112.947 605.079 119.019C601.664 125.092 597.109 130.216 591.416 134.39C585.913 138.375 579.746 141.507 572.914 143.784C566.082 146.061 559.346 147.864 552.704 149.192C546.062 150.331 539.895 151.09 534.202 151.469C528.699 151.659 524.429 151.754 521.393 151.754C521.393 155.36 521.867 158.965 522.816 162.571C523.954 165.986 525.567 169.023 527.655 171.679C529.742 174.336 532.494 176.518 535.91 178.226C539.325 179.934 543.5 180.788 548.434 180.788C553.368 180.788 557.163 180.029 559.82 178.511C562.667 176.803 564.944 175 566.652 173.103C568.36 171.015 569.783 169.212 570.921 167.694C572.25 165.986 573.958 165.132 576.045 165.132C576.994 165.132 578.607 165.417 580.884 165.986C583.351 166.366 585.818 167.315 588.285 168.833C590.752 170.351 592.934 172.438 594.832 175.095C596.73 177.752 597.678 181.168 597.678 185.343C597.678 190.846 595.971 195.59 592.555 199.575C589.139 203.56 584.68 206.786 579.176 209.253C573.863 211.72 567.885 213.523 561.243 214.661C554.602 215.8 548.15 216.369 541.887 216.369ZM547.296 91.9777C543.121 91.9777 539.515 93.2112 536.479 95.6781C533.632 97.9553 531.165 100.897 529.078 104.502C527.18 108.108 525.662 112.093 524.524 116.458C523.575 120.822 522.816 124.997 522.247 128.982C534.012 128.792 543.5 126.8 550.711 123.004C558.112 119.209 561.813 113.801 561.813 106.779C561.813 102.984 560.579 99.5683 558.112 96.5321C555.835 93.4958 552.23 91.9777 547.296 91.9777Z" fill="#DEDEDE"/>
<path d="M797.237 188.474C797.237 184.299 797.522 178.89 798.091 172.249C798.85 165.417 799.515 158.301 800.084 150.9C800.843 143.309 801.507 136.003 802.076 128.982C802.835 121.961 803.215 116.078 803.215 111.334C803.215 106.4 801.981 102.035 799.514 98.24C797.237 94.2549 792.683 92.2623 785.851 92.2623C779.21 92.2623 773.706 93.8754 769.342 97.1014C764.977 100.327 761.277 106.21 758.24 114.75C755.394 123.289 753.022 135.055 751.124 150.046C749.227 165.038 747.424 184.299 745.716 207.83C745.526 210.107 745.052 211.625 744.293 212.384C743.534 213.143 741.921 213.523 739.454 213.523H729.206C723.323 213.523 718.484 212.953 714.689 211.815C711.084 210.486 708.142 208.684 705.865 206.407C703.778 204.129 702.259 201.378 701.311 198.152C700.552 194.736 700.172 190.846 700.172 186.481C700.172 183.635 700.267 179.65 700.457 174.526C700.836 169.212 701.406 162.001 702.165 152.893C702.924 143.594 703.778 131.923 704.726 117.881C705.865 103.648 707.193 86.095 708.712 65.2207C708.901 61.0459 709.376 58.5789 710.135 57.8198C710.704 57.2505 712.222 56.9659 714.689 56.9659H725.79C731.483 56.9659 736.133 57.6301 739.738 58.9584C743.534 60.2868 746.57 62.0896 748.847 64.3668C751.124 66.4542 752.737 69.016 753.686 72.0523C754.635 74.8988 755.204 77.8401 755.394 80.8764C761.277 70.8188 768.013 63.8924 775.604 60.097C783.195 56.112 792.683 54.1194 804.069 54.1194C812.039 54.1194 818.965 54.9734 824.848 56.6813C830.731 58.3891 835.57 61.3305 839.365 65.5054C843.35 69.4904 846.292 74.8039 848.19 81.4457C850.087 87.8977 851.036 95.9628 851.036 105.641C851.036 108.677 850.846 113.042 850.467 118.735C850.087 124.428 849.613 130.69 849.043 137.522C848.474 144.163 847.81 151.185 847.051 158.586C846.482 165.797 845.912 172.533 845.343 178.796C844.774 185.058 844.299 190.561 843.92 195.305C843.54 200.049 843.35 203.181 843.35 204.699C843.35 208.873 842.876 211.435 841.927 212.384C840.978 213.143 838.891 213.523 835.665 213.523H826.556C820.484 213.523 815.55 212.953 811.754 211.815C807.959 210.676 805.018 209.063 802.93 206.976C800.843 204.888 799.325 202.327 798.376 199.29C797.617 196.064 797.237 192.459 797.237 188.474Z" fill="#DEDEDE"/>
<path d="M904.59 47.8571C900.225 47.8571 896.62 46.2441 893.773 43.0181C890.927 39.6023 889.504 34.8582 889.504 28.7857C889.504 25.1801 890.073 21.6694 891.211 18.2537C892.35 14.6481 894.058 11.517 896.335 8.86025C898.612 6.20353 901.459 4.1161 904.875 2.59797C908.29 0.890078 912.275 0.0361328 916.83 0.0361328C919.866 0.0361328 922.618 0.510548 925.085 1.45938C927.741 2.21844 930.019 3.64169 931.916 5.72912C933.814 7.62678 935.332 10.2835 936.471 13.6993C937.609 17.1151 938.178 21.4797 938.178 26.7931C938.178 34.3838 937.04 41.7846 934.763 48.9957C932.486 56.2068 929.354 62.6589 925.369 68.3518C921.574 74.0448 917.115 78.5992 911.991 82.015C907.057 85.4308 901.933 87.1387 896.62 87.1387C892.255 87.1387 889.314 86.1898 887.796 84.2922C886.467 82.2048 885.803 79.8327 885.803 77.176C885.803 76.4169 886.752 75.0885 888.65 73.1909C890.737 71.2932 892.919 69.1109 895.197 66.644C897.474 63.9872 899.561 61.0459 901.459 57.8198C903.546 54.5938 904.59 51.2729 904.59 47.8571Z" fill="#DEDEDE"/>
<path d="M1108.77 171.964C1116.55 171.964 1123.09 170.825 1128.41 168.548C1133.91 166.271 1138.56 163.709 1142.35 160.863C1146.15 158.016 1149.47 155.454 1152.32 153.177C1155.35 150.9 1158.39 149.761 1161.43 149.761C1165.22 149.761 1167.12 152.608 1167.12 158.301C1167.12 161.337 1166.74 165.038 1165.98 169.402C1165.22 173.577 1164.18 178.321 1162.85 183.635C1162.09 186.861 1160.19 190.371 1157.16 194.167C1154.31 197.962 1150.32 201.568 1145.2 204.983C1140.08 208.209 1133.72 210.961 1126.13 213.238C1118.73 215.326 1110.19 216.369 1100.51 216.369C1090.83 216.369 1081.15 214.946 1071.48 212.099C1061.8 209.253 1053.16 204.414 1045.57 197.582C1037.98 190.751 1031.82 181.547 1027.07 169.971C1022.33 158.396 1019.96 143.879 1019.96 126.42C1019.96 120.158 1020.33 112.947 1021.09 104.787C1022.04 96.4372 1023.75 87.8977 1026.22 79.1685C1028.68 70.4393 1032.1 61.8998 1036.46 53.5501C1041.02 45.0106 1046.81 37.42 1053.83 30.7782C1060.85 24.1364 1069.39 18.823 1079.45 14.8379C1089.69 10.663 1101.84 8.5756 1115.88 8.5756C1127.08 8.5756 1136.76 9.90397 1144.92 12.5607C1153.27 15.2174 1160.1 18.9178 1165.41 23.662C1170.91 28.2164 1174.9 33.6247 1177.37 39.887C1180.02 46.1493 1181.35 52.791 1181.35 59.8124C1181.35 71.9574 1177.75 80.8764 1170.53 86.5694C1163.51 92.0726 1153.46 94.8242 1140.36 94.8242C1136.19 94.8242 1133.53 94.5396 1132.39 93.9703C1131.44 93.2112 1130.97 91.7879 1130.97 89.7005C1130.78 83.2485 1130.59 77.6504 1130.4 72.9062C1130.21 68.1621 1129.54 64.2719 1128.41 61.2356C1127.27 58.0096 1125.46 55.7324 1123 54.4041C1120.72 52.8859 1117.49 52.1269 1113.32 52.1269C1107.25 52.1269 1102.03 53.4552 1097.66 56.112C1093.49 58.5789 1089.88 61.8998 1086.85 66.0747C1084 70.0598 1081.63 74.6141 1079.73 79.7378C1078.02 84.8615 1076.6 90.08 1075.46 95.3935C1074.51 100.707 1073.85 105.831 1073.47 110.765C1073.28 115.698 1073.18 119.968 1073.18 123.574C1073.18 141.032 1076.03 153.462 1081.72 160.863C1087.61 168.264 1096.62 171.964 1108.77 171.964Z" fill="#DEDEDE"/>
<path d="M1263.71 216.369C1250.62 216.369 1239.71 214.566 1230.98 210.961C1222.44 207.166 1215.61 202.042 1210.49 195.59C1205.36 189.138 1201.76 181.642 1199.67 173.103C1197.58 164.373 1196.54 155.075 1196.54 145.207C1196.54 133.821 1197.87 122.72 1200.52 111.903C1203.37 100.897 1208.11 91.1238 1214.75 82.5843C1221.4 74.0448 1230.13 67.2133 1240.94 62.0896C1251.95 56.7761 1265.61 54.1194 1281.93 54.1194C1305.84 54.1194 1322.92 60.0022 1333.17 71.7676C1343.61 83.3434 1348.82 99.6632 1348.82 120.727C1348.82 126.61 1348.35 133.157 1347.4 140.368C1346.64 147.389 1345.03 154.411 1342.56 161.432C1340.29 168.453 1337.06 175.285 1332.88 181.927C1328.9 188.569 1323.78 194.451 1317.51 199.575C1311.25 204.699 1303.66 208.779 1294.74 211.815C1286.01 214.851 1275.67 216.369 1263.71 216.369ZM1277.09 91.9777C1269.88 91.9777 1264.09 93.8754 1259.73 97.6707C1255.55 101.276 1252.33 105.736 1250.05 111.049C1247.96 116.173 1246.54 121.676 1245.78 127.559C1245.21 133.252 1244.93 138.091 1244.93 142.076C1244.93 154.6 1246.92 163.804 1250.91 169.687C1254.89 175.57 1260.58 178.511 1267.98 178.511C1274.63 178.511 1280.03 176.424 1284.21 172.249C1288.57 168.074 1291.89 163.045 1294.17 157.162C1296.64 151.28 1298.25 145.112 1299.01 138.66C1299.96 132.208 1300.43 126.8 1300.43 122.435C1300.43 112.947 1298.63 105.546 1295.03 100.233C1291.61 94.7293 1285.63 91.9777 1277.09 91.9777Z" fill="#DEDEDE"/>
<path d="M1439.53 216.369C1426.44 216.369 1415.52 214.566 1406.8 210.961C1398.26 207.166 1391.42 202.042 1386.3 195.59C1381.18 189.138 1377.57 181.642 1375.48 173.103C1373.4 164.373 1372.35 155.075 1372.35 145.207C1372.35 133.821 1373.68 122.72 1376.34 111.903C1379.18 100.897 1383.93 91.1238 1390.57 82.5843C1397.21 74.0448 1405.94 67.2133 1416.76 62.0896C1427.76 56.7761 1441.43 54.1194 1457.75 54.1194C1481.66 54.1194 1498.74 60.0022 1508.98 71.7676C1519.42 83.3434 1524.64 99.6632 1524.64 120.727C1524.64 126.61 1524.17 133.157 1523.22 140.368C1522.46 147.389 1520.84 154.411 1518.38 161.432C1516.1 168.453 1512.87 175.285 1508.7 181.927C1504.71 188.569 1499.59 194.451 1493.33 199.575C1487.07 204.699 1479.48 208.779 1470.56 211.815C1461.83 214.851 1451.48 216.369 1439.53 216.369ZM1452.91 91.9777C1445.7 91.9777 1439.91 93.8754 1435.54 97.6707C1431.37 101.276 1428.14 105.736 1425.87 111.049C1423.78 116.173 1422.36 121.676 1421.6 127.559C1421.03 133.252 1420.74 138.091 1420.74 142.076C1420.74 154.6 1422.74 163.804 1426.72 169.687C1430.71 175.57 1436.4 178.511 1443.8 178.511C1450.44 178.511 1455.85 176.424 1460.02 172.249C1464.39 168.074 1467.71 163.045 1469.99 157.162C1472.45 151.28 1474.07 145.112 1474.83 138.66C1475.77 132.208 1476.25 126.8 1476.25 122.435C1476.25 112.947 1474.45 105.546 1470.84 100.233C1467.43 94.7293 1461.45 91.9777 1452.91 91.9777Z" fill="#DEDEDE"/>
<path d="M1584.6 216.085C1572.84 216.085 1564.39 212.953 1559.27 206.691C1554.15 200.429 1551.58 190.087 1551.58 175.664C1551.58 173.387 1551.68 170.541 1551.87 167.125C1552.25 163.709 1552.63 159.345 1553.01 154.031C1553.58 148.528 1554.24 141.791 1555 133.821C1555.76 125.851 1556.52 116.173 1557.28 104.787C1558.23 93.4009 1559.17 80.0225 1560.12 64.6514C1561.26 49.2804 1562.4 31.4424 1563.54 11.1374C1563.73 6.96259 1564.2 4.49564 1564.96 3.73657C1565.53 3.16728 1567.05 2.88264 1569.52 2.88264H1580.62C1586.31 2.88264 1591.05 3.54681 1594.85 4.87517C1598.65 6.20354 1601.68 8.00631 1603.96 10.2835C1606.24 12.5607 1607.85 15.2174 1608.8 18.2537C1609.75 21.1002 1610.22 24.1364 1610.22 27.3624C1610.22 31.1577 1609.94 36.661 1609.37 43.8721C1608.99 50.8934 1608.42 58.8636 1607.66 67.7826C1606.9 76.7016 1606.14 86.0001 1605.38 95.6781C1604.62 105.356 1603.86 114.655 1603.1 123.574C1602.35 132.303 1601.68 140.178 1601.11 147.2C1600.73 154.221 1600.54 159.534 1600.54 163.14C1600.54 168.074 1601.4 171.584 1603.1 173.672C1605 175.759 1606.99 177.277 1609.08 178.226C1611.17 178.985 1613.07 179.555 1614.78 179.934C1616.67 180.124 1617.62 180.693 1617.62 181.642C1617.62 185.817 1617.15 189.992 1616.2 194.167C1615.25 198.152 1613.54 201.852 1611.08 205.268C1608.61 208.494 1605.19 211.151 1600.83 213.238C1596.65 215.136 1591.24 216.085 1584.6 216.085Z" fill="#DEDEDE"/>
</svg>
