<svg width="20" height="30" viewBox="0 0 20 30" fill="none" xmlns="http://www.w3.org/2000/svg">
<path d="M4.80694 4.35421C5.58023 1.70327 8.35612 0.181128 11.0071 0.954415L16.2477 2.48313C18.8987 3.25642 20.4208 6.03231 19.6475 8.68325L17.4932 16.0686C16.1846 20.5547 14.2762 23.8397 11.768 25.9235C9.93526 27.4462 7.4818 28.6121 4.40763 29.4214C2.40311 29.9492 0.465904 28.5405 0.102842 26.4998V26.4998C-0.264979 24.4322 1.13111 22.5181 3.11794 21.8381C4.30956 21.4302 5.27294 20.9558 6.00808 20.4148C6.3751 20.1498 6.71558 19.8583 7.02953 19.5404C8.48112 18.0703 7.33805 15.8297 5.35475 15.2511V15.2511C3.45807 14.6978 2.36902 12.7118 2.92228 10.8151L4.80694 4.35421Z" fill="#FFAC2F"/>
</svg>
