<svg width="1465" height="214" viewBox="0 0 1465 214" fill="none" xmlns="http://www.w3.org/2000/svg">
<mask id="path-1-outside-1_25_341" maskUnits="userSpaceOnUse" x="0.258362" y="0.34967" width="1465" height="214" fill="black">
<rect fill="white" x="0.258362" y="0.34967" width="1465" height="214"/>
<path d="M89.5829 163.914C96.5323 163.914 102.38 162.897 107.126 160.863C112.041 158.829 116.194 156.541 119.584 153.998C122.974 151.456 125.94 149.168 128.482 147.134C131.194 145.1 133.906 144.083 136.618 144.083C140.008 144.083 141.703 146.625 141.703 151.71C141.703 154.422 141.364 157.727 140.686 161.626C140.008 165.355 139.076 169.592 137.89 174.338C137.212 177.219 135.517 180.355 132.805 183.745C130.262 187.135 126.703 190.355 122.126 193.406C117.55 196.288 111.872 198.745 105.092 200.779C98.4815 202.644 90.8541 203.576 82.2098 203.576C73.5655 203.576 64.9211 202.305 56.2768 199.762C47.6324 197.22 39.9203 192.898 33.1404 186.796C26.3606 180.694 20.8519 172.473 16.6145 162.134C12.3771 151.795 10.2584 138.828 10.2584 123.235C10.2584 117.641 10.5974 111.2 11.2753 103.912C12.1228 96.4541 13.6483 88.8267 15.8518 81.0299C18.0552 73.233 21.1062 65.6057 25.0046 58.1478C29.0725 50.5204 34.2422 43.7406 40.5136 37.8082C46.7849 31.8758 54.4123 27.1299 63.3956 23.5704C72.5485 19.8415 83.3963 17.977 95.939 17.977C105.939 17.977 114.584 19.1635 121.872 21.5365C129.33 23.9094 135.432 27.2146 140.178 31.452C145.093 35.52 148.653 40.3506 150.856 45.944C153.229 51.5374 154.415 57.4698 154.415 63.7412C154.415 74.589 151.195 82.5553 144.754 87.6402C138.483 92.5556 129.499 95.0134 117.804 95.0134C114.075 95.0134 111.702 94.7591 110.685 94.2506C109.838 93.5726 109.414 92.3014 109.414 90.4369C109.245 84.674 109.075 79.6739 108.906 75.4365C108.736 71.199 108.143 67.7244 107.126 65.0124C106.109 62.131 104.499 60.097 102.295 58.9105C100.261 57.5546 97.3798 56.8766 93.6508 56.8766C88.2269 56.8766 83.5658 58.063 79.6673 60.436C75.9384 62.6395 72.718 65.6057 70.006 69.3346C67.4636 72.894 65.3448 76.9619 63.6499 81.5384C62.1244 86.1148 60.8532 90.7759 59.8362 95.5218C58.9887 100.268 58.3955 104.844 58.0565 109.251C57.887 113.658 57.8022 117.472 57.8022 120.692C57.8022 136.286 60.3447 147.388 65.4296 153.998C70.684 160.609 78.7351 163.914 89.5829 163.914Z"/>
<path d="M221.33 82.8096C221.33 86.369 220.991 91.3692 220.313 97.8101C219.804 104.251 219.211 110.946 218.533 117.895C218.024 124.845 217.431 131.37 216.753 137.472C216.245 143.574 215.99 147.981 215.99 150.693C215.99 156.625 217.431 161.287 220.313 164.677C223.364 167.897 227.516 169.507 232.771 169.507C237.347 169.507 241.161 167.728 244.212 164.168C247.432 160.439 249.975 155.693 251.839 149.93C253.873 143.998 255.483 137.303 256.67 129.845C257.856 122.387 258.704 114.844 259.212 107.217C259.89 99.5898 260.399 92.2167 260.738 85.0978C261.246 77.8094 261.755 71.538 262.263 66.2836C262.433 64.9277 262.941 63.7412 263.789 62.7242C264.636 61.7072 265.992 61.1987 267.857 61.1987H277.009C282.264 61.1987 286.501 61.792 289.722 62.9785C293.112 63.9954 295.739 65.5209 297.603 67.5549C299.637 69.5888 300.993 72.1313 301.671 75.1822C302.519 78.0637 302.942 81.4536 302.942 85.352C302.942 87.8945 302.773 91.5387 302.434 96.2846C302.264 100.861 301.841 107.302 301.163 115.607C300.485 123.743 299.637 134.167 298.62 146.879C297.773 159.422 296.671 175.016 295.315 193.661C294.976 197.22 294.552 199.339 294.044 200.017C293.705 200.695 292.349 201.034 289.976 201.034H280.06C274.975 201.034 270.738 200.44 267.348 199.254C264.128 198.067 261.5 196.542 259.466 194.678C257.432 192.813 255.992 190.61 255.144 188.067C254.297 185.525 253.788 182.897 253.619 180.186C251.076 184.592 248.195 188.321 244.974 191.372C241.923 194.423 238.703 196.881 235.313 198.745C231.923 200.44 228.449 201.627 224.889 202.305C221.33 203.152 217.855 203.576 214.465 203.576C208.024 203.576 202.261 202.559 197.176 200.525C192.091 198.322 187.769 195.44 184.21 191.881C180.82 188.321 178.193 184.084 176.328 179.169C174.464 174.253 173.532 168.999 173.532 163.405C173.532 161.202 173.616 157.642 173.786 152.727C174.125 147.642 174.464 141.964 174.803 135.693C175.311 129.421 175.82 122.811 176.328 115.861C176.837 108.743 177.26 102.047 177.599 95.7761C178.108 89.5047 178.532 83.9961 178.871 79.2502C179.379 74.5042 179.718 71.1143 179.888 69.0803C180.227 66.0294 180.905 63.9954 181.922 62.9785C182.939 61.792 184.634 61.1987 187.007 61.1987H195.142C200.397 61.1987 204.719 61.7072 208.109 62.7242C211.499 63.7412 214.126 65.1819 215.99 67.0464C218.024 68.9108 219.38 71.1991 220.058 73.911C220.906 76.4535 221.33 79.4196 221.33 82.8096Z"/>
<path d="M384.964 95.5218C384.456 101.963 383.863 108.319 383.185 114.59C382.676 120.862 382.168 126.794 381.659 132.387C381.151 137.981 380.727 142.981 380.388 147.388C380.218 151.795 380.134 155.185 380.134 157.558C380.134 161.965 380.642 164.931 381.659 166.456C382.676 167.812 384.371 168.49 386.744 168.49C388.609 168.49 390.219 168.151 391.575 167.473C392.931 166.795 394.202 166.033 395.388 165.185C396.575 164.338 397.592 163.575 398.439 162.897C399.456 162.219 400.558 161.88 401.745 161.88C402.931 161.88 404.033 162.558 405.05 163.914C406.067 165.27 406.575 168.406 406.575 173.321C406.575 182.643 404.033 190.016 398.948 195.44C393.863 200.864 385.134 203.576 372.761 203.576C360.557 203.576 351.489 200.779 345.556 195.186C339.793 189.423 336.912 180.694 336.912 168.999C336.912 166.456 336.997 163.49 337.166 160.1C337.505 156.541 337.929 151.964 338.437 146.371C338.946 140.778 339.539 133.913 340.217 125.777C341.065 117.641 341.912 107.556 342.76 95.5218H329.285C327.929 95.5218 327.081 95.2676 326.742 94.7591C326.573 94.0811 326.488 93.1489 326.488 91.9624L327.251 78.9959C327.42 76.7924 327.674 74.6737 328.013 72.6398C328.522 70.4363 329.369 68.4871 330.556 66.7921C331.912 65.0972 333.776 63.7412 336.149 62.7242C338.522 61.7072 341.658 61.1987 345.556 61.1987C346.743 58.1478 348.099 54.5036 349.624 50.2662C351.15 46.0288 352.675 41.9608 354.201 38.0624C355.726 33.9945 357.167 30.6045 358.523 27.8926C360.048 25.1806 361.404 23.8247 362.591 23.8247H369.964C377.083 23.8247 381.998 26.0281 384.71 30.4351C387.422 34.842 388.778 40.0964 388.778 46.1983C388.778 49.5882 388.524 54.5884 388.015 61.1987H414.711C417.423 61.1987 418.779 62.3852 418.779 64.7582L417.762 78.4874C417.423 83.5723 415.982 87.725 413.44 90.9454C411.067 93.9964 406.067 95.5218 398.439 95.5218H384.964Z"/>
<path d="M493.928 203.576C486.47 203.576 479.013 202.644 471.555 200.779C464.266 198.915 457.656 195.695 451.724 191.118C445.961 186.542 441.215 180.44 437.486 172.812C433.757 165.185 431.892 155.608 431.892 144.083C431.892 139.845 432.231 134.76 432.909 128.828C433.587 122.896 434.859 116.794 436.723 110.522C438.757 104.251 441.469 98.0643 444.859 91.9624C448.418 85.691 452.995 80.0976 458.588 75.1822C464.182 70.2668 470.961 66.2836 478.928 63.2327C486.894 60.1818 496.386 58.6563 507.403 58.6563C516.217 58.6563 523.675 59.6733 529.777 61.7072C535.879 63.7412 540.794 66.5379 544.523 70.0973C548.252 73.4873 550.964 77.4704 552.659 82.0468C554.354 86.6233 555.201 91.5387 555.201 96.7931C555.201 104.59 553.591 111.2 550.371 116.624C547.32 122.048 543.252 126.625 538.167 130.353C533.252 133.913 527.743 136.71 521.641 138.744C515.539 140.778 509.522 142.388 503.59 143.574C497.657 144.591 492.149 145.269 487.064 145.608C482.148 145.778 478.335 145.862 475.623 145.862C475.623 149.083 476.046 152.303 476.894 155.524C477.911 158.575 479.352 161.287 481.216 163.66C483.08 166.033 485.538 167.982 488.589 169.507C491.64 171.033 495.369 171.795 499.776 171.795C504.183 171.795 507.573 171.117 509.946 169.761C512.488 168.236 514.522 166.626 516.048 164.931C517.573 163.066 518.844 161.456 519.861 160.1C521.048 158.575 522.573 157.812 524.438 157.812C525.285 157.812 526.726 158.066 528.76 158.575C530.963 158.914 533.167 159.761 535.37 161.117C537.574 162.473 539.523 164.338 541.218 166.711C542.913 169.083 543.76 172.134 543.76 175.863C543.76 180.779 542.235 185.016 539.184 188.576C536.133 192.135 532.15 195.017 527.234 197.22C522.489 199.423 517.149 201.034 511.217 202.051C505.285 203.068 499.522 203.576 493.928 203.576ZM498.759 92.4709C495.03 92.4709 491.81 93.5726 489.098 95.7761C486.555 97.8101 484.352 100.437 482.487 103.658C480.792 106.878 479.436 110.438 478.419 114.336C477.572 118.234 476.894 121.963 476.385 125.523C486.894 125.353 495.369 123.574 501.81 120.184C508.42 116.794 511.725 111.963 511.725 105.692C511.725 102.302 510.624 99.2508 508.42 96.5388C506.386 93.8269 503.166 92.4709 498.759 92.4709Z"/>
<path d="M722.004 178.66C722.004 174.931 722.258 170.1 722.767 164.168C723.445 158.066 724.038 151.71 724.547 145.1C725.225 138.32 725.818 131.794 726.326 125.523C727.004 119.251 727.343 113.997 727.343 109.76C727.343 105.353 726.242 101.454 724.038 98.0643C722.004 94.5049 717.936 92.7251 711.834 92.7251C705.902 92.7251 700.987 94.1659 697.088 97.0473C693.19 99.9288 689.885 105.183 687.173 112.811C684.63 120.438 682.511 130.947 680.816 144.337C679.122 157.727 677.511 174.931 675.986 195.949C675.816 197.983 675.393 199.339 674.715 200.017C674.037 200.695 672.596 201.034 670.392 201.034H661.24C655.985 201.034 651.663 200.525 648.273 199.508C645.053 198.322 642.425 196.711 640.391 194.678C638.527 192.644 637.171 190.186 636.324 187.304C635.646 184.253 635.307 180.779 635.307 176.88C635.307 174.338 635.391 170.778 635.561 166.202C635.9 161.456 636.408 155.015 637.086 146.879C637.764 138.574 638.527 128.15 639.374 115.607C640.391 102.895 641.578 87.2165 642.934 68.5718C643.103 64.8429 643.527 62.6395 644.205 61.9615C644.714 61.453 646.07 61.1987 648.273 61.1987H658.189C663.274 61.1987 667.426 61.792 670.647 62.9785C674.037 64.1649 676.749 65.7752 678.783 67.8091C680.816 69.6736 682.257 71.9618 683.105 74.6737C683.952 77.2162 684.461 79.8434 684.63 82.5553C689.885 73.572 695.902 67.3854 702.682 63.9954C709.461 60.436 717.936 58.6563 728.106 58.6563C735.225 58.6563 741.412 59.419 746.666 60.9445C751.92 62.47 756.243 65.0972 759.633 68.8261C763.192 72.3855 765.819 77.1314 767.514 83.0638C769.209 88.8267 770.057 96.0303 770.057 104.675C770.057 107.387 769.887 111.285 769.548 116.37C769.209 121.455 768.785 127.048 768.277 133.15C767.768 139.083 767.175 145.354 766.497 151.964C765.989 158.405 765.48 164.422 764.972 170.016C764.463 175.609 764.039 180.525 763.7 184.762C763.361 188.999 763.192 191.796 763.192 193.152C763.192 196.881 762.768 199.169 761.921 200.017C761.073 200.695 759.209 201.034 756.327 201.034H748.191C742.768 201.034 738.361 200.525 734.971 199.508C731.581 198.491 728.954 197.05 727.089 195.186C725.225 193.322 723.869 191.033 723.021 188.321C722.343 185.44 722.004 182.219 722.004 178.66Z"/>
<path d="M817.89 53.0629C813.992 53.0629 810.772 51.6222 808.229 48.7407C805.687 45.6898 804.415 41.4523 804.415 36.0284C804.415 32.808 804.924 29.6723 805.941 26.6214C806.958 23.4009 808.483 20.6042 810.517 18.2313C812.551 15.8583 815.094 13.9939 818.145 12.6379C821.196 11.1124 824.755 10.3497 828.823 10.3497C831.535 10.3497 833.993 10.7734 836.196 11.6209C838.569 12.2989 840.603 13.5701 842.298 15.4346C843.993 17.1296 845.349 19.5025 846.366 22.5535C847.383 25.6044 847.891 29.5028 847.891 34.2487C847.891 41.0286 846.874 47.639 844.84 54.0799C842.807 60.5208 840.01 66.2836 836.45 71.3685C833.06 76.4535 829.077 80.5214 824.501 83.5723C820.094 86.6233 815.518 88.1487 810.772 88.1487C806.873 88.1487 804.246 87.3013 802.89 85.6063C801.703 83.7418 801.11 81.6231 801.11 79.2502C801.11 78.5722 801.958 77.3857 803.653 75.6907C805.517 73.9957 807.466 72.0465 809.5 69.8431C811.534 67.4701 813.399 64.8429 815.094 61.9615C816.958 59.08 817.89 56.1138 817.89 53.0629Z"/>
<path d="M1000.26 163.914C1007.21 163.914 1013.05 162.897 1017.8 160.863C1022.72 158.829 1026.87 156.541 1030.26 153.998C1033.65 151.456 1036.61 149.168 1039.16 147.134C1041.87 145.1 1044.58 144.083 1047.29 144.083C1050.68 144.083 1052.38 146.625 1052.38 151.71C1052.38 154.422 1052.04 157.727 1051.36 161.626C1050.68 165.355 1049.75 169.592 1048.56 174.338C1047.89 177.219 1046.19 180.355 1043.48 183.745C1040.94 187.135 1037.38 190.355 1032.8 193.406C1028.22 196.288 1022.55 198.745 1015.77 200.779C1009.16 202.644 1001.53 203.576 992.885 203.576C984.24 203.576 975.596 202.305 966.952 199.762C958.307 197.22 950.595 192.898 943.815 186.796C937.036 180.694 931.527 172.473 927.289 162.134C923.052 151.795 920.933 138.828 920.933 123.235C920.933 117.641 921.272 111.2 921.95 103.912C922.798 96.4541 924.323 88.8267 926.527 81.0299C928.73 73.233 931.781 65.6057 935.68 58.1478C939.747 50.5204 944.917 43.7406 951.188 37.8082C957.46 31.8758 965.087 27.1299 974.07 23.5704C983.223 19.8415 994.071 17.977 1006.61 17.977C1016.61 17.977 1025.26 19.1635 1032.55 21.5365C1040 23.9094 1046.11 27.2146 1050.85 31.452C1055.77 35.52 1059.33 40.3506 1061.53 45.944C1063.9 51.5374 1065.09 57.4698 1065.09 63.7412C1065.09 74.589 1061.87 82.5553 1055.43 87.6402C1049.16 92.5556 1040.17 95.0134 1028.48 95.0134C1024.75 95.0134 1022.38 94.7591 1021.36 94.2506C1020.51 93.5726 1020.09 92.3014 1020.09 90.4369C1019.92 84.674 1019.75 79.6739 1019.58 75.4365C1019.41 71.199 1018.82 67.7244 1017.8 65.0124C1016.78 62.131 1015.17 60.097 1012.97 58.9105C1010.94 57.5546 1008.05 56.8766 1004.33 56.8766C998.902 56.8766 994.241 58.063 990.342 60.436C986.613 62.6395 983.393 65.6057 980.681 69.3346C978.138 72.894 976.02 76.9619 974.325 81.5384C972.799 86.1148 971.528 90.7759 970.511 95.5218C969.664 100.268 969.07 104.844 968.731 109.251C968.562 113.658 968.477 117.472 968.477 120.692C968.477 136.286 971.02 147.388 976.105 153.998C981.359 160.609 989.41 163.914 1000.26 163.914Z"/>
<path d="M1138.66 203.576C1126.96 203.576 1117.22 201.966 1109.42 198.745C1101.79 195.355 1095.69 190.779 1091.11 185.016C1086.54 179.253 1083.32 172.558 1081.45 164.931C1079.59 157.134 1078.65 148.829 1078.65 140.015C1078.65 129.845 1079.84 119.929 1082.21 110.268C1084.76 100.437 1088.99 91.7082 1094.93 84.0808C1100.86 76.4535 1108.66 70.3516 1118.32 65.7752C1128.15 61.0292 1140.35 58.6563 1154.93 58.6563C1176.28 58.6563 1191.54 63.9107 1200.69 74.4195C1210.01 84.7588 1214.68 99.3355 1214.68 118.15C1214.68 123.404 1214.25 129.252 1213.4 135.693C1212.73 141.964 1211.29 148.235 1209.08 154.507C1207.05 160.778 1204.17 166.88 1200.44 172.812C1196.88 178.745 1192.3 183.999 1186.71 188.576C1181.12 193.152 1174.34 196.796 1166.37 199.508C1158.57 202.22 1149.34 203.576 1138.66 203.576ZM1150.61 92.4709C1144.17 92.4709 1139 94.1659 1135.1 97.5558C1131.37 100.776 1128.49 104.759 1126.45 109.505C1124.59 114.082 1123.32 118.997 1122.64 124.252C1122.13 129.336 1121.88 133.659 1121.88 137.218C1121.88 148.405 1123.66 156.625 1127.22 161.88C1130.78 167.134 1135.86 169.761 1142.47 169.761C1148.4 169.761 1153.23 167.897 1156.96 164.168C1160.86 160.439 1163.83 155.947 1165.86 150.693C1168.06 145.439 1169.51 139.93 1170.18 134.167C1171.03 128.404 1171.45 123.574 1171.45 119.675C1171.45 111.2 1169.84 104.59 1166.62 99.844C1163.57 94.9286 1158.23 92.4709 1150.61 92.4709Z"/>
<path d="M1295.69 203.576C1284 203.576 1274.25 201.966 1266.45 198.745C1258.83 195.355 1252.73 190.779 1248.15 185.016C1243.57 179.253 1240.35 172.558 1238.49 164.931C1236.62 157.134 1235.69 148.829 1235.69 140.015C1235.69 129.845 1236.88 119.929 1239.25 110.268C1241.79 100.437 1246.03 91.7082 1251.96 84.0808C1257.89 76.4535 1265.69 70.3516 1275.35 65.7752C1285.18 61.0292 1297.39 58.6563 1311.96 58.6563C1333.32 58.6563 1348.58 63.9107 1357.73 74.4195C1367.05 84.7588 1371.71 99.3355 1371.71 118.15C1371.71 123.404 1371.29 129.252 1370.44 135.693C1369.76 141.964 1368.32 148.235 1366.12 154.507C1364.08 160.778 1361.2 166.88 1357.47 172.812C1353.91 178.745 1349.34 183.999 1343.75 188.576C1338.15 193.152 1331.37 196.796 1323.41 199.508C1315.61 202.22 1306.37 203.576 1295.69 203.576ZM1307.64 92.4709C1301.2 92.4709 1296.03 94.1659 1292.13 97.5558C1288.4 100.776 1285.52 104.759 1283.49 109.505C1281.62 114.082 1280.35 118.997 1279.68 124.252C1279.17 129.336 1278.91 133.659 1278.91 137.218C1278.91 148.405 1280.69 156.625 1284.25 161.88C1287.81 167.134 1292.9 169.761 1299.51 169.761C1305.44 169.761 1310.27 167.897 1314 164.168C1317.9 160.439 1320.86 155.947 1322.9 150.693C1325.1 145.439 1326.54 139.93 1327.22 134.167C1328.07 128.404 1328.49 123.574 1328.49 119.675C1328.49 111.2 1326.88 104.59 1323.66 99.844C1320.61 94.9286 1315.27 92.4709 1307.64 92.4709Z"/>
<path d="M1425.27 203.322C1414.76 203.322 1407.22 200.525 1402.64 194.932C1398.07 189.338 1395.78 180.101 1395.78 167.219C1395.78 165.185 1395.86 162.643 1396.03 159.592C1396.37 156.541 1396.71 152.642 1397.05 147.896C1397.56 142.981 1398.15 136.964 1398.83 129.845C1399.51 122.726 1400.18 114.082 1400.86 103.912C1401.71 93.7421 1402.56 81.7926 1403.41 68.0634C1404.42 54.3341 1405.44 38.4014 1406.46 20.2652C1406.63 16.5363 1407.05 14.3329 1407.73 13.6549C1408.24 13.1464 1409.59 12.8921 1411.8 12.8921H1421.71C1426.8 12.8921 1431.03 13.4854 1434.42 14.6718C1437.81 15.8583 1440.53 17.4685 1442.56 19.5025C1444.59 21.5365 1446.03 23.9094 1446.88 26.6214C1447.73 29.1638 1448.15 31.8758 1448.15 34.7572C1448.15 38.1472 1447.9 43.0626 1447.39 49.5035C1447.05 55.7748 1446.54 62.8937 1445.86 70.8601C1445.19 78.8264 1444.51 87.1318 1443.83 95.7761C1443.15 104.42 1442.47 112.726 1441.8 120.692C1441.12 128.489 1440.53 135.523 1440.02 141.794C1439.68 148.066 1439.51 152.812 1439.51 156.032C1439.51 160.439 1440.27 163.575 1441.8 165.439C1443.49 167.304 1445.27 168.66 1447.14 169.507C1449 170.185 1450.69 170.694 1452.22 171.033C1453.92 171.202 1454.76 171.711 1454.76 172.558C1454.76 176.287 1454.34 180.016 1453.49 183.745C1452.64 187.304 1451.12 190.61 1448.92 193.661C1446.71 196.542 1443.66 198.915 1439.76 200.779C1436.03 202.474 1431.2 203.322 1425.27 203.322Z"/>
</mask>
<path d="M89.5829 163.914C96.5323 163.914 102.38 162.897 107.126 160.863C112.041 158.829 116.194 156.541 119.584 153.998C122.974 151.456 125.94 149.168 128.482 147.134C131.194 145.1 133.906 144.083 136.618 144.083C140.008 144.083 141.703 146.625 141.703 151.71C141.703 154.422 141.364 157.727 140.686 161.626C140.008 165.355 139.076 169.592 137.89 174.338C137.212 177.219 135.517 180.355 132.805 183.745C130.262 187.135 126.703 190.355 122.126 193.406C117.55 196.288 111.872 198.745 105.092 200.779C98.4815 202.644 90.8541 203.576 82.2098 203.576C73.5655 203.576 64.9211 202.305 56.2768 199.762C47.6324 197.22 39.9203 192.898 33.1404 186.796C26.3606 180.694 20.8519 172.473 16.6145 162.134C12.3771 151.795 10.2584 138.828 10.2584 123.235C10.2584 117.641 10.5974 111.2 11.2753 103.912C12.1228 96.4541 13.6483 88.8267 15.8518 81.0299C18.0552 73.233 21.1062 65.6057 25.0046 58.1478C29.0725 50.5204 34.2422 43.7406 40.5136 37.8082C46.7849 31.8758 54.4123 27.1299 63.3956 23.5704C72.5485 19.8415 83.3963 17.977 95.939 17.977C105.939 17.977 114.584 19.1635 121.872 21.5365C129.33 23.9094 135.432 27.2146 140.178 31.452C145.093 35.52 148.653 40.3506 150.856 45.944C153.229 51.5374 154.415 57.4698 154.415 63.7412C154.415 74.589 151.195 82.5553 144.754 87.6402C138.483 92.5556 129.499 95.0134 117.804 95.0134C114.075 95.0134 111.702 94.7591 110.685 94.2506C109.838 93.5726 109.414 92.3014 109.414 90.4369C109.245 84.674 109.075 79.6739 108.906 75.4365C108.736 71.199 108.143 67.7244 107.126 65.0124C106.109 62.131 104.499 60.097 102.295 58.9105C100.261 57.5546 97.3798 56.8766 93.6508 56.8766C88.2269 56.8766 83.5658 58.063 79.6673 60.436C75.9384 62.6395 72.718 65.6057 70.006 69.3346C67.4636 72.894 65.3448 76.9619 63.6499 81.5384C62.1244 86.1148 60.8532 90.7759 59.8362 95.5218C58.9887 100.268 58.3955 104.844 58.0565 109.251C57.887 113.658 57.8022 117.472 57.8022 120.692C57.8022 136.286 60.3447 147.388 65.4296 153.998C70.684 160.609 78.7351 163.914 89.5829 163.914Z" fill="#3565AC"/>
<path d="M221.33 82.8096C221.33 86.369 220.991 91.3692 220.313 97.8101C219.804 104.251 219.211 110.946 218.533 117.895C218.024 124.845 217.431 131.37 216.753 137.472C216.245 143.574 215.99 147.981 215.99 150.693C215.99 156.625 217.431 161.287 220.313 164.677C223.364 167.897 227.516 169.507 232.771 169.507C237.347 169.507 241.161 167.728 244.212 164.168C247.432 160.439 249.975 155.693 251.839 149.93C253.873 143.998 255.483 137.303 256.67 129.845C257.856 122.387 258.704 114.844 259.212 107.217C259.89 99.5898 260.399 92.2167 260.738 85.0978C261.246 77.8094 261.755 71.538 262.263 66.2836C262.433 64.9277 262.941 63.7412 263.789 62.7242C264.636 61.7072 265.992 61.1987 267.857 61.1987H277.009C282.264 61.1987 286.501 61.792 289.722 62.9785C293.112 63.9954 295.739 65.5209 297.603 67.5549C299.637 69.5888 300.993 72.1313 301.671 75.1822C302.519 78.0637 302.942 81.4536 302.942 85.352C302.942 87.8945 302.773 91.5387 302.434 96.2846C302.264 100.861 301.841 107.302 301.163 115.607C300.485 123.743 299.637 134.167 298.62 146.879C297.773 159.422 296.671 175.016 295.315 193.661C294.976 197.22 294.552 199.339 294.044 200.017C293.705 200.695 292.349 201.034 289.976 201.034H280.06C274.975 201.034 270.738 200.44 267.348 199.254C264.128 198.067 261.5 196.542 259.466 194.678C257.432 192.813 255.992 190.61 255.144 188.067C254.297 185.525 253.788 182.897 253.619 180.186C251.076 184.592 248.195 188.321 244.974 191.372C241.923 194.423 238.703 196.881 235.313 198.745C231.923 200.44 228.449 201.627 224.889 202.305C221.33 203.152 217.855 203.576 214.465 203.576C208.024 203.576 202.261 202.559 197.176 200.525C192.091 198.322 187.769 195.44 184.21 191.881C180.82 188.321 178.193 184.084 176.328 179.169C174.464 174.253 173.532 168.999 173.532 163.405C173.532 161.202 173.616 157.642 173.786 152.727C174.125 147.642 174.464 141.964 174.803 135.693C175.311 129.421 175.82 122.811 176.328 115.861C176.837 108.743 177.26 102.047 177.599 95.7761C178.108 89.5047 178.532 83.9961 178.871 79.2502C179.379 74.5042 179.718 71.1143 179.888 69.0803C180.227 66.0294 180.905 63.9954 181.922 62.9785C182.939 61.792 184.634 61.1987 187.007 61.1987H195.142C200.397 61.1987 204.719 61.7072 208.109 62.7242C211.499 63.7412 214.126 65.1819 215.99 67.0464C218.024 68.9108 219.38 71.1991 220.058 73.911C220.906 76.4535 221.33 79.4196 221.33 82.8096Z" fill="#B7B7B7"/>
<path d="M384.964 95.5218C384.456 101.963 383.863 108.319 383.185 114.59C382.676 120.862 382.168 126.794 381.659 132.387C381.151 137.981 380.727 142.981 380.388 147.388C380.218 151.795 380.134 155.185 380.134 157.558C380.134 161.965 380.642 164.931 381.659 166.456C382.676 167.812 384.371 168.49 386.744 168.49C388.609 168.49 390.219 168.151 391.575 167.473C392.931 166.795 394.202 166.033 395.388 165.185C396.575 164.338 397.592 163.575 398.439 162.897C399.456 162.219 400.558 161.88 401.745 161.88C402.931 161.88 404.033 162.558 405.05 163.914C406.067 165.27 406.575 168.406 406.575 173.321C406.575 182.643 404.033 190.016 398.948 195.44C393.863 200.864 385.134 203.576 372.761 203.576C360.557 203.576 351.489 200.779 345.556 195.186C339.793 189.423 336.912 180.694 336.912 168.999C336.912 166.456 336.997 163.49 337.166 160.1C337.505 156.541 337.929 151.964 338.437 146.371C338.946 140.778 339.539 133.913 340.217 125.777C341.065 117.641 341.912 107.556 342.76 95.5218H329.285C327.929 95.5218 327.081 95.2676 326.742 94.7591C326.573 94.0811 326.488 93.1489 326.488 91.9624L327.251 78.9959C327.42 76.7924 327.674 74.6737 328.013 72.6398C328.522 70.4363 329.369 68.4871 330.556 66.7921C331.912 65.0972 333.776 63.7412 336.149 62.7242C338.522 61.7072 341.658 61.1987 345.556 61.1987C346.743 58.1478 348.099 54.5036 349.624 50.2662C351.15 46.0288 352.675 41.9608 354.201 38.0624C355.726 33.9945 357.167 30.6045 358.523 27.8926C360.048 25.1806 361.404 23.8247 362.591 23.8247H369.964C377.083 23.8247 381.998 26.0281 384.71 30.4351C387.422 34.842 388.778 40.0964 388.778 46.1983C388.778 49.5882 388.524 54.5884 388.015 61.1987H414.711C417.423 61.1987 418.779 62.3852 418.779 64.7582L417.762 78.4874C417.423 83.5723 415.982 87.725 413.44 90.9454C411.067 93.9964 406.067 95.5218 398.439 95.5218H384.964Z" fill="#B7B7B7"/>
<path d="M493.928 203.576C486.47 203.576 479.013 202.644 471.555 200.779C464.266 198.915 457.656 195.695 451.724 191.118C445.961 186.542 441.215 180.44 437.486 172.812C433.757 165.185 431.892 155.608 431.892 144.083C431.892 139.845 432.231 134.76 432.909 128.828C433.587 122.896 434.859 116.794 436.723 110.522C438.757 104.251 441.469 98.0643 444.859 91.9624C448.418 85.691 452.995 80.0976 458.588 75.1822C464.182 70.2668 470.961 66.2836 478.928 63.2327C486.894 60.1818 496.386 58.6563 507.403 58.6563C516.217 58.6563 523.675 59.6733 529.777 61.7072C535.879 63.7412 540.794 66.5379 544.523 70.0973C548.252 73.4873 550.964 77.4704 552.659 82.0468C554.354 86.6233 555.201 91.5387 555.201 96.7931C555.201 104.59 553.591 111.2 550.371 116.624C547.32 122.048 543.252 126.625 538.167 130.353C533.252 133.913 527.743 136.71 521.641 138.744C515.539 140.778 509.522 142.388 503.59 143.574C497.657 144.591 492.149 145.269 487.064 145.608C482.148 145.778 478.335 145.862 475.623 145.862C475.623 149.083 476.046 152.303 476.894 155.524C477.911 158.575 479.352 161.287 481.216 163.66C483.08 166.033 485.538 167.982 488.589 169.507C491.64 171.033 495.369 171.795 499.776 171.795C504.183 171.795 507.573 171.117 509.946 169.761C512.488 168.236 514.522 166.626 516.048 164.931C517.573 163.066 518.844 161.456 519.861 160.1C521.048 158.575 522.573 157.812 524.438 157.812C525.285 157.812 526.726 158.066 528.76 158.575C530.963 158.914 533.167 159.761 535.37 161.117C537.574 162.473 539.523 164.338 541.218 166.711C542.913 169.083 543.76 172.134 543.76 175.863C543.76 180.779 542.235 185.016 539.184 188.576C536.133 192.135 532.15 195.017 527.234 197.22C522.489 199.423 517.149 201.034 511.217 202.051C505.285 203.068 499.522 203.576 493.928 203.576ZM498.759 92.4709C495.03 92.4709 491.81 93.5726 489.098 95.7761C486.555 97.8101 484.352 100.437 482.487 103.658C480.792 106.878 479.436 110.438 478.419 114.336C477.572 118.234 476.894 121.963 476.385 125.523C486.894 125.353 495.369 123.574 501.81 120.184C508.42 116.794 511.725 111.963 511.725 105.692C511.725 102.302 510.624 99.2508 508.42 96.5388C506.386 93.8269 503.166 92.4709 498.759 92.4709Z" fill="#B7B7B7"/>
<path d="M722.004 178.66C722.004 174.931 722.258 170.1 722.767 164.168C723.445 158.066 724.038 151.71 724.547 145.1C725.225 138.32 725.818 131.794 726.326 125.523C727.004 119.251 727.343 113.997 727.343 109.76C727.343 105.353 726.242 101.454 724.038 98.0643C722.004 94.5049 717.936 92.7251 711.834 92.7251C705.902 92.7251 700.987 94.1659 697.088 97.0473C693.19 99.9288 689.885 105.183 687.173 112.811C684.63 120.438 682.511 130.947 680.816 144.337C679.122 157.727 677.511 174.931 675.986 195.949C675.816 197.983 675.393 199.339 674.715 200.017C674.037 200.695 672.596 201.034 670.392 201.034H661.24C655.985 201.034 651.663 200.525 648.273 199.508C645.053 198.322 642.425 196.711 640.391 194.678C638.527 192.644 637.171 190.186 636.324 187.304C635.646 184.253 635.307 180.779 635.307 176.88C635.307 174.338 635.391 170.778 635.561 166.202C635.9 161.456 636.408 155.015 637.086 146.879C637.764 138.574 638.527 128.15 639.374 115.607C640.391 102.895 641.578 87.2165 642.934 68.5718C643.103 64.8429 643.527 62.6395 644.205 61.9615C644.714 61.453 646.07 61.1987 648.273 61.1987H658.189C663.274 61.1987 667.426 61.792 670.647 62.9785C674.037 64.1649 676.749 65.7752 678.783 67.8091C680.816 69.6736 682.257 71.9618 683.105 74.6737C683.952 77.2162 684.461 79.8434 684.63 82.5553C689.885 73.572 695.902 67.3854 702.682 63.9954C709.461 60.436 717.936 58.6563 728.106 58.6563C735.225 58.6563 741.412 59.419 746.666 60.9445C751.92 62.47 756.243 65.0972 759.633 68.8261C763.192 72.3855 765.819 77.1314 767.514 83.0638C769.209 88.8267 770.057 96.0303 770.057 104.675C770.057 107.387 769.887 111.285 769.548 116.37C769.209 121.455 768.785 127.048 768.277 133.15C767.768 139.083 767.175 145.354 766.497 151.964C765.989 158.405 765.48 164.422 764.972 170.016C764.463 175.609 764.039 180.525 763.7 184.762C763.361 188.999 763.192 191.796 763.192 193.152C763.192 196.881 762.768 199.169 761.921 200.017C761.073 200.695 759.209 201.034 756.327 201.034H748.191C742.768 201.034 738.361 200.525 734.971 199.508C731.581 198.491 728.954 197.05 727.089 195.186C725.225 193.322 723.869 191.033 723.021 188.321C722.343 185.44 722.004 182.219 722.004 178.66Z" fill="#FFAC2F"/>
<path d="M817.89 53.0629C813.992 53.0629 810.772 51.6222 808.229 48.7407C805.687 45.6898 804.415 41.4523 804.415 36.0284C804.415 32.808 804.924 29.6723 805.941 26.6214C806.958 23.4009 808.483 20.6042 810.517 18.2313C812.551 15.8583 815.094 13.9939 818.145 12.6379C821.196 11.1124 824.755 10.3497 828.823 10.3497C831.535 10.3497 833.993 10.7734 836.196 11.6209C838.569 12.2989 840.603 13.5701 842.298 15.4346C843.993 17.1296 845.349 19.5025 846.366 22.5535C847.383 25.6044 847.891 29.5028 847.891 34.2487C847.891 41.0286 846.874 47.639 844.84 54.0799C842.807 60.5208 840.01 66.2836 836.45 71.3685C833.06 76.4535 829.077 80.5214 824.501 83.5723C820.094 86.6233 815.518 88.1487 810.772 88.1487C806.873 88.1487 804.246 87.3013 802.89 85.6063C801.703 83.7418 801.11 81.6231 801.11 79.2502C801.11 78.5722 801.958 77.3857 803.653 75.6907C805.517 73.9957 807.466 72.0465 809.5 69.8431C811.534 67.4701 813.399 64.8429 815.094 61.9615C816.958 59.08 817.89 56.1138 817.89 53.0629Z" fill="#FFAC2F"/>
<path d="M1000.26 163.914C1007.21 163.914 1013.05 162.897 1017.8 160.863C1022.72 158.829 1026.87 156.541 1030.26 153.998C1033.65 151.456 1036.61 149.168 1039.16 147.134C1041.87 145.1 1044.58 144.083 1047.29 144.083C1050.68 144.083 1052.38 146.625 1052.38 151.71C1052.38 154.422 1052.04 157.727 1051.36 161.626C1050.68 165.355 1049.75 169.592 1048.56 174.338C1047.89 177.219 1046.19 180.355 1043.48 183.745C1040.94 187.135 1037.38 190.355 1032.8 193.406C1028.22 196.288 1022.55 198.745 1015.77 200.779C1009.16 202.644 1001.53 203.576 992.885 203.576C984.24 203.576 975.596 202.305 966.952 199.762C958.307 197.22 950.595 192.898 943.815 186.796C937.036 180.694 931.527 172.473 927.289 162.134C923.052 151.795 920.933 138.828 920.933 123.235C920.933 117.641 921.272 111.2 921.95 103.912C922.798 96.4541 924.323 88.8267 926.527 81.0299C928.73 73.233 931.781 65.6057 935.68 58.1478C939.747 50.5204 944.917 43.7406 951.188 37.8082C957.46 31.8758 965.087 27.1299 974.07 23.5704C983.223 19.8415 994.071 17.977 1006.61 17.977C1016.61 17.977 1025.26 19.1635 1032.55 21.5365C1040 23.9094 1046.11 27.2146 1050.85 31.452C1055.77 35.52 1059.33 40.3506 1061.53 45.944C1063.9 51.5374 1065.09 57.4698 1065.09 63.7412C1065.09 74.589 1061.87 82.5553 1055.43 87.6402C1049.16 92.5556 1040.17 95.0134 1028.48 95.0134C1024.75 95.0134 1022.38 94.7591 1021.36 94.2506C1020.51 93.5726 1020.09 92.3014 1020.09 90.4369C1019.92 84.674 1019.75 79.6739 1019.58 75.4365C1019.41 71.199 1018.82 67.7244 1017.8 65.0124C1016.78 62.131 1015.17 60.097 1012.97 58.9105C1010.94 57.5546 1008.05 56.8766 1004.33 56.8766C998.902 56.8766 994.241 58.063 990.342 60.436C986.613 62.6395 983.393 65.6057 980.681 69.3346C978.138 72.894 976.02 76.9619 974.325 81.5384C972.799 86.1148 971.528 90.7759 970.511 95.5218C969.664 100.268 969.07 104.844 968.731 109.251C968.562 113.658 968.477 117.472 968.477 120.692C968.477 136.286 971.02 147.388 976.105 153.998C981.359 160.609 989.41 163.914 1000.26 163.914Z" fill="#B7B7B7"/>
<path d="M1138.66 203.576C1126.96 203.576 1117.22 201.966 1109.42 198.745C1101.79 195.355 1095.69 190.779 1091.11 185.016C1086.54 179.253 1083.32 172.558 1081.45 164.931C1079.59 157.134 1078.65 148.829 1078.65 140.015C1078.65 129.845 1079.84 119.929 1082.21 110.268C1084.76 100.437 1088.99 91.7082 1094.93 84.0808C1100.86 76.4535 1108.66 70.3516 1118.32 65.7752C1128.15 61.0292 1140.35 58.6563 1154.93 58.6563C1176.28 58.6563 1191.54 63.9107 1200.69 74.4195C1210.01 84.7588 1214.68 99.3355 1214.68 118.15C1214.68 123.404 1214.25 129.252 1213.4 135.693C1212.73 141.964 1211.29 148.235 1209.08 154.507C1207.05 160.778 1204.17 166.88 1200.44 172.812C1196.88 178.745 1192.3 183.999 1186.71 188.576C1181.12 193.152 1174.34 196.796 1166.37 199.508C1158.57 202.22 1149.34 203.576 1138.66 203.576ZM1150.61 92.4709C1144.17 92.4709 1139 94.1659 1135.1 97.5558C1131.37 100.776 1128.49 104.759 1126.45 109.505C1124.59 114.082 1123.32 118.997 1122.64 124.252C1122.13 129.336 1121.88 133.659 1121.88 137.218C1121.88 148.405 1123.66 156.625 1127.22 161.88C1130.78 167.134 1135.86 169.761 1142.47 169.761C1148.4 169.761 1153.23 167.897 1156.96 164.168C1160.86 160.439 1163.83 155.947 1165.86 150.693C1168.06 145.439 1169.51 139.93 1170.18 134.167C1171.03 128.404 1171.45 123.574 1171.45 119.675C1171.45 111.2 1169.84 104.59 1166.62 99.844C1163.57 94.9286 1158.23 92.4709 1150.61 92.4709Z" fill="#B7B7B7"/>
<path d="M1295.69 203.576C1284 203.576 1274.25 201.966 1266.45 198.745C1258.83 195.355 1252.73 190.779 1248.15 185.016C1243.57 179.253 1240.35 172.558 1238.49 164.931C1236.62 157.134 1235.69 148.829 1235.69 140.015C1235.69 129.845 1236.88 119.929 1239.25 110.268C1241.79 100.437 1246.03 91.7082 1251.96 84.0808C1257.89 76.4535 1265.69 70.3516 1275.35 65.7752C1285.18 61.0292 1297.39 58.6563 1311.96 58.6563C1333.32 58.6563 1348.58 63.9107 1357.73 74.4195C1367.05 84.7588 1371.71 99.3355 1371.71 118.15C1371.71 123.404 1371.29 129.252 1370.44 135.693C1369.76 141.964 1368.32 148.235 1366.12 154.507C1364.08 160.778 1361.2 166.88 1357.47 172.812C1353.91 178.745 1349.34 183.999 1343.75 188.576C1338.15 193.152 1331.37 196.796 1323.41 199.508C1315.61 202.22 1306.37 203.576 1295.69 203.576ZM1307.64 92.4709C1301.2 92.4709 1296.03 94.1659 1292.13 97.5558C1288.4 100.776 1285.52 104.759 1283.49 109.505C1281.62 114.082 1280.35 118.997 1279.68 124.252C1279.17 129.336 1278.91 133.659 1278.91 137.218C1278.91 148.405 1280.69 156.625 1284.25 161.88C1287.81 167.134 1292.9 169.761 1299.51 169.761C1305.44 169.761 1310.27 167.897 1314 164.168C1317.9 160.439 1320.86 155.947 1322.9 150.693C1325.1 145.439 1326.54 139.93 1327.22 134.167C1328.07 128.404 1328.49 123.574 1328.49 119.675C1328.49 111.2 1326.88 104.59 1323.66 99.844C1320.61 94.9286 1315.27 92.4709 1307.64 92.4709Z" fill="#B7B7B7"/>
<path d="M1425.27 203.322C1414.76 203.322 1407.22 200.525 1402.64 194.932C1398.07 189.338 1395.78 180.101 1395.78 167.219C1395.78 165.185 1395.86 162.643 1396.03 159.592C1396.37 156.541 1396.71 152.642 1397.05 147.896C1397.56 142.981 1398.15 136.964 1398.83 129.845C1399.51 122.726 1400.18 114.082 1400.86 103.912C1401.71 93.7421 1402.56 81.7926 1403.41 68.0634C1404.42 54.3341 1405.44 38.4014 1406.46 20.2652C1406.63 16.5363 1407.05 14.3329 1407.73 13.6549C1408.24 13.1464 1409.59 12.8921 1411.8 12.8921H1421.71C1426.8 12.8921 1431.03 13.4854 1434.42 14.6718C1437.81 15.8583 1440.53 17.4685 1442.56 19.5025C1444.59 21.5365 1446.03 23.9094 1446.88 26.6214C1447.73 29.1638 1448.15 31.8758 1448.15 34.7572C1448.15 38.1472 1447.9 43.0626 1447.39 49.5035C1447.05 55.7748 1446.54 62.8937 1445.86 70.8601C1445.19 78.8264 1444.51 87.1318 1443.83 95.7761C1443.15 104.42 1442.47 112.726 1441.8 120.692C1441.12 128.489 1440.53 135.523 1440.02 141.794C1439.68 148.066 1439.51 152.812 1439.51 156.032C1439.51 160.439 1440.27 163.575 1441.8 165.439C1443.49 167.304 1445.27 168.66 1447.14 169.507C1449 170.185 1450.69 170.694 1452.22 171.033C1453.92 171.202 1454.76 171.711 1454.76 172.558C1454.76 176.287 1454.34 180.016 1453.49 183.745C1452.64 187.304 1451.12 190.61 1448.92 193.661C1446.71 196.542 1443.66 198.915 1439.76 200.779C1436.03 202.474 1431.2 203.322 1425.27 203.322Z" fill="#57BF55"/>
<path d="M89.5829 163.914C96.5323 163.914 102.38 162.897 107.126 160.863C112.041 158.829 116.194 156.541 119.584 153.998C122.974 151.456 125.94 149.168 128.482 147.134C131.194 145.1 133.906 144.083 136.618 144.083C140.008 144.083 141.703 146.625 141.703 151.71C141.703 154.422 141.364 157.727 140.686 161.626C140.008 165.355 139.076 169.592 137.89 174.338C137.212 177.219 135.517 180.355 132.805 183.745C130.262 187.135 126.703 190.355 122.126 193.406C117.55 196.288 111.872 198.745 105.092 200.779C98.4815 202.644 90.8541 203.576 82.2098 203.576C73.5655 203.576 64.9211 202.305 56.2768 199.762C47.6324 197.22 39.9203 192.898 33.1404 186.796C26.3606 180.694 20.8519 172.473 16.6145 162.134C12.3771 151.795 10.2584 138.828 10.2584 123.235C10.2584 117.641 10.5974 111.2 11.2753 103.912C12.1228 96.4541 13.6483 88.8267 15.8518 81.0299C18.0552 73.233 21.1062 65.6057 25.0046 58.1478C29.0725 50.5204 34.2422 43.7406 40.5136 37.8082C46.7849 31.8758 54.4123 27.1299 63.3956 23.5704C72.5485 19.8415 83.3963 17.977 95.939 17.977C105.939 17.977 114.584 19.1635 121.872 21.5365C129.33 23.9094 135.432 27.2146 140.178 31.452C145.093 35.52 148.653 40.3506 150.856 45.944C153.229 51.5374 154.415 57.4698 154.415 63.7412C154.415 74.589 151.195 82.5553 144.754 87.6402C138.483 92.5556 129.499 95.0134 117.804 95.0134C114.075 95.0134 111.702 94.7591 110.685 94.2506C109.838 93.5726 109.414 92.3014 109.414 90.4369C109.245 84.674 109.075 79.6739 108.906 75.4365C108.736 71.199 108.143 67.7244 107.126 65.0124C106.109 62.131 104.499 60.097 102.295 58.9105C100.261 57.5546 97.3798 56.8766 93.6508 56.8766C88.2269 56.8766 83.5658 58.063 79.6673 60.436C75.9384 62.6395 72.718 65.6057 70.006 69.3346C67.4636 72.894 65.3448 76.9619 63.6499 81.5384C62.1244 86.1148 60.8532 90.7759 59.8362 95.5218C58.9887 100.268 58.3955 104.844 58.0565 109.251C57.887 113.658 57.8022 117.472 57.8022 120.692C57.8022 136.286 60.3447 147.388 65.4296 153.998C70.684 160.609 78.7351 163.914 89.5829 163.914Z" stroke="white" stroke-width="20" mask="url(#path-1-outside-1_25_341)"/>
<path d="M221.33 82.8096C221.33 86.369 220.991 91.3692 220.313 97.8101C219.804 104.251 219.211 110.946 218.533 117.895C218.024 124.845 217.431 131.37 216.753 137.472C216.245 143.574 215.99 147.981 215.99 150.693C215.99 156.625 217.431 161.287 220.313 164.677C223.364 167.897 227.516 169.507 232.771 169.507C237.347 169.507 241.161 167.728 244.212 164.168C247.432 160.439 249.975 155.693 251.839 149.93C253.873 143.998 255.483 137.303 256.67 129.845C257.856 122.387 258.704 114.844 259.212 107.217C259.89 99.5898 260.399 92.2167 260.738 85.0978C261.246 77.8094 261.755 71.538 262.263 66.2836C262.433 64.9277 262.941 63.7412 263.789 62.7242C264.636 61.7072 265.992 61.1987 267.857 61.1987H277.009C282.264 61.1987 286.501 61.792 289.722 62.9785C293.112 63.9954 295.739 65.5209 297.603 67.5549C299.637 69.5888 300.993 72.1313 301.671 75.1822C302.519 78.0637 302.942 81.4536 302.942 85.352C302.942 87.8945 302.773 91.5387 302.434 96.2846C302.264 100.861 301.841 107.302 301.163 115.607C300.485 123.743 299.637 134.167 298.62 146.879C297.773 159.422 296.671 175.016 295.315 193.661C294.976 197.22 294.552 199.339 294.044 200.017C293.705 200.695 292.349 201.034 289.976 201.034H280.06C274.975 201.034 270.738 200.44 267.348 199.254C264.128 198.067 261.5 196.542 259.466 194.678C257.432 192.813 255.992 190.61 255.144 188.067C254.297 185.525 253.788 182.897 253.619 180.186C251.076 184.592 248.195 188.321 244.974 191.372C241.923 194.423 238.703 196.881 235.313 198.745C231.923 200.44 228.449 201.627 224.889 202.305C221.33 203.152 217.855 203.576 214.465 203.576C208.024 203.576 202.261 202.559 197.176 200.525C192.091 198.322 187.769 195.44 184.21 191.881C180.82 188.321 178.193 184.084 176.328 179.169C174.464 174.253 173.532 168.999 173.532 163.405C173.532 161.202 173.616 157.642 173.786 152.727C174.125 147.642 174.464 141.964 174.803 135.693C175.311 129.421 175.82 122.811 176.328 115.861C176.837 108.743 177.26 102.047 177.599 95.7761C178.108 89.5047 178.532 83.9961 178.871 79.2502C179.379 74.5042 179.718 71.1143 179.888 69.0803C180.227 66.0294 180.905 63.9954 181.922 62.9785C182.939 61.792 184.634 61.1987 187.007 61.1987H195.142C200.397 61.1987 204.719 61.7072 208.109 62.7242C211.499 63.7412 214.126 65.1819 215.99 67.0464C218.024 68.9108 219.38 71.1991 220.058 73.911C220.906 76.4535 221.33 79.4196 221.33 82.8096Z" stroke="white" stroke-width="20" mask="url(#path-1-outside-1_25_341)"/>
<path d="M384.964 95.5218C384.456 101.963 383.863 108.319 383.185 114.59C382.676 120.862 382.168 126.794 381.659 132.387C381.151 137.981 380.727 142.981 380.388 147.388C380.218 151.795 380.134 155.185 380.134 157.558C380.134 161.965 380.642 164.931 381.659 166.456C382.676 167.812 384.371 168.49 386.744 168.49C388.609 168.49 390.219 168.151 391.575 167.473C392.931 166.795 394.202 166.033 395.388 165.185C396.575 164.338 397.592 163.575 398.439 162.897C399.456 162.219 400.558 161.88 401.745 161.88C402.931 161.88 404.033 162.558 405.05 163.914C406.067 165.27 406.575 168.406 406.575 173.321C406.575 182.643 404.033 190.016 398.948 195.44C393.863 200.864 385.134 203.576 372.761 203.576C360.557 203.576 351.489 200.779 345.556 195.186C339.793 189.423 336.912 180.694 336.912 168.999C336.912 166.456 336.997 163.49 337.166 160.1C337.505 156.541 337.929 151.964 338.437 146.371C338.946 140.778 339.539 133.913 340.217 125.777C341.065 117.641 341.912 107.556 342.76 95.5218H329.285C327.929 95.5218 327.081 95.2676 326.742 94.7591C326.573 94.0811 326.488 93.1489 326.488 91.9624L327.251 78.9959C327.42 76.7924 327.674 74.6737 328.013 72.6398C328.522 70.4363 329.369 68.4871 330.556 66.7921C331.912 65.0972 333.776 63.7412 336.149 62.7242C338.522 61.7072 341.658 61.1987 345.556 61.1987C346.743 58.1478 348.099 54.5036 349.624 50.2662C351.15 46.0288 352.675 41.9608 354.201 38.0624C355.726 33.9945 357.167 30.6045 358.523 27.8926C360.048 25.1806 361.404 23.8247 362.591 23.8247H369.964C377.083 23.8247 381.998 26.0281 384.71 30.4351C387.422 34.842 388.778 40.0964 388.778 46.1983C388.778 49.5882 388.524 54.5884 388.015 61.1987H414.711C417.423 61.1987 418.779 62.3852 418.779 64.7582L417.762 78.4874C417.423 83.5723 415.982 87.725 413.44 90.9454C411.067 93.9964 406.067 95.5218 398.439 95.5218H384.964Z" stroke="white" stroke-width="20" mask="url(#path-1-outside-1_25_341)"/>
<path d="M493.928 203.576C486.47 203.576 479.013 202.644 471.555 200.779C464.266 198.915 457.656 195.695 451.724 191.118C445.961 186.542 441.215 180.44 437.486 172.812C433.757 165.185 431.892 155.608 431.892 144.083C431.892 139.845 432.231 134.76 432.909 128.828C433.587 122.896 434.859 116.794 436.723 110.522C438.757 104.251 441.469 98.0643 444.859 91.9624C448.418 85.691 452.995 80.0976 458.588 75.1822C464.182 70.2668 470.961 66.2836 478.928 63.2327C486.894 60.1818 496.386 58.6563 507.403 58.6563C516.217 58.6563 523.675 59.6733 529.777 61.7072C535.879 63.7412 540.794 66.5379 544.523 70.0973C548.252 73.4873 550.964 77.4704 552.659 82.0468C554.354 86.6233 555.201 91.5387 555.201 96.7931C555.201 104.59 553.591 111.2 550.371 116.624C547.32 122.048 543.252 126.625 538.167 130.353C533.252 133.913 527.743 136.71 521.641 138.744C515.539 140.778 509.522 142.388 503.59 143.574C497.657 144.591 492.149 145.269 487.064 145.608C482.148 145.778 478.335 145.862 475.623 145.862C475.623 149.083 476.046 152.303 476.894 155.524C477.911 158.575 479.352 161.287 481.216 163.66C483.08 166.033 485.538 167.982 488.589 169.507C491.64 171.033 495.369 171.795 499.776 171.795C504.183 171.795 507.573 171.117 509.946 169.761C512.488 168.236 514.522 166.626 516.048 164.931C517.573 163.066 518.844 161.456 519.861 160.1C521.048 158.575 522.573 157.812 524.438 157.812C525.285 157.812 526.726 158.066 528.76 158.575C530.963 158.914 533.167 159.761 535.37 161.117C537.574 162.473 539.523 164.338 541.218 166.711C542.913 169.083 543.76 172.134 543.76 175.863C543.76 180.779 542.235 185.016 539.184 188.576C536.133 192.135 532.15 195.017 527.234 197.22C522.489 199.423 517.149 201.034 511.217 202.051C505.285 203.068 499.522 203.576 493.928 203.576ZM498.759 92.4709C495.03 92.4709 491.81 93.5726 489.098 95.7761C486.555 97.8101 484.352 100.437 482.487 103.658C480.792 106.878 479.436 110.438 478.419 114.336C477.572 118.234 476.894 121.963 476.385 125.523C486.894 125.353 495.369 123.574 501.81 120.184C508.42 116.794 511.725 111.963 511.725 105.692C511.725 102.302 510.624 99.2508 508.42 96.5388C506.386 93.8269 503.166 92.4709 498.759 92.4709Z" stroke="white" stroke-width="20" mask="url(#path-1-outside-1_25_341)"/>
<path d="M722.004 178.66C722.004 174.931 722.258 170.1 722.767 164.168C723.445 158.066 724.038 151.71 724.547 145.1C725.225 138.32 725.818 131.794 726.326 125.523C727.004 119.251 727.343 113.997 727.343 109.76C727.343 105.353 726.242 101.454 724.038 98.0643C722.004 94.5049 717.936 92.7251 711.834 92.7251C705.902 92.7251 700.987 94.1659 697.088 97.0473C693.19 99.9288 689.885 105.183 687.173 112.811C684.63 120.438 682.511 130.947 680.816 144.337C679.122 157.727 677.511 174.931 675.986 195.949C675.816 197.983 675.393 199.339 674.715 200.017C674.037 200.695 672.596 201.034 670.392 201.034H661.24C655.985 201.034 651.663 200.525 648.273 199.508C645.053 198.322 642.425 196.711 640.391 194.678C638.527 192.644 637.171 190.186 636.324 187.304C635.646 184.253 635.307 180.779 635.307 176.88C635.307 174.338 635.391 170.778 635.561 166.202C635.9 161.456 636.408 155.015 637.086 146.879C637.764 138.574 638.527 128.15 639.374 115.607C640.391 102.895 641.578 87.2165 642.934 68.5718C643.103 64.8429 643.527 62.6395 644.205 61.9615C644.714 61.453 646.07 61.1987 648.273 61.1987H658.189C663.274 61.1987 667.426 61.792 670.647 62.9785C674.037 64.1649 676.749 65.7752 678.783 67.8091C680.816 69.6736 682.257 71.9618 683.105 74.6737C683.952 77.2162 684.461 79.8434 684.63 82.5553C689.885 73.572 695.902 67.3854 702.682 63.9954C709.461 60.436 717.936 58.6563 728.106 58.6563C735.225 58.6563 741.412 59.419 746.666 60.9445C751.92 62.47 756.243 65.0972 759.633 68.8261C763.192 72.3855 765.819 77.1314 767.514 83.0638C769.209 88.8267 770.057 96.0303 770.057 104.675C770.057 107.387 769.887 111.285 769.548 116.37C769.209 121.455 768.785 127.048 768.277 133.15C767.768 139.083 767.175 145.354 766.497 151.964C765.989 158.405 765.48 164.422 764.972 170.016C764.463 175.609 764.039 180.525 763.7 184.762C763.361 188.999 763.192 191.796 763.192 193.152C763.192 196.881 762.768 199.169 761.921 200.017C761.073 200.695 759.209 201.034 756.327 201.034H748.191C742.768 201.034 738.361 200.525 734.971 199.508C731.581 198.491 728.954 197.05 727.089 195.186C725.225 193.322 723.869 191.033 723.021 188.321C722.343 185.44 722.004 182.219 722.004 178.66Z" stroke="white" stroke-width="20" mask="url(#path-1-outside-1_25_341)"/>
<path d="M817.89 53.0629C813.992 53.0629 810.772 51.6222 808.229 48.7407C805.687 45.6898 804.415 41.4523 804.415 36.0284C804.415 32.808 804.924 29.6723 805.941 26.6214C806.958 23.4009 808.483 20.6042 810.517 18.2313C812.551 15.8583 815.094 13.9939 818.145 12.6379C821.196 11.1124 824.755 10.3497 828.823 10.3497C831.535 10.3497 833.993 10.7734 836.196 11.6209C838.569 12.2989 840.603 13.5701 842.298 15.4346C843.993 17.1296 845.349 19.5025 846.366 22.5535C847.383 25.6044 847.891 29.5028 847.891 34.2487C847.891 41.0286 846.874 47.639 844.84 54.0799C842.807 60.5208 840.01 66.2836 836.45 71.3685C833.06 76.4535 829.077 80.5214 824.501 83.5723C820.094 86.6233 815.518 88.1487 810.772 88.1487C806.873 88.1487 804.246 87.3013 802.89 85.6063C801.703 83.7418 801.11 81.6231 801.11 79.2502C801.11 78.5722 801.958 77.3857 803.653 75.6907C805.517 73.9957 807.466 72.0465 809.5 69.8431C811.534 67.4701 813.399 64.8429 815.094 61.9615C816.958 59.08 817.89 56.1138 817.89 53.0629Z" stroke="white" stroke-width="20" mask="url(#path-1-outside-1_25_341)"/>
<path d="M1000.26 163.914C1007.21 163.914 1013.05 162.897 1017.8 160.863C1022.72 158.829 1026.87 156.541 1030.26 153.998C1033.65 151.456 1036.61 149.168 1039.16 147.134C1041.87 145.1 1044.58 144.083 1047.29 144.083C1050.68 144.083 1052.38 146.625 1052.38 151.71C1052.38 154.422 1052.04 157.727 1051.36 161.626C1050.68 165.355 1049.75 169.592 1048.56 174.338C1047.89 177.219 1046.19 180.355 1043.48 183.745C1040.94 187.135 1037.38 190.355 1032.8 193.406C1028.22 196.288 1022.55 198.745 1015.77 200.779C1009.16 202.644 1001.53 203.576 992.885 203.576C984.24 203.576 975.596 202.305 966.952 199.762C958.307 197.22 950.595 192.898 943.815 186.796C937.036 180.694 931.527 172.473 927.289 162.134C923.052 151.795 920.933 138.828 920.933 123.235C920.933 117.641 921.272 111.2 921.95 103.912C922.798 96.4541 924.323 88.8267 926.527 81.0299C928.73 73.233 931.781 65.6057 935.68 58.1478C939.747 50.5204 944.917 43.7406 951.188 37.8082C957.46 31.8758 965.087 27.1299 974.07 23.5704C983.223 19.8415 994.071 17.977 1006.61 17.977C1016.61 17.977 1025.26 19.1635 1032.55 21.5365C1040 23.9094 1046.11 27.2146 1050.85 31.452C1055.77 35.52 1059.33 40.3506 1061.53 45.944C1063.9 51.5374 1065.09 57.4698 1065.09 63.7412C1065.09 74.589 1061.87 82.5553 1055.43 87.6402C1049.16 92.5556 1040.17 95.0134 1028.48 95.0134C1024.75 95.0134 1022.38 94.7591 1021.36 94.2506C1020.51 93.5726 1020.09 92.3014 1020.09 90.4369C1019.92 84.674 1019.75 79.6739 1019.58 75.4365C1019.41 71.199 1018.82 67.7244 1017.8 65.0124C1016.78 62.131 1015.17 60.097 1012.97 58.9105C1010.94 57.5546 1008.05 56.8766 1004.33 56.8766C998.902 56.8766 994.241 58.063 990.342 60.436C986.613 62.6395 983.393 65.6057 980.681 69.3346C978.138 72.894 976.02 76.9619 974.325 81.5384C972.799 86.1148 971.528 90.7759 970.511 95.5218C969.664 100.268 969.07 104.844 968.731 109.251C968.562 113.658 968.477 117.472 968.477 120.692C968.477 136.286 971.02 147.388 976.105 153.998C981.359 160.609 989.41 163.914 1000.26 163.914Z" stroke="white" stroke-width="20" mask="url(#path-1-outside-1_25_341)"/>
<path d="M1138.66 203.576C1126.96 203.576 1117.22 201.966 1109.42 198.745C1101.79 195.355 1095.69 190.779 1091.11 185.016C1086.54 179.253 1083.32 172.558 1081.45 164.931C1079.59 157.134 1078.65 148.829 1078.65 140.015C1078.65 129.845 1079.84 119.929 1082.21 110.268C1084.76 100.437 1088.99 91.7082 1094.93 84.0808C1100.86 76.4535 1108.66 70.3516 1118.32 65.7752C1128.15 61.0292 1140.35 58.6563 1154.93 58.6563C1176.28 58.6563 1191.54 63.9107 1200.69 74.4195C1210.01 84.7588 1214.68 99.3355 1214.68 118.15C1214.68 123.404 1214.25 129.252 1213.4 135.693C1212.73 141.964 1211.29 148.235 1209.08 154.507C1207.05 160.778 1204.17 166.88 1200.44 172.812C1196.88 178.745 1192.3 183.999 1186.71 188.576C1181.12 193.152 1174.34 196.796 1166.37 199.508C1158.57 202.22 1149.34 203.576 1138.66 203.576ZM1150.61 92.4709C1144.17 92.4709 1139 94.1659 1135.1 97.5558C1131.37 100.776 1128.49 104.759 1126.45 109.505C1124.59 114.082 1123.32 118.997 1122.64 124.252C1122.13 129.336 1121.88 133.659 1121.88 137.218C1121.88 148.405 1123.66 156.625 1127.22 161.88C1130.78 167.134 1135.86 169.761 1142.47 169.761C1148.4 169.761 1153.23 167.897 1156.96 164.168C1160.86 160.439 1163.83 155.947 1165.86 150.693C1168.06 145.439 1169.51 139.93 1170.18 134.167C1171.03 128.404 1171.45 123.574 1171.45 119.675C1171.45 111.2 1169.84 104.59 1166.62 99.844C1163.57 94.9286 1158.23 92.4709 1150.61 92.4709Z" stroke="white" stroke-width="20" mask="url(#path-1-outside-1_25_341)"/>
<path d="M1295.69 203.576C1284 203.576 1274.25 201.966 1266.45 198.745C1258.83 195.355 1252.73 190.779 1248.15 185.016C1243.57 179.253 1240.35 172.558 1238.49 164.931C1236.62 157.134 1235.69 148.829 1235.69 140.015C1235.69 129.845 1236.88 119.929 1239.25 110.268C1241.79 100.437 1246.03 91.7082 1251.96 84.0808C1257.89 76.4535 1265.69 70.3516 1275.35 65.7752C1285.18 61.0292 1297.39 58.6563 1311.96 58.6563C1333.32 58.6563 1348.58 63.9107 1357.73 74.4195C1367.05 84.7588 1371.71 99.3355 1371.71 118.15C1371.71 123.404 1371.29 129.252 1370.44 135.693C1369.76 141.964 1368.32 148.235 1366.12 154.507C1364.08 160.778 1361.2 166.88 1357.47 172.812C1353.91 178.745 1349.34 183.999 1343.75 188.576C1338.15 193.152 1331.37 196.796 1323.41 199.508C1315.61 202.22 1306.37 203.576 1295.69 203.576ZM1307.64 92.4709C1301.2 92.4709 1296.03 94.1659 1292.13 97.5558C1288.4 100.776 1285.52 104.759 1283.49 109.505C1281.62 114.082 1280.35 118.997 1279.68 124.252C1279.17 129.336 1278.91 133.659 1278.91 137.218C1278.91 148.405 1280.69 156.625 1284.25 161.88C1287.81 167.134 1292.9 169.761 1299.51 169.761C1305.44 169.761 1310.27 167.897 1314 164.168C1317.9 160.439 1320.86 155.947 1322.9 150.693C1325.1 145.439 1326.54 139.93 1327.22 134.167C1328.07 128.404 1328.49 123.574 1328.49 119.675C1328.49 111.2 1326.88 104.59 1323.66 99.844C1320.61 94.9286 1315.27 92.4709 1307.64 92.4709Z" stroke="white" stroke-width="20" mask="url(#path-1-outside-1_25_341)"/>
<path d="M1425.27 203.322C1414.76 203.322 1407.22 200.525 1402.64 194.932C1398.07 189.338 1395.78 180.101 1395.78 167.219C1395.78 165.185 1395.86 162.643 1396.03 159.592C1396.37 156.541 1396.71 152.642 1397.05 147.896C1397.56 142.981 1398.15 136.964 1398.83 129.845C1399.51 122.726 1400.18 114.082 1400.86 103.912C1401.71 93.7421 1402.56 81.7926 1403.41 68.0634C1404.42 54.3341 1405.44 38.4014 1406.46 20.2652C1406.63 16.5363 1407.05 14.3329 1407.73 13.6549C1408.24 13.1464 1409.59 12.8921 1411.8 12.8921H1421.71C1426.8 12.8921 1431.03 13.4854 1434.42 14.6718C1437.81 15.8583 1440.53 17.4685 1442.56 19.5025C1444.59 21.5365 1446.03 23.9094 1446.88 26.6214C1447.73 29.1638 1448.15 31.8758 1448.15 34.7572C1448.15 38.1472 1447.9 43.0626 1447.39 49.5035C1447.05 55.7748 1446.54 62.8937 1445.86 70.8601C1445.19 78.8264 1444.51 87.1318 1443.83 95.7761C1443.15 104.42 1442.47 112.726 1441.8 120.692C1441.12 128.489 1440.53 135.523 1440.02 141.794C1439.68 148.066 1439.51 152.812 1439.51 156.032C1439.51 160.439 1440.27 163.575 1441.8 165.439C1443.49 167.304 1445.27 168.66 1447.14 169.507C1449 170.185 1450.69 170.694 1452.22 171.033C1453.92 171.202 1454.76 171.711 1454.76 172.558C1454.76 176.287 1454.34 180.016 1453.49 183.745C1452.64 187.304 1451.12 190.61 1448.92 193.661C1446.71 196.542 1443.66 198.915 1439.76 200.779C1436.03 202.474 1431.2 203.322 1425.27 203.322Z" stroke="white" stroke-width="20" mask="url(#path-1-outside-1_25_341)"/>
</svg>
