<svg width="1473" height="1932" viewBox="0 0 1473 1932" fill="none" xmlns="http://www.w3.org/2000/svg">
<path d="M797.513 1518.75C869.824 1518.75 930.671 1508.17 980.054 1487.01C1031.2 1465.84 1074.41 1442.03 1109.68 1415.58C1144.96 1389.12 1175.82 1365.31 1202.28 1344.15C1230.5 1322.98 1258.71 1312.4 1286.93 1312.4C1322.21 1312.4 1339.84 1338.86 1339.84 1391.77C1339.84 1419.99 1336.32 1454.38 1329.26 1494.94C1322.21 1533.74 1312.51 1577.84 1300.16 1627.22C1293.11 1657.2 1275.47 1689.83 1247.25 1725.1C1220.8 1760.38 1183.76 1793.89 1136.14 1825.63C1088.52 1855.62 1029.44 1881.19 958.89 1902.35C890.106 1921.75 810.741 1931.45 720.793 1931.45C630.846 1931.45 540.898 1918.23 450.951 1891.77C361.003 1865.32 280.756 1820.34 210.209 1756.85C139.662 1693.36 82.3425 1607.82 38.2506 1500.23C-5.84128 1392.65 -27.8872 1257.73 -27.8872 1095.47C-27.8872 1037.27 -24.3599 970.25 -17.3052 894.412C-8.4868 816.81 7.38628 737.444 30.3141 656.315C53.2419 575.186 84.9881 495.821 125.553 418.219C167.881 338.853 221.673 268.306 286.929 206.578C352.185 144.849 431.55 95.4662 525.025 58.4291C620.264 19.6281 733.139 0.227661 863.651 0.227661C967.708 0.227661 1057.66 12.5734 1133.49 37.2648C1211.1 61.9563 1274.59 96.348 1323.97 140.44C1375.12 182.768 1412.15 233.033 1435.08 291.234C1459.77 349.436 1472.12 411.164 1472.12 476.42C1472.12 589.296 1438.61 672.188 1371.59 725.099C1306.33 776.245 1212.86 801.819 1091.17 801.819C1052.36 801.819 1027.67 799.173 1017.09 793.882C1008.27 786.827 1003.86 773.6 1003.86 754.199C1002.1 694.234 1000.34 642.206 998.572 598.114C996.809 554.022 990.636 517.867 980.054 489.648C969.472 459.665 952.717 438.501 929.789 426.156C908.625 412.046 878.642 404.991 839.842 404.991C783.404 404.991 734.903 417.337 694.338 442.029C655.537 464.956 622.028 495.821 593.809 534.622C567.354 571.659 545.308 613.987 527.671 661.606C511.798 709.226 498.57 757.727 487.988 807.11C479.17 856.493 472.997 904.112 469.47 949.967C467.706 995.823 466.824 1035.51 466.824 1069.02C466.824 1231.27 493.279 1346.79 546.189 1415.58C600.863 1484.36 684.638 1518.75 797.513 1518.75Z" fill="#EFEFEF"/>
</svg>
