<svg width="1618" height="217" viewBox="0 0 1618 217" fill="none" xmlns="http://www.w3.org/2000/svg">
<path d="M89.1888 171.928C96.9692 171.928 103.516 170.789 108.83 168.512C114.333 166.235 118.982 163.673 122.777 160.827C126.573 157.98 129.894 155.418 132.74 153.141C135.776 150.864 138.813 149.725 141.849 149.725C145.644 149.725 147.542 152.572 147.542 158.265C147.542 161.301 147.162 165.001 146.403 169.366C145.644 173.541 144.6 178.285 143.272 183.598C142.513 186.825 140.615 190.335 137.579 194.13C134.733 197.926 130.748 201.531 125.624 204.947C120.5 208.173 114.143 210.925 106.552 213.202C99.1515 215.289 90.612 216.333 80.934 216.333C71.2559 216.333 61.5778 214.91 51.8998 212.063C42.2217 209.217 33.5874 204.378 25.9967 197.546C18.4061 190.715 12.2387 181.511 7.49455 169.935C2.7504 158.36 0.378326 143.843 0.378326 126.384C0.378326 120.122 0.757858 112.911 1.51692 104.751C2.46575 96.4011 4.17364 87.8616 6.6406 79.1324C9.10756 70.4031 12.5233 61.8637 16.888 53.514C21.4423 44.9745 27.2302 37.3839 34.2515 30.7421C41.2729 24.1003 49.8123 18.7868 59.8699 14.8017C70.1173 10.6269 82.2623 8.53947 96.305 8.53947C107.501 8.53947 117.179 9.86783 125.339 12.5246C133.689 15.1813 140.52 18.8817 145.834 23.6259C151.337 28.1802 155.322 33.5886 157.789 39.8508C160.446 46.1131 161.774 52.7549 161.774 59.7763C161.774 71.9213 158.169 80.8403 150.958 86.5332C143.936 92.0364 133.879 94.7881 120.785 94.7881C116.61 94.7881 113.953 94.5034 112.815 93.9341C111.866 93.1751 111.391 91.7518 111.391 89.6644C111.202 83.2123 111.012 77.6142 110.822 72.8701C110.632 68.1259 109.968 64.2357 108.83 61.1995C107.691 57.9735 105.888 55.6963 103.421 54.3679C101.144 52.8498 97.918 52.0907 93.7431 52.0907C87.6706 52.0907 82.4521 53.4191 78.0875 56.0758C73.9126 58.5428 70.3071 61.8637 67.2708 66.0385C64.4243 70.0236 62.0522 74.578 60.1546 79.7017C58.4467 84.8253 57.0235 90.0439 55.8849 95.3573C54.936 100.671 54.2718 105.794 53.8923 110.728C53.7025 115.662 53.6077 119.932 53.6077 123.538C53.6077 140.996 56.4542 153.426 62.1471 160.827C68.0299 168.227 77.0438 171.928 89.1888 171.928Z" fill="#DEDEDE"/>
<path d="M236.69 81.1249C236.69 85.11 236.311 90.7081 235.552 97.9192C234.982 105.13 234.318 112.626 233.559 120.406C232.99 128.187 232.326 135.493 231.567 142.324C230.997 149.156 230.713 154.09 230.713 157.126C230.713 163.768 232.326 168.987 235.552 172.782C238.967 176.387 243.617 178.19 249.499 178.19C254.623 178.19 258.893 176.198 262.309 172.213C265.914 168.038 268.761 162.724 270.848 156.272C273.125 149.63 274.928 142.135 276.256 133.785C277.585 125.435 278.534 116.991 279.103 108.451C279.862 99.9117 280.431 91.6569 280.811 83.6868C281.38 75.5268 281.949 68.5055 282.519 62.6227C282.708 61.1046 283.278 59.7763 284.227 58.6377C285.175 57.4991 286.694 56.9298 288.781 56.9298H299.028C304.911 56.9298 309.655 57.594 313.261 58.9223C317.056 60.0609 319.997 61.7688 322.085 64.046C324.362 66.3232 325.88 69.1697 326.639 72.5854C327.588 75.8115 328.063 79.6068 328.063 83.9714C328.063 86.8179 327.873 90.8979 327.493 96.2113C327.303 101.335 326.829 108.546 326.07 117.845C325.311 126.953 324.362 138.624 323.223 152.856C322.275 166.899 321.041 184.358 319.523 205.232C319.144 209.217 318.669 211.589 318.1 212.348C317.72 213.107 316.202 213.487 313.545 213.487H302.444C296.751 213.487 292.007 212.822 288.212 211.494C284.606 210.166 281.665 208.458 279.388 206.37C277.11 204.283 275.497 201.816 274.549 198.97C273.6 196.123 273.03 193.182 272.841 190.145C269.994 195.079 266.768 199.254 263.163 202.67C259.747 206.086 256.141 208.837 252.346 210.925C248.551 212.822 244.66 214.151 240.675 214.91C236.69 215.859 232.8 216.333 229.005 216.333C221.794 216.333 215.342 215.195 209.649 212.917C203.956 210.45 199.117 207.224 195.131 203.239C191.336 199.254 188.395 194.51 186.307 189.007C184.22 183.504 183.176 177.621 183.176 171.359C183.176 168.892 183.271 164.907 183.461 159.403C183.84 153.71 184.22 147.353 184.6 140.332C185.169 133.311 185.738 125.91 186.307 118.129C186.877 110.159 187.351 102.663 187.731 95.642C188.3 88.6207 188.774 82.4533 189.154 77.1398C189.723 71.8264 190.103 68.0311 190.292 65.7539C190.672 62.3381 191.431 60.0609 192.57 58.9223C193.708 57.594 195.606 56.9298 198.263 56.9298H207.371C213.254 56.9298 218.093 57.4991 221.888 58.6377C225.684 59.7763 228.625 61.3893 230.713 63.4767C232.99 65.5641 234.508 68.126 235.267 71.1622C236.216 74.0087 236.69 77.3296 236.69 81.1249Z" fill="#DEDEDE"/>
<path d="M419.893 95.3573C419.324 102.568 418.659 109.685 417.9 116.706C417.331 123.727 416.762 130.369 416.192 136.631C415.623 142.894 415.149 148.492 414.769 153.426C414.579 158.36 414.485 162.155 414.485 164.812C414.485 169.746 415.054 173.066 416.192 174.774C417.331 176.293 419.229 177.052 421.885 177.052C423.973 177.052 425.776 176.672 427.294 175.913C428.812 175.154 430.235 174.3 431.564 173.351C432.892 172.402 434.03 171.548 434.979 170.789C436.118 170.03 437.351 169.651 438.68 169.651C440.008 169.651 441.242 170.41 442.38 171.928C443.519 173.446 444.088 176.957 444.088 182.46C444.088 192.897 441.242 201.152 435.549 207.224C429.856 213.297 420.083 216.333 406.23 216.333C392.567 216.333 382.414 213.202 375.772 206.94C369.32 200.488 366.094 190.715 366.094 177.621C366.094 174.774 366.189 171.453 366.379 167.658C366.758 163.673 367.233 158.549 367.802 152.287C368.371 146.025 369.036 138.339 369.795 129.231C370.744 120.122 371.692 108.831 372.641 95.3573H357.555C356.037 95.3573 355.088 95.0727 354.708 94.5034C354.519 93.7443 354.424 92.7006 354.424 91.3723L355.278 76.8552C355.467 74.3882 355.752 72.0162 356.132 69.739C356.701 67.272 357.65 65.0897 358.978 63.1921C360.496 61.2944 362.584 59.7763 365.24 58.6377C367.897 57.4991 371.408 56.9298 375.772 56.9298C377.101 53.514 378.619 49.434 380.327 44.6899C382.035 39.9457 383.743 35.3913 385.45 31.0267C387.158 26.4723 388.771 22.677 390.289 19.6408C391.997 16.6045 393.515 15.0864 394.844 15.0864H403.099C411.069 15.0864 416.572 17.5534 419.608 22.4873C422.645 27.4212 424.163 33.3039 424.163 40.1355C424.163 43.9308 423.878 49.5289 423.309 56.9298H453.197C456.233 56.9298 457.751 58.2581 457.751 60.9149L456.613 76.2859C456.233 81.9789 454.62 86.6281 451.774 90.2337C449.117 93.6495 443.519 95.3573 434.979 95.3573H419.893Z" fill="#DEDEDE"/>
<path d="M541.887 216.333C533.537 216.333 525.188 215.289 516.838 213.202C508.678 211.115 501.277 207.509 494.635 202.385C488.183 197.262 482.87 190.43 478.695 181.891C474.52 173.351 472.433 162.629 472.433 149.725C472.433 144.981 472.812 139.288 473.571 132.646C474.331 126.005 475.754 119.173 477.841 112.152C480.118 105.13 483.155 98.2038 486.95 91.3723C490.935 84.3509 496.059 78.0887 502.321 72.5854C508.583 67.0822 516.174 62.6227 525.093 59.207C534.012 55.7912 544.639 54.0833 556.974 54.0833C566.841 54.0833 575.191 55.2219 582.023 57.4991C588.854 59.7763 594.357 62.9074 598.532 66.8925C602.707 70.6878 605.743 75.1473 607.641 80.271C609.539 85.3946 610.488 90.8979 610.488 96.7806C610.488 105.51 608.685 112.911 605.079 118.983C601.663 125.056 597.109 130.179 591.416 134.354C585.913 138.339 579.746 141.47 572.914 143.748C566.082 146.025 559.346 147.828 552.704 149.156C546.062 150.295 539.895 151.054 534.202 151.433C528.698 151.623 524.429 151.718 521.392 151.718C521.392 155.323 521.867 158.929 522.816 162.534C523.954 165.95 525.567 168.987 527.655 171.643C529.742 174.3 532.494 176.482 535.91 178.19C539.325 179.898 543.5 180.752 548.434 180.752C553.368 180.752 557.163 179.993 559.82 178.475C562.667 176.767 564.944 174.964 566.652 173.066C568.36 170.979 569.783 169.176 570.921 167.658C572.25 165.95 573.958 165.096 576.045 165.096C576.994 165.096 578.607 165.381 580.884 165.95C583.351 166.33 585.818 167.279 588.285 168.797C590.752 170.315 592.934 172.402 594.832 175.059C596.73 177.716 597.678 181.132 597.678 185.306C597.678 190.81 595.97 195.554 592.555 199.539C589.139 203.524 584.679 206.75 579.176 209.217C573.863 211.684 567.885 213.487 561.243 214.625C554.602 215.764 548.149 216.333 541.887 216.333ZM547.296 91.9416C543.121 91.9416 539.515 93.1751 536.479 95.642C533.632 97.9192 531.165 100.861 529.078 104.466C527.18 108.072 525.662 112.057 524.524 116.421C523.575 120.786 522.816 124.961 522.246 128.946C534.012 128.756 543.5 126.764 550.711 122.968C558.112 119.173 561.813 113.765 561.813 106.743C561.813 102.948 560.579 99.5322 558.112 96.4959C555.835 93.4597 552.229 91.9416 547.296 91.9416Z" fill="#DEDEDE"/>
<path d="M797.237 188.438C797.237 184.263 797.522 178.854 798.091 172.213C798.85 165.381 799.514 158.265 800.084 150.864C800.843 143.273 801.507 135.967 802.076 128.946C802.835 121.925 803.215 116.042 803.215 111.298C803.215 106.364 801.981 101.999 799.514 98.2038C797.237 94.2188 792.683 92.2262 785.851 92.2262C779.209 92.2262 773.706 93.8392 769.342 97.0653C764.977 100.291 761.277 106.174 758.24 114.713C755.394 123.253 753.022 135.018 751.124 150.01C749.226 165.001 747.424 184.263 745.716 207.794C745.526 210.071 745.052 211.589 744.293 212.348C743.533 213.107 741.92 213.487 739.453 213.487H729.206C723.323 213.487 718.484 212.917 714.689 211.779C711.084 210.45 708.142 208.648 705.865 206.37C703.778 204.093 702.259 201.342 701.311 198.116C700.552 194.7 700.172 190.81 700.172 186.445C700.172 183.598 700.267 179.613 700.457 174.49C700.836 169.176 701.405 161.965 702.165 152.856C702.924 143.558 703.777 131.887 704.726 117.845C705.865 103.612 707.193 86.0588 708.711 65.1846C708.901 61.0097 709.376 58.5428 710.135 57.7837C710.704 57.2144 712.222 56.9298 714.689 56.9298H725.79C731.483 56.9298 736.133 57.594 739.738 58.9223C743.533 60.2507 746.57 62.0534 748.847 64.3306C751.124 66.4181 752.737 68.9799 753.686 72.0162C754.635 74.8626 755.204 77.804 755.394 80.8403C761.277 70.7827 768.013 63.8562 775.604 60.0609C783.195 56.0758 792.683 54.0833 804.069 54.0833C812.039 54.0833 818.965 54.9372 824.848 56.6451C830.731 58.353 835.57 61.2944 839.365 65.4692C843.35 69.4543 846.292 74.7678 848.189 81.4096C850.087 87.8616 851.036 95.9267 851.036 105.605C851.036 108.641 850.846 113.006 850.467 118.699C850.087 124.392 849.613 130.654 849.043 137.485C848.474 144.127 847.81 151.149 847.051 158.549C846.482 165.76 845.912 172.497 845.343 178.759C844.774 185.022 844.299 190.525 843.92 195.269C843.54 200.013 843.35 203.144 843.35 204.663C843.35 208.837 842.876 211.399 841.927 212.348C840.978 213.107 838.891 213.487 835.665 213.487H826.556C820.484 213.487 815.55 212.917 811.754 211.779C807.959 210.64 805.018 209.027 802.93 206.94C800.843 204.852 799.325 202.29 798.376 199.254C797.617 196.028 797.237 192.423 797.237 188.438Z" fill="#DEDEDE"/>
<path d="M904.59 47.821C900.225 47.821 896.62 46.208 893.773 42.982C890.927 39.5662 889.504 34.822 889.504 28.7495C889.504 25.144 890.073 21.6333 891.211 18.2175C892.35 14.612 894.058 11.4808 896.335 8.82412C898.612 6.1674 901.459 4.07997 904.875 2.56184C908.29 0.853945 912.275 0 916.83 0C919.866 0 922.618 0.474416 925.085 1.42324C927.741 2.18231 930.018 3.60555 931.916 5.69299C933.814 7.59064 935.332 10.2474 936.471 13.6632C937.609 17.0789 938.178 21.4436 938.178 26.757C938.178 34.3476 937.04 41.7485 934.763 48.9596C932.485 56.1707 929.354 62.6227 925.369 68.3157C921.574 74.0087 917.114 78.5631 911.991 81.9789C907.057 85.3946 901.933 87.1025 896.62 87.1025C892.255 87.1025 889.314 86.1537 887.796 84.2561C886.467 82.1686 885.803 79.7966 885.803 77.1398C885.803 76.3808 886.752 75.0524 888.65 73.1547C890.737 71.2571 892.919 69.0748 895.196 66.6078C897.474 63.9511 899.561 61.0097 901.459 57.7837C903.546 54.5577 904.59 51.2368 904.59 47.821Z" fill="#DEDEDE"/>
<path d="M1108.77 171.928C1116.55 171.928 1123.09 170.789 1128.41 168.512C1133.91 166.235 1138.56 163.673 1142.35 160.827C1146.15 157.98 1149.47 155.418 1152.32 153.141C1155.35 150.864 1158.39 149.725 1161.43 149.725C1165.22 149.725 1167.12 152.572 1167.12 158.265C1167.12 161.301 1166.74 165.001 1165.98 169.366C1165.22 173.541 1164.18 178.285 1162.85 183.598C1162.09 186.825 1160.19 190.335 1157.16 194.13C1154.31 197.926 1150.32 201.531 1145.2 204.947C1140.08 208.173 1133.72 210.925 1126.13 213.202C1118.73 215.289 1110.19 216.333 1100.51 216.333C1090.83 216.333 1081.15 214.91 1071.48 212.063C1061.8 209.217 1053.16 204.378 1045.57 197.546C1037.98 190.715 1031.82 181.511 1027.07 169.935C1022.33 158.36 1019.95 143.843 1019.95 126.384C1019.95 120.122 1020.33 112.911 1021.09 104.751C1022.04 96.4011 1023.75 87.8616 1026.22 79.1324C1028.68 70.4031 1032.1 61.8637 1036.46 53.514C1041.02 44.9745 1046.81 37.3839 1053.83 30.7421C1060.85 24.1003 1069.39 18.7868 1079.45 14.8017C1089.69 10.6269 1101.84 8.53947 1115.88 8.53947C1127.08 8.53947 1136.76 9.86783 1144.92 12.5246C1153.27 15.1813 1160.1 18.8817 1165.41 23.6259C1170.91 28.1802 1174.9 33.5886 1177.37 39.8508C1180.02 46.1131 1181.35 52.7549 1181.35 59.7763C1181.35 71.9213 1177.75 80.8403 1170.53 86.5332C1163.51 92.0364 1153.46 94.7881 1140.36 94.7881C1136.19 94.7881 1133.53 94.5034 1132.39 93.9341C1131.44 93.1751 1130.97 91.7518 1130.97 89.6644C1130.78 83.2123 1130.59 77.6142 1130.4 72.8701C1130.21 68.1259 1129.54 64.2357 1128.41 61.1995C1127.27 57.9735 1125.46 55.6963 1123 54.3679C1120.72 52.8498 1117.49 52.0907 1113.32 52.0907C1107.25 52.0907 1102.03 53.4191 1097.66 56.0758C1093.49 58.5428 1089.88 61.8637 1086.85 66.0385C1084 70.0236 1081.63 74.578 1079.73 79.7017C1078.02 84.8253 1076.6 90.0439 1075.46 95.3573C1074.51 100.671 1073.85 105.794 1073.47 110.728C1073.28 115.662 1073.18 119.932 1073.18 123.538C1073.18 140.996 1076.03 153.426 1081.72 160.827C1087.61 168.227 1096.62 171.928 1108.77 171.928Z" fill="#DEDEDE"/>
<path d="M1263.71 216.333C1250.62 216.333 1239.71 214.53 1230.98 210.925C1222.44 207.129 1215.61 202.006 1210.49 195.554C1205.36 189.102 1201.76 181.606 1199.67 173.066C1197.58 164.337 1196.54 155.039 1196.54 145.171C1196.54 133.785 1197.87 122.684 1200.52 111.867C1203.37 100.861 1208.11 91.0876 1214.75 82.5482C1221.4 74.0087 1230.13 67.1771 1240.94 62.0534C1251.95 56.74 1265.61 54.0833 1281.93 54.0833C1305.84 54.0833 1322.92 59.966 1333.17 71.7315C1343.61 83.3072 1348.82 99.6271 1348.82 120.691C1348.82 126.574 1348.35 133.121 1347.4 140.332C1346.64 147.353 1345.03 154.375 1342.56 161.396C1340.28 168.417 1337.06 175.249 1332.88 181.891C1328.9 188.532 1323.78 194.415 1317.51 199.539C1311.25 204.662 1303.66 208.742 1294.74 211.779C1286.01 214.815 1275.67 216.333 1263.71 216.333ZM1277.09 91.9416C1269.88 91.9416 1264.09 93.8392 1259.73 97.6345C1255.55 101.24 1252.33 105.7 1250.05 111.013C1247.96 116.137 1246.54 121.64 1245.78 127.523C1245.21 133.216 1244.93 138.055 1244.93 142.04C1244.93 154.564 1246.92 163.768 1250.91 169.651C1254.89 175.533 1260.58 178.475 1267.98 178.475C1274.63 178.475 1280.03 176.387 1284.21 172.213C1288.57 168.038 1291.89 163.009 1294.17 157.126C1296.64 151.243 1298.25 145.076 1299.01 138.624C1299.96 132.172 1300.43 126.764 1300.43 122.399C1300.43 112.911 1298.63 105.51 1295.03 100.196C1291.61 94.6932 1285.63 91.9416 1277.09 91.9416Z" fill="#DEDEDE"/>
<path d="M1439.53 216.333C1426.44 216.333 1415.52 214.53 1406.79 210.925C1398.26 207.129 1391.42 202.006 1386.3 195.554C1381.18 189.102 1377.57 181.606 1375.48 173.066C1373.4 164.337 1372.35 155.039 1372.35 145.171C1372.35 133.785 1373.68 122.684 1376.34 111.867C1379.18 100.861 1383.93 91.0876 1390.57 82.5482C1397.21 74.0087 1405.94 67.1771 1416.76 62.0534C1427.76 56.74 1441.43 54.0833 1457.75 54.0833C1481.66 54.0833 1498.74 59.966 1508.98 71.7315C1519.42 83.3072 1524.64 99.6271 1524.64 120.691C1524.64 126.574 1524.17 133.121 1523.22 140.332C1522.46 147.353 1520.84 154.375 1518.38 161.396C1516.1 168.417 1512.87 175.249 1508.7 181.891C1504.71 188.532 1499.59 194.415 1493.33 199.539C1487.07 204.662 1479.48 208.742 1470.56 211.779C1461.83 214.815 1451.48 216.333 1439.53 216.333ZM1452.91 91.9416C1445.7 91.9416 1439.91 93.8392 1435.54 97.6345C1431.37 101.24 1428.14 105.7 1425.87 111.013C1423.78 116.137 1422.36 121.64 1421.6 127.523C1421.03 133.216 1420.74 138.055 1420.74 142.04C1420.74 154.564 1422.74 163.768 1426.72 169.651C1430.71 175.533 1436.4 178.475 1443.8 178.475C1450.44 178.475 1455.85 176.387 1460.02 172.213C1464.39 168.038 1467.71 163.009 1469.99 157.126C1472.45 151.243 1474.07 145.076 1474.83 138.624C1475.77 132.172 1476.25 126.764 1476.25 122.399C1476.25 112.911 1474.45 105.51 1470.84 100.196C1467.43 94.6932 1461.45 91.9416 1452.91 91.9416Z" fill="#DEDEDE"/>
<path d="M1584.6 216.048C1572.84 216.048 1564.39 212.917 1559.27 206.655C1554.15 200.393 1551.58 190.051 1551.58 175.628C1551.58 173.351 1551.68 170.505 1551.87 167.089C1552.25 163.673 1552.63 159.308 1553.01 153.995C1553.58 148.492 1554.24 141.755 1555 133.785C1555.76 125.815 1556.52 116.137 1557.28 104.751C1558.22 93.3648 1559.17 79.9863 1560.12 64.6153C1561.26 49.2443 1562.4 31.4063 1563.54 11.1013C1563.73 6.92646 1564.2 4.4595 1564.96 3.70044C1565.53 3.13115 1567.05 2.8465 1569.52 2.8465H1580.62C1586.31 2.8465 1591.05 3.51068 1594.85 4.83904C1598.65 6.1674 1601.68 7.97017 1603.96 10.2474C1606.24 12.5246 1607.85 15.1813 1608.8 18.2175C1609.75 21.064 1610.22 24.1003 1610.22 27.3263C1610.22 31.1216 1609.94 36.6248 1609.37 43.8359C1608.99 50.8573 1608.42 58.8274 1607.66 67.7464C1606.9 76.6654 1606.14 85.964 1605.38 95.642C1604.62 105.32 1603.86 114.619 1603.1 123.538C1602.35 132.267 1601.68 140.142 1601.11 147.163C1600.73 154.185 1600.54 159.498 1600.54 163.104C1600.54 168.038 1601.4 171.548 1603.1 173.636C1605 175.723 1606.99 177.241 1609.08 178.19C1611.17 178.949 1613.07 179.519 1614.78 179.898C1616.67 180.088 1617.62 180.657 1617.62 181.606C1617.62 185.781 1617.15 189.956 1616.2 194.13C1615.25 198.116 1613.54 201.816 1611.07 205.232C1608.61 208.458 1605.19 211.115 1600.83 213.202C1596.65 215.1 1591.24 216.048 1584.6 216.048Z" fill="#DEDEDE"/>
</svg>
