<svg width="1383" height="122" viewBox="0 0 1383 122" fill="none" xmlns="http://www.w3.org/2000/svg">
<path d="M5.40138 7.7683C5.48671 7.08564 5.74271 6.61631 6.16938 6.36031C6.68138 6.01897 7.15071 5.8483 7.57738 5.8483C13.38 5.8483 18.7987 5.67764 23.8334 5.3363C28.9534 4.90964 32.9641 4.6963 35.8654 4.6963C43.1187 4.6963 49.1774 5.42164 54.0414 6.87231C58.9907 8.32297 62.9587 10.5843 65.9454 13.6563C69.0174 16.7283 71.1934 20.6963 72.4734 25.5603C73.7534 30.4243 74.3934 36.2696 74.3934 43.0963C74.3934 50.0083 73.6681 56.7923 72.2174 63.4483C70.8521 70.019 68.4201 75.8643 64.9214 80.9843C61.4227 86.1043 56.6867 90.243 50.7134 93.4003C44.8254 96.4723 37.3587 98.0083 28.3134 98.0083C24.1321 98.0083 20.292 97.923 16.7934 97.7523C13.38 97.5816 10.436 97.0696 7.96138 96.2163C5.48671 95.363 3.56671 94.083 2.20138 92.3763C0.836048 90.6696 0.153381 88.323 0.153381 85.3363C0.153381 84.227 0.196048 82.563 0.281381 80.3443C0.452048 78.1256 0.622715 75.4803 0.793381 72.4083C1.04938 69.3363 1.30538 65.9656 1.56138 62.2963C1.90271 58.5416 2.24405 54.6163 2.58538 50.5203C3.26805 42.0723 3.78005 35.331 4.12138 30.2963C4.54805 25.2616 4.80405 21.3363 4.88938 18.5203C5.06005 15.619 5.14538 13.443 5.14538 11.9923C5.23071 10.5416 5.31605 9.13364 5.40138 7.7683ZM29.2094 77.7843C33.9881 77.7843 37.7854 76.7603 40.6014 74.7123C43.5027 72.6643 45.7214 70.0616 47.2574 66.9043C48.7934 63.747 49.8174 60.291 50.3294 56.5363C50.8414 52.7816 51.0974 49.2403 51.0974 45.9123C51.0974 42.3283 50.8414 39.2136 50.3294 36.5683C49.9027 33.8376 49.0921 31.5763 47.8974 29.7843C46.7881 27.9923 45.2094 26.6696 43.1614 25.8163C41.1134 24.8776 38.5534 24.4083 35.4814 24.4083C34.5427 24.4083 33.348 24.451 31.8974 24.5363C30.4467 24.6216 28.6974 24.7496 26.6494 24.9203C26.4787 28.0776 26.2654 31.8323 26.0094 36.1843C25.7534 40.451 25.4547 44.9736 25.1134 49.7523C24.8574 54.4456 24.5587 59.2243 24.2174 64.0883C23.876 68.867 23.5347 73.3043 23.1934 77.4003C24.4734 77.571 25.6254 77.699 26.6494 77.7843C27.6734 77.7843 28.5267 77.7843 29.2094 77.7843Z" fill="#DEDEDE"/>
<path d="M125.467 56.9203C124.955 56.9203 124.358 56.9203 123.675 56.9203C123.078 56.835 122.481 56.7496 121.883 56.6643C121.286 56.4936 120.774 56.323 120.347 56.1523C119.921 55.8963 119.707 55.5976 119.707 55.2563C119.707 54.147 119.75 53.123 119.835 52.1843C119.921 51.2456 119.963 50.2643 119.963 49.2403C119.963 47.363 119.707 45.827 119.195 44.6323C118.683 43.4376 117.659 42.8403 116.123 42.8403C113.734 42.8403 111.729 44.419 110.107 47.5763C108.571 50.6483 107.59 55.299 107.163 61.5283C106.993 64.259 106.737 67.3736 106.395 70.8723C106.139 74.2856 105.883 77.6136 105.627 80.8563C105.371 84.0136 105.158 86.8296 104.987 89.3043C104.817 91.779 104.731 93.4003 104.731 94.1683C104.731 95.0216 104.433 95.6616 103.835 96.0883C103.238 96.515 102.598 96.7283 101.915 96.7283H97.3074C94.662 96.7283 92.486 96.4723 90.7794 95.9603C89.1581 95.363 87.8354 94.5523 86.8114 93.5283C85.8727 92.5043 85.19 91.267 84.7634 89.8163C84.4221 88.2803 84.2514 86.531 84.2514 84.5683C84.2514 83.2883 84.294 81.4963 84.3794 79.1923C84.55 76.803 84.8061 73.5603 85.1474 69.4643C85.4887 65.283 85.8727 60.035 86.2994 53.7203C86.8114 47.3203 87.4087 39.427 88.0914 30.0403C88.2621 27.5656 89.1581 26.3283 90.7794 26.3283H95.7714C98.1607 26.3283 100.166 26.5843 101.787 27.0963C103.409 27.6083 104.731 28.3336 105.755 29.2723C106.779 30.1256 107.505 31.1496 107.931 32.3443C108.443 33.539 108.785 34.7763 108.955 36.0563C109.979 34.0936 111.174 32.4296 112.539 31.0643C113.99 29.6136 115.483 28.4616 117.019 27.6083C118.555 26.6696 120.134 26.0296 121.755 25.6883C123.377 25.2616 124.87 25.0483 126.235 25.0483C127.857 25.0483 129.478 25.347 131.099 25.9443C132.806 26.5416 134.342 27.4376 135.707 28.6323C137.073 29.827 138.139 31.363 138.907 33.2403C139.761 35.1176 140.187 37.3363 140.187 39.8963C140.187 42.2003 139.846 44.3763 139.163 46.4243C138.481 48.4723 137.499 50.307 136.219 51.9283C134.939 53.4643 133.361 54.7016 131.483 55.6403C129.691 56.4936 127.686 56.9203 125.467 56.9203Z" fill="#DEDEDE"/>
<path d="M141.033 80.9843C141.033 73.3043 144.489 67.2883 151.401 62.9363C158.313 58.5843 168.511 56.2376 181.993 55.8963C182.079 54.9576 182.121 54.1896 182.121 53.5923C182.207 52.9096 182.249 52.099 182.249 51.1603C182.249 48.4296 181.737 46.2536 180.713 44.6323C179.689 43.011 177.556 42.2003 174.313 42.2003C172.521 42.2003 171.071 42.4563 169.961 42.9683C168.852 43.4803 167.956 44.2056 167.273 45.1443C166.591 45.9976 166.036 47.0643 165.609 48.3443C165.183 49.6243 164.799 51.0323 164.457 52.5683C164.287 53.3363 163.903 53.8483 163.305 54.1043C162.708 54.275 161.769 54.3603 160.489 54.3603C151.785 54.3603 147.433 51.075 147.433 44.5043C147.433 41.859 148.031 39.3416 149.225 36.9523C150.505 34.563 152.34 32.515 154.729 30.8083C157.204 29.0163 160.276 27.6083 163.945 26.5843C167.615 25.5603 171.881 25.0483 176.745 25.0483C186.217 25.0483 193.087 27.011 197.353 30.9363C201.62 34.8616 203.753 40.4083 203.753 47.5763C203.753 48.515 203.625 50.2216 203.369 52.6963C203.199 55.0856 202.943 57.6456 202.601 60.3763C202.345 63.0216 202.089 65.539 201.833 67.9283C201.663 70.3176 201.577 71.9816 201.577 72.9203C201.577 75.0536 201.961 76.5896 202.729 77.5283C203.497 78.3816 204.351 78.979 205.289 79.3203C206.313 79.6616 207.209 79.9176 207.977 80.0883C208.745 80.259 209.129 80.6856 209.129 81.3683C209.129 83.2456 208.873 85.1656 208.361 87.1283C207.849 89.091 206.996 90.883 205.801 92.5043C204.692 94.1256 203.113 95.4483 201.065 96.4723C199.103 97.4963 196.671 98.0083 193.769 98.0083C189.673 98.0083 186.601 97.027 184.553 95.0643C182.505 93.1016 181.14 90.371 180.457 86.8723C178.409 89.859 175.721 92.4616 172.393 94.6803C169.151 96.899 164.884 98.0083 159.593 98.0083C157.033 98.0083 154.601 97.7096 152.297 97.1123C150.079 96.515 148.116 95.5336 146.409 94.1683C144.788 92.803 143.465 91.0536 142.441 88.9203C141.503 86.7016 141.033 84.0563 141.033 80.9843ZM180.841 66.3923C178.623 66.3923 176.447 66.563 174.313 66.9043C172.18 67.2456 170.26 67.8003 168.553 68.5683C166.932 69.251 165.609 70.1896 164.585 71.3843C163.561 72.579 163.049 74.0296 163.049 75.7363C163.049 77.699 163.647 79.0643 164.841 79.8323C166.121 80.6003 167.487 80.9843 168.937 80.9843C170.303 80.9843 171.668 80.6856 173.033 80.0883C174.399 79.491 175.593 78.595 176.617 77.4003C177.727 76.1203 178.665 74.5843 179.433 72.7923C180.201 71.0003 180.671 68.867 180.841 66.3923Z" fill="#DEDEDE"/>
<path d="M284.981 83.0323C286.091 76.803 287.029 71.3843 287.797 66.7763C288.651 62.083 289.333 58.0296 289.845 54.6163C290.443 51.203 290.912 48.259 291.253 45.7843C291.68 43.3096 292.021 41.1336 292.277 39.2563C292.619 37.2936 292.875 35.587 293.045 34.1363C293.301 32.6003 293.557 31.0216 293.813 29.4003C293.984 28.4616 294.411 27.7363 295.093 27.2243C295.861 26.7123 297.269 26.4563 299.317 26.4563C300.427 26.4563 301.963 26.5416 303.925 26.7123C305.973 26.7976 307.979 27.0963 309.941 27.6083C311.904 28.1203 313.568 28.931 314.933 30.0403C316.384 31.0643 317.109 32.515 317.109 34.3923C317.109 35.7576 316.725 37.8056 315.957 40.5363C315.189 43.1816 314.208 46.2536 313.013 49.7523C311.819 53.251 310.453 57.0056 308.917 61.0163C307.381 64.9416 305.803 68.867 304.181 72.7923C302.645 76.6323 301.152 80.3016 299.701 83.8003C298.251 87.299 297.013 90.3283 295.989 92.8883C295.307 94.4243 294.624 95.4483 293.941 95.9603C293.344 96.4723 292.235 96.7283 290.613 96.7283H283.061C280.672 96.7283 278.709 96.4296 277.173 95.8323C275.637 95.235 274.4 94.4243 273.461 93.4003C272.523 92.3763 271.797 91.2243 271.285 89.9443C270.773 88.579 270.389 87.1283 270.133 85.5923C269.28 81.2403 268.384 75.395 267.445 68.0563C266.507 60.7176 265.653 52.0563 264.885 42.0723C264.459 43.9496 263.947 46.467 263.349 49.6243C262.837 52.7816 262.24 56.195 261.557 59.8643C260.96 63.5336 260.32 67.2883 259.637 71.1283C258.955 74.9683 258.315 78.5523 257.717 81.8803C257.12 85.123 256.565 87.939 256.053 90.3283C255.541 92.6323 255.115 94.1256 254.773 94.8083C254.347 95.6616 253.792 96.2163 253.109 96.4723C252.512 96.643 251.616 96.7283 250.421 96.7283H241.461C239.243 96.7283 237.323 96.4296 235.701 95.8323C234.165 95.1496 232.8 94.2963 231.605 93.2723C230.496 92.2483 229.557 91.0963 228.789 89.8163C228.107 88.451 227.595 87.043 227.253 85.5923C222.56 67.331 219.019 53.5496 216.629 44.2483C214.325 34.947 213.173 29.955 213.173 29.2723C213.173 28.5043 213.557 27.8216 214.325 27.2243C215.093 26.627 216.075 26.3283 217.269 26.3283C220.939 26.3283 224.096 26.499 226.741 26.8403C229.387 27.0963 231.563 27.6083 233.269 28.3763C235.061 29.1443 236.427 30.211 237.365 31.5763C238.304 32.9416 238.901 34.7336 239.157 36.9523C239.243 38.147 239.413 40.579 239.669 44.2483C239.925 47.9176 240.181 52.099 240.437 56.7923C240.779 61.4003 241.077 66.0936 241.333 70.8723C241.675 75.651 241.973 79.7043 242.229 83.0323C243.253 77.7416 244.064 73.5176 244.661 70.3603C245.344 67.203 245.899 64.5576 246.325 62.4243C246.752 60.291 247.093 58.4136 247.349 56.7923C247.691 55.171 248.075 53.251 248.501 51.0323C248.928 48.8136 249.397 46.0403 249.909 42.7123C250.507 39.3843 251.317 34.947 252.341 29.4003C252.683 27.3523 254.944 26.3283 259.125 26.3283C261.771 26.3283 264.245 26.4136 266.549 26.5843C268.853 26.755 270.901 27.1816 272.693 27.8643C274.485 28.4616 276.021 29.4003 277.301 30.6803C278.581 31.875 279.477 33.539 279.989 35.6723C280.16 36.2696 280.288 36.867 280.373 37.4643C280.544 38.0616 280.715 38.915 280.885 40.0243C281.056 41.1336 281.227 42.6696 281.397 44.6323C281.653 46.595 281.909 49.2403 282.165 52.5683C282.507 55.8963 282.891 60.035 283.317 64.9843C283.744 69.9336 284.299 75.9496 284.981 83.0323Z" fill="#DEDEDE"/>
<path d="M336.932 96.7283C334.287 96.7283 332.111 96.4723 330.404 95.9603C328.783 95.363 327.46 94.5523 326.436 93.5283C325.498 92.5043 324.815 91.267 324.388 89.8163C324.047 88.2803 323.876 86.531 323.876 84.5683C323.876 83.2883 323.919 81.4963 324.004 79.1923C324.175 76.803 324.431 73.5603 324.772 69.4643C325.114 65.283 325.498 60.035 325.924 53.7203C326.436 47.3203 327.034 39.427 327.716 30.0403C327.802 28.163 328.015 27.0536 328.356 26.7123C328.612 26.4563 329.295 26.3283 330.404 26.3283H335.396C338.042 26.3283 340.175 26.5843 341.796 27.0963C343.503 27.6083 344.826 28.3763 345.764 29.4003C346.788 30.4243 347.471 31.6616 347.812 33.1123C348.239 34.563 348.452 36.1843 348.452 37.9763C348.452 39.2563 348.367 41.1763 348.196 43.7363C348.026 46.2963 347.77 49.795 347.428 54.2323C347.172 58.5843 346.788 64.0456 346.276 70.6163C345.764 77.1016 345.124 84.9523 344.356 94.1683C344.271 95.1923 344.058 95.875 343.716 96.2163C343.375 96.5576 342.65 96.7283 341.54 96.7283H336.932ZM327.844 11.2243C327.844 7.81097 329.082 5.12298 331.556 3.16031C334.031 1.19764 337.359 0.216309 341.54 0.216309C345.21 0.216309 347.855 0.984306 349.476 2.5203C351.183 3.97097 352.036 5.93364 352.036 8.4083C352.036 11.5656 350.842 14.211 348.452 16.3443C346.148 18.3923 342.735 19.4163 338.212 19.4163C331.3 19.4163 327.844 16.6856 327.844 11.2243Z" fill="#DEDEDE"/>
<path d="M403.396 85.4643C403.396 83.587 403.524 81.155 403.78 78.1683C404.122 75.0963 404.42 71.8963 404.676 68.5683C405.018 65.155 405.316 61.8696 405.572 58.7123C405.914 55.555 406.084 52.9096 406.084 50.7763C406.084 48.5576 405.53 46.595 404.42 44.8883C403.396 43.0963 401.348 42.2003 398.276 42.2003C395.29 42.2003 392.815 42.9256 390.852 44.3763C388.89 45.827 387.226 48.4723 385.86 52.3123C384.58 56.1523 383.514 61.443 382.66 68.1843C381.807 74.9256 380.996 83.587 380.228 94.1683C380.143 95.1923 379.93 95.875 379.588 96.2163C379.247 96.5576 378.522 96.7283 377.412 96.7283H372.804C370.159 96.7283 367.983 96.4723 366.276 95.9603C364.655 95.363 363.332 94.5523 362.308 93.5283C361.37 92.5043 360.687 91.267 360.26 89.8163C359.919 88.2803 359.748 86.531 359.748 84.5683C359.748 83.2883 359.791 81.4963 359.876 79.1923C360.047 76.803 360.303 73.5603 360.644 69.4643C360.986 65.283 361.37 60.035 361.796 53.7203C362.308 47.3203 362.906 39.427 363.588 30.0403C363.674 28.163 363.887 27.0536 364.228 26.7123C364.484 26.4563 365.167 26.3283 366.276 26.3283H371.268C373.828 26.3283 375.919 26.627 377.54 27.2243C379.247 27.8216 380.612 28.6323 381.636 29.6563C382.66 30.595 383.386 31.747 383.812 33.1123C384.239 34.3923 384.495 35.715 384.58 37.0803C387.226 32.5576 390.255 29.443 393.668 27.7363C397.082 25.9443 401.348 25.0483 406.468 25.0483C410.052 25.0483 413.167 25.4323 415.812 26.2003C418.458 26.9683 420.634 28.291 422.34 30.1683C424.132 31.9603 425.455 34.3496 426.308 37.3363C427.162 40.2376 427.588 43.8643 427.588 48.2163C427.588 49.5816 427.503 51.5443 427.332 54.1043C427.162 56.6643 426.948 59.4803 426.692 62.5523C426.436 65.539 426.138 68.6963 425.796 72.0243C425.54 75.267 425.284 78.2963 425.028 81.1123C424.772 83.9283 424.559 86.403 424.388 88.5363C424.218 90.6696 424.132 92.0776 424.132 92.7603C424.132 94.6376 423.919 95.7896 423.492 96.2163C423.066 96.5576 422.127 96.7283 420.676 96.7283H416.58C413.85 96.7283 411.631 96.4723 409.924 95.9603C408.218 95.4483 406.895 94.723 405.956 93.7843C405.018 92.8456 404.335 91.6936 403.908 90.3283C403.567 88.8776 403.396 87.2563 403.396 85.4643Z" fill="#DEDEDE"/>
<path d="M480.854 81.6243C478.721 85.4643 476.118 88.323 473.046 90.2003C469.974 91.9923 466.134 92.8883 461.526 92.8883C458.028 92.8883 454.828 92.3336 451.926 91.2243C449.025 90.115 446.55 88.3656 444.502 85.9763C442.454 83.587 440.833 80.6003 439.638 77.0163C438.529 73.347 437.974 68.995 437.974 63.9603C437.974 59.8643 438.401 55.555 439.254 51.0323C440.108 46.4243 441.644 42.2003 443.862 38.3603C446.166 34.5203 449.281 31.363 453.206 28.8883C457.132 26.3283 462.166 25.0483 468.31 25.0483C470.87 25.0483 473.046 25.347 474.838 25.9443C476.716 26.4563 478.294 27.1816 479.574 28.1203C480.94 29.059 482.006 30.1683 482.774 31.4483C483.628 32.7283 484.268 34.0936 484.694 35.5443C484.694 35.6296 484.694 35.331 484.694 34.6483C484.78 33.8803 484.865 33.027 484.95 32.0883C485.036 31.1496 485.078 30.2536 485.078 29.4003C485.164 28.4616 485.206 27.8643 485.206 27.6083C485.292 26.755 485.846 26.3283 486.87 26.3283H492.758C497.196 26.3283 500.396 27.267 502.358 29.1443C504.406 30.9363 505.43 34.3923 505.43 39.5123C505.43 40.195 505.388 41.7736 505.302 44.2483C505.217 46.6376 505.046 49.539 504.79 52.9523C504.62 56.3656 504.364 60.163 504.022 64.3443C503.681 68.4403 503.297 72.579 502.87 76.7603C502.444 80.9416 501.974 84.9523 501.462 88.7923C500.95 92.6323 500.396 96.003 499.798 98.9043C499.201 101.806 498.177 104.622 496.726 107.352C495.276 110.083 493.228 112.515 490.582 114.648C487.937 116.782 484.524 118.488 480.342 119.768C476.246 121.048 471.212 121.688 465.238 121.688C460.716 121.688 456.748 121.262 453.334 120.408C450.006 119.555 447.233 118.403 445.014 116.952C442.796 115.587 441.089 114.008 439.894 112.216C438.785 110.424 438.23 108.632 438.23 106.84C438.23 105.219 438.572 103.811 439.254 102.616C439.937 101.422 440.833 100.44 441.942 99.6723C443.052 98.9043 444.246 98.307 445.526 97.8803C446.892 97.539 448.172 97.3683 449.366 97.3683C450.817 97.3683 451.884 97.795 452.566 98.6483C453.249 99.5016 454.017 100.44 454.87 101.464C455.724 102.574 456.918 103.555 458.454 104.408C459.99 105.262 462.38 105.688 465.622 105.688C471.254 105.688 475.18 103.598 477.398 99.4163C479.702 95.3203 480.854 89.3896 480.854 81.6243ZM470.102 75.8643C473.174 75.8643 475.564 75.139 477.27 73.6883C479.062 72.2376 480.428 70.4883 481.366 68.4403C482.305 66.3923 482.902 64.259 483.158 62.0403C483.414 59.8216 483.542 57.9016 483.542 56.2803C483.542 51.1603 482.732 47.5336 481.11 45.4003C479.574 43.1816 477.228 42.0723 474.07 42.0723C470.913 42.0723 468.438 42.9256 466.646 44.6323C464.854 46.339 463.489 48.387 462.55 50.7763C461.697 53.0803 461.142 55.427 460.886 57.8163C460.63 60.1203 460.502 61.9123 460.502 63.1923C460.502 67.459 461.228 70.659 462.678 72.7923C464.129 74.8403 466.604 75.8643 470.102 75.8643Z" fill="#DEDEDE"/>
<path d="M610.106 83.0323C611.216 76.803 612.154 71.3843 612.922 66.7763C613.776 62.083 614.458 58.0296 614.97 54.6163C615.568 51.203 616.037 48.259 616.378 45.7843C616.805 43.3096 617.146 41.1336 617.402 39.2563C617.744 37.2936 618 35.587 618.17 34.1363C618.426 32.6003 618.682 31.0216 618.938 29.4003C619.109 28.4616 619.536 27.7363 620.218 27.2243C620.986 26.7123 622.394 26.4563 624.442 26.4563C625.552 26.4563 627.088 26.5416 629.05 26.7123C631.098 26.7976 633.104 27.0963 635.066 27.6083C637.029 28.1203 638.693 28.931 640.058 30.0403C641.509 31.0643 642.234 32.515 642.234 34.3923C642.234 35.7576 641.85 37.8056 641.082 40.5363C640.314 43.1816 639.333 46.2536 638.138 49.7523C636.944 53.251 635.578 57.0056 634.042 61.0163C632.506 64.9416 630.928 68.867 629.306 72.7923C627.77 76.6323 626.277 80.3016 624.826 83.8003C623.376 87.299 622.138 90.3283 621.114 92.8883C620.432 94.4243 619.749 95.4483 619.066 95.9603C618.469 96.4723 617.36 96.7283 615.738 96.7283H608.186C605.797 96.7283 603.834 96.4296 602.298 95.8323C600.762 95.235 599.525 94.4243 598.586 93.4003C597.648 92.3763 596.922 91.2243 596.41 89.9443C595.898 88.579 595.514 87.1283 595.258 85.5923C594.405 81.2403 593.509 75.395 592.57 68.0563C591.632 60.7176 590.778 52.0563 590.01 42.0723C589.584 43.9496 589.072 46.467 588.474 49.6243C587.962 52.7816 587.365 56.195 586.682 59.8643C586.085 63.5336 585.445 67.2883 584.762 71.1283C584.08 74.9683 583.44 78.5523 582.842 81.8803C582.245 85.123 581.69 87.939 581.178 90.3283C580.666 92.6323 580.24 94.1256 579.898 94.8083C579.472 95.6616 578.917 96.2163 578.234 96.4723C577.637 96.643 576.741 96.7283 575.546 96.7283H566.586C564.368 96.7283 562.448 96.4296 560.826 95.8323C559.29 95.1496 557.925 94.2963 556.73 93.2723C555.621 92.2483 554.682 91.0963 553.914 89.8163C553.232 88.451 552.72 87.043 552.378 85.5923C547.685 67.331 544.144 53.5496 541.754 44.2483C539.45 34.947 538.298 29.955 538.298 29.2723C538.298 28.5043 538.682 27.8216 539.45 27.2243C540.218 26.627 541.2 26.3283 542.394 26.3283C546.064 26.3283 549.221 26.499 551.866 26.8403C554.512 27.0963 556.688 27.6083 558.394 28.3763C560.186 29.1443 561.552 30.211 562.49 31.5763C563.429 32.9416 564.026 34.7336 564.282 36.9523C564.368 38.147 564.538 40.579 564.794 44.2483C565.05 47.9176 565.306 52.099 565.562 56.7923C565.904 61.4003 566.202 66.0936 566.458 70.8723C566.8 75.651 567.098 79.7043 567.354 83.0323C568.378 77.7416 569.189 73.5176 569.786 70.3603C570.469 67.203 571.024 64.5576 571.45 62.4243C571.877 60.291 572.218 58.4136 572.474 56.7923C572.816 55.171 573.2 53.251 573.626 51.0323C574.053 48.8136 574.522 46.0403 575.034 42.7123C575.632 39.3843 576.442 34.947 577.466 29.4003C577.808 27.3523 580.069 26.3283 584.25 26.3283C586.896 26.3283 589.37 26.4136 591.674 26.5843C593.978 26.755 596.026 27.1816 597.818 27.8643C599.61 28.4616 601.146 29.4003 602.426 30.6803C603.706 31.875 604.602 33.539 605.114 35.6723C605.285 36.2696 605.413 36.867 605.498 37.4643C605.669 38.0616 605.84 38.915 606.01 40.0243C606.181 41.1336 606.352 42.6696 606.522 44.6323C606.778 46.595 607.034 49.2403 607.29 52.5683C607.632 55.8963 608.016 60.035 608.442 64.9843C608.869 69.9336 609.424 75.9496 610.106 83.0323Z" fill="#DEDEDE"/>
<path d="M662.057 96.7283C659.412 96.7283 657.236 96.4723 655.529 95.9603C653.908 95.363 652.585 94.5523 651.561 93.5283C650.623 92.5043 649.94 91.267 649.513 89.8163C649.172 88.2803 649.001 86.531 649.001 84.5683C649.001 83.2883 649.044 81.4963 649.129 79.1923C649.3 76.803 649.556 73.5603 649.897 69.4643C650.239 65.283 650.623 60.035 651.049 53.7203C651.561 47.3203 652.159 39.427 652.841 30.0403C652.927 28.163 653.14 27.0536 653.481 26.7123C653.737 26.4563 654.42 26.3283 655.529 26.3283H660.521C663.167 26.3283 665.3 26.5843 666.921 27.0963C668.628 27.6083 669.951 28.3763 670.889 29.4003C671.913 30.4243 672.596 31.6616 672.937 33.1123C673.364 34.563 673.577 36.1843 673.577 37.9763C673.577 39.2563 673.492 41.1763 673.321 43.7363C673.151 46.2963 672.895 49.795 672.553 54.2323C672.297 58.5843 671.913 64.0456 671.401 70.6163C670.889 77.1016 670.249 84.9523 669.481 94.1683C669.396 95.1923 669.183 95.875 668.841 96.2163C668.5 96.5576 667.775 96.7283 666.665 96.7283H662.057ZM652.969 11.2243C652.969 7.81097 654.207 5.12298 656.681 3.16031C659.156 1.19764 662.484 0.216309 666.665 0.216309C670.335 0.216309 672.98 0.984306 674.601 2.5203C676.308 3.97097 677.161 5.93364 677.161 8.4083C677.161 11.5656 675.967 14.211 673.577 16.3443C671.273 18.3923 667.86 19.4163 663.337 19.4163C656.425 19.4163 652.969 16.6856 652.969 11.2243Z" fill="#DEDEDE"/>
<path d="M712.393 43.6083C712.137 46.851 711.839 50.051 711.497 53.2083C711.241 56.3656 710.985 59.3523 710.729 62.1683C710.473 64.9843 710.26 67.5016 710.089 69.7203C710.004 71.939 709.961 73.6456 709.961 74.8403C709.961 77.059 710.217 78.5523 710.729 79.3203C711.241 80.003 712.095 80.3443 713.289 80.3443C714.228 80.3443 715.039 80.1736 715.721 79.8323C716.404 79.491 717.044 79.107 717.641 78.6803C718.239 78.2536 718.751 77.8696 719.177 77.5283C719.689 77.187 720.244 77.0163 720.841 77.0163C721.439 77.0163 721.993 77.3576 722.505 78.0403C723.017 78.723 723.273 80.3016 723.273 82.7763C723.273 87.4696 721.993 91.1816 719.433 93.9123C716.873 96.643 712.479 98.0083 706.249 98.0083C700.105 98.0083 695.54 96.6003 692.553 93.7843C689.652 90.883 688.201 86.4883 688.201 80.6003C688.201 79.3203 688.244 77.827 688.329 76.1203C688.5 74.3283 688.713 72.0243 688.969 69.2083C689.225 66.3923 689.524 62.9363 689.865 58.8403C690.292 54.7443 690.719 49.667 691.145 43.6083H684.361C683.679 43.6083 683.252 43.4803 683.081 43.2243C682.996 42.883 682.953 42.4136 682.953 41.8163L683.337 35.2883C683.423 34.179 683.551 33.1123 683.721 32.0883C683.977 30.979 684.404 29.9976 685.001 29.1443C685.684 28.291 686.623 27.6083 687.817 27.0963C689.012 26.5843 690.591 26.3283 692.553 26.3283C693.151 24.7923 693.833 22.9576 694.601 20.8243C695.369 18.691 696.137 16.643 696.905 14.6803C697.673 12.6323 698.399 10.9256 699.081 9.5603C699.849 8.19497 700.532 7.51231 701.129 7.51231H704.841C708.425 7.51231 710.9 8.62164 712.265 10.8403C713.631 13.059 714.313 15.7043 714.313 18.7763C714.313 20.483 714.185 23.0003 713.929 26.3283H727.369C728.735 26.3283 729.417 26.9256 729.417 28.1203L728.905 35.0323C728.735 37.5923 728.009 39.683 726.729 41.3043C725.535 42.8403 723.017 43.6083 719.177 43.6083H712.393Z" fill="#DEDEDE"/>
<path d="M778.494 80.8563C778.75 78.0403 779.006 75.0963 779.262 72.0243C779.604 68.9523 779.86 66.0083 780.03 63.1923C780.286 60.3763 780.5 57.859 780.67 55.6403C780.841 53.4216 780.926 51.8003 780.926 50.7763C780.926 48.5576 780.372 46.595 779.262 44.8883C778.238 43.0963 776.19 42.2003 773.118 42.2003C769.022 42.2003 765.694 44.1203 763.134 47.9603C760.66 51.8003 759.209 56.9203 758.782 63.3203C758.612 65.1123 758.398 67.6296 758.142 70.8723C757.886 74.0296 757.63 77.2723 757.374 80.6003C757.118 83.843 756.862 86.787 756.606 89.4323C756.436 91.9923 756.35 93.571 756.35 94.1683C756.35 95.1923 756.137 95.875 755.71 96.2163C755.369 96.5576 754.644 96.7283 753.534 96.7283H748.926C746.281 96.7283 744.105 96.4723 742.398 95.9603C740.777 95.363 739.454 94.5523 738.43 93.5283C737.492 92.5043 736.809 91.267 736.382 89.8163C736.041 88.2803 735.87 86.531 735.87 84.5683C735.87 82.691 735.998 80.0883 736.254 76.7603C736.596 73.347 737.022 68.6963 737.534 62.8083C738.046 56.835 738.644 49.2403 739.326 40.0243C740.009 30.8083 740.734 19.3736 741.502 5.72031C741.588 3.84297 741.801 2.73364 742.142 2.3923C742.398 2.13631 743.081 2.00831 744.19 2.00831H749.182C751.742 2.00831 753.876 2.30697 755.582 2.9043C757.289 3.50164 758.654 4.31231 759.678 5.3363C760.702 6.36031 761.428 7.55497 761.854 8.9203C762.281 10.2003 762.494 11.5656 762.494 13.0163C762.494 14.5523 762.324 17.411 761.982 21.5923C761.726 25.7736 761.385 30.6803 760.958 36.3123C763.518 32.0456 766.334 29.1016 769.406 27.4803C772.564 25.859 776.532 25.0483 781.31 25.0483C784.894 25.0483 788.009 25.4323 790.654 26.2003C793.3 26.9683 795.476 28.291 797.182 30.1683C798.974 31.9603 800.297 34.3496 801.15 37.3363C802.004 40.2376 802.43 43.8643 802.43 48.2163C802.43 49.5816 802.302 51.9283 802.046 55.2563C801.79 58.5843 801.449 62.3816 801.022 66.6483C800.681 70.915 800.297 75.395 799.87 80.0883C799.529 84.6963 799.23 88.9203 798.974 92.7603C798.889 93.699 798.804 94.4243 798.718 94.9363C798.633 95.4483 798.462 95.8323 798.206 96.0883C798.036 96.3443 797.737 96.515 797.31 96.6003C796.884 96.6856 796.286 96.7283 795.518 96.7283H791.422C788.692 96.7283 786.473 96.4723 784.766 95.9603C783.06 95.4483 781.737 94.723 780.798 93.7843C779.86 92.8456 779.177 91.6936 778.75 90.3283C778.409 88.8776 778.238 87.2563 778.238 85.4643C778.238 84.611 778.238 83.8003 778.238 83.0323C778.324 82.2643 778.409 81.539 778.494 80.8563Z" fill="#DEDEDE"/>
<path d="M885.021 85.4643C885.021 83.587 885.149 81.155 885.405 78.1683C885.747 75.0963 886.045 71.8963 886.301 68.5683C886.643 65.155 886.941 61.8696 887.197 58.7123C887.539 55.555 887.709 52.9096 887.709 50.7763C887.709 48.5576 887.155 46.595 886.045 44.8883C885.021 43.0963 882.973 42.2003 879.901 42.2003C876.915 42.2003 874.44 42.9256 872.477 44.3763C870.515 45.827 868.851 48.4723 867.485 52.3123C866.205 56.1523 865.139 61.443 864.285 68.1843C863.432 74.9256 862.621 83.587 861.853 94.1683C861.768 95.1923 861.555 95.875 861.213 96.2163C860.872 96.5576 860.147 96.7283 859.037 96.7283H854.429C851.784 96.7283 849.608 96.4723 847.901 95.9603C846.28 95.363 844.957 94.5523 843.933 93.5283C842.995 92.5043 842.312 91.267 841.885 89.8163C841.544 88.2803 841.373 86.531 841.373 84.5683C841.373 83.2883 841.416 81.4963 841.501 79.1923C841.672 76.803 841.928 73.5603 842.269 69.4643C842.611 65.283 842.995 60.035 843.421 53.7203C843.933 47.3203 844.531 39.427 845.213 30.0403C845.299 28.163 845.512 27.0536 845.853 26.7123C846.109 26.4563 846.792 26.3283 847.901 26.3283H852.893C855.453 26.3283 857.544 26.627 859.165 27.2243C860.872 27.8216 862.237 28.6323 863.261 29.6563C864.285 30.595 865.011 31.747 865.437 33.1123C865.864 34.3923 866.12 35.715 866.205 37.0803C868.851 32.5576 871.88 29.443 875.293 27.7363C878.707 25.9443 882.973 25.0483 888.093 25.0483C891.677 25.0483 894.792 25.4323 897.437 26.2003C900.083 26.9683 902.259 28.291 903.965 30.1683C905.757 31.9603 907.08 34.3496 907.933 37.3363C908.787 40.2376 909.213 43.8643 909.213 48.2163C909.213 49.5816 909.128 51.5443 908.957 54.1043C908.787 56.6643 908.573 59.4803 908.317 62.5523C908.061 65.539 907.763 68.6963 907.421 72.0243C907.165 75.267 906.909 78.2963 906.653 81.1123C906.397 83.9283 906.184 86.403 906.013 88.5363C905.843 90.6696 905.757 92.0776 905.757 92.7603C905.757 94.6376 905.544 95.7896 905.117 96.2163C904.691 96.5576 903.752 96.7283 902.301 96.7283H898.205C895.475 96.7283 893.256 96.4723 891.549 95.9603C889.843 95.4483 888.52 94.723 887.581 93.7843C886.643 92.8456 885.96 91.6936 885.533 90.3283C885.192 88.8776 885.021 87.2563 885.021 85.4643Z" fill="#DEDEDE"/>
<path d="M949.295 98.0083C943.407 98.0083 938.501 97.1976 934.575 95.5763C930.735 93.8696 927.663 91.5656 925.359 88.6643C923.055 85.763 921.434 82.3923 920.495 78.5523C919.557 74.627 919.087 70.4456 919.087 66.0083C919.087 60.8883 919.685 55.8963 920.879 51.0323C922.159 46.083 924.293 41.6883 927.279 37.8483C930.266 34.0083 934.191 30.9363 939.055 28.6323C944.005 26.243 950.149 25.0483 957.487 25.0483C968.239 25.0483 975.919 27.6936 980.527 32.9843C985.221 38.1896 987.567 45.5283 987.567 55.0003C987.567 57.6456 987.354 60.5896 986.927 63.8323C986.586 66.9896 985.861 70.147 984.751 73.3043C983.727 76.4616 982.277 79.5336 980.399 82.5203C978.607 85.507 976.303 88.1523 973.487 90.4563C970.671 92.7603 967.258 94.595 963.247 95.9603C959.322 97.3256 954.671 98.0083 949.295 98.0083ZM955.311 42.0723C952.069 42.0723 949.466 42.9256 947.503 44.6323C945.626 46.2536 944.175 48.259 943.151 50.6483C942.213 52.9523 941.573 55.427 941.231 58.0723C940.975 60.6323 940.847 62.8083 940.847 64.6003C940.847 70.2323 941.743 74.371 943.535 77.0163C945.327 79.6616 947.887 80.9843 951.215 80.9843C954.202 80.9843 956.634 80.0456 958.511 78.1683C960.474 76.291 961.967 74.0296 962.991 71.3843C964.101 68.739 964.826 65.9656 965.167 63.0643C965.594 60.163 965.807 57.731 965.807 55.7683C965.807 51.5016 964.997 48.1736 963.375 45.7843C961.839 43.3096 959.151 42.0723 955.311 42.0723Z" fill="#DEDEDE"/>
<path d="M1039.47 97.8803C1034.18 97.8803 1030.38 96.4723 1028.08 93.6563C1025.78 90.8403 1024.62 86.1896 1024.62 79.7043C1024.62 78.6803 1024.67 77.4003 1024.75 75.8643C1024.92 74.3283 1025.09 72.3656 1025.26 69.9763C1025.52 67.5016 1025.82 64.4723 1026.16 60.8883C1026.5 57.3043 1026.84 52.9523 1027.18 47.8323C1027.61 42.7123 1028.04 36.6963 1028.46 29.7843C1028.98 22.8723 1029.49 14.851 1030 5.72031C1030.08 3.84297 1030.3 2.73364 1030.64 2.3923C1030.9 2.13631 1031.58 2.00831 1032.69 2.00831H1037.68C1040.24 2.00831 1042.37 2.30697 1044.08 2.9043C1045.79 3.50164 1047.15 4.31231 1048.18 5.3363C1049.2 6.36031 1049.92 7.55497 1050.35 8.9203C1050.78 10.2003 1050.99 11.5656 1050.99 13.0163C1050.99 14.723 1050.86 17.1976 1050.61 20.4403C1050.44 23.5976 1050.18 27.1816 1049.84 31.1923C1049.5 35.203 1049.16 39.3843 1048.82 43.7363C1048.47 48.0883 1048.13 52.2696 1047.79 56.2803C1047.45 60.2056 1047.15 63.747 1046.9 66.9043C1046.72 70.0616 1046.64 72.451 1046.64 74.0723C1046.64 76.291 1047.02 77.8696 1047.79 78.8083C1048.64 79.747 1049.54 80.4296 1050.48 80.8563C1051.42 81.1976 1052.27 81.4536 1053.04 81.6243C1053.89 81.7096 1054.32 81.9656 1054.32 82.3923C1054.32 84.2696 1054.11 86.147 1053.68 88.0243C1053.25 89.8163 1052.48 91.4803 1051.38 93.0163C1050.27 94.467 1048.73 95.6616 1046.77 96.6003C1044.89 97.4536 1042.46 97.8803 1039.47 97.8803Z" fill="#DEDEDE"/>
<path d="M1076.43 96.7283C1073.79 96.7283 1071.61 96.4723 1069.9 95.9603C1068.28 95.363 1066.96 94.5523 1065.94 93.5283C1065 92.5043 1064.32 91.267 1063.89 89.8163C1063.55 88.2803 1063.38 86.531 1063.38 84.5683C1063.38 83.2883 1063.42 81.4963 1063.5 79.1923C1063.68 76.803 1063.93 73.5603 1064.27 69.4643C1064.61 65.283 1065 60.035 1065.42 53.7203C1065.94 47.3203 1066.53 39.427 1067.22 30.0403C1067.3 28.163 1067.52 27.0536 1067.86 26.7123C1068.11 26.4563 1068.8 26.3283 1069.9 26.3283H1074.9C1077.54 26.3283 1079.68 26.5843 1081.3 27.0963C1083 27.6083 1084.33 28.3763 1085.26 29.4003C1086.29 30.4243 1086.97 31.6616 1087.31 33.1123C1087.74 34.563 1087.95 36.1843 1087.95 37.9763C1087.95 39.2563 1087.87 41.1763 1087.7 43.7363C1087.53 46.2963 1087.27 49.795 1086.93 54.2323C1086.67 58.5843 1086.29 64.0456 1085.78 70.6163C1085.26 77.1016 1084.62 84.9523 1083.86 94.1683C1083.77 95.1923 1083.56 95.875 1083.22 96.2163C1082.88 96.5576 1082.15 96.7283 1081.04 96.7283H1076.43ZM1067.34 11.2243C1067.34 7.81097 1068.58 5.12298 1071.06 3.16031C1073.53 1.19764 1076.86 0.216309 1081.04 0.216309C1084.71 0.216309 1087.36 0.984306 1088.98 2.5203C1090.68 3.97097 1091.54 5.93364 1091.54 8.4083C1091.54 11.5656 1090.34 14.211 1087.95 16.3443C1085.65 18.3923 1082.24 19.4163 1077.71 19.4163C1070.8 19.4163 1067.34 16.6856 1067.34 11.2243Z" fill="#DEDEDE"/>
<path d="M1121.39 73.6883C1121.14 77.6136 1120.84 81.3683 1120.5 84.9523C1120.16 88.451 1119.9 91.523 1119.73 94.1683C1119.64 95.1923 1119.43 95.875 1119.09 96.2163C1118.75 96.5576 1118.02 96.7283 1116.91 96.7283H1112.3C1109.66 96.7283 1107.48 96.4723 1105.78 95.9603C1104.16 95.363 1102.83 94.5523 1101.81 93.5283C1100.87 92.5043 1100.19 91.267 1099.76 89.8163C1099.42 88.2803 1099.25 86.531 1099.25 84.5683C1099.25 83.2883 1099.29 81.4963 1099.38 79.1923C1099.55 76.803 1099.8 73.5603 1100.14 69.4643C1100.49 65.283 1100.87 60.035 1101.3 53.7203C1101.81 47.3203 1102.41 39.427 1103.09 30.0403C1103.17 28.163 1103.39 27.0536 1103.73 26.7123C1103.98 26.4563 1104.67 26.3283 1105.78 26.3283H1110.77C1113.33 26.3283 1115.42 26.627 1117.04 27.2243C1118.66 27.8216 1119.98 28.5896 1121.01 29.5283C1122.03 30.467 1122.76 31.5763 1123.18 32.8563C1123.61 34.1363 1123.87 35.459 1123.95 36.8243C1126.43 32.2163 1129.24 29.1016 1132.4 27.4803C1135.56 25.859 1139.27 25.0483 1143.54 25.0483C1145.84 25.0483 1148.06 25.2616 1150.19 25.6883C1152.33 26.115 1154.25 26.8403 1155.95 27.8643C1157.66 28.8883 1159.11 30.2536 1160.3 31.9603C1161.5 33.5816 1162.35 35.6723 1162.86 38.2323C1165.51 33.283 1168.41 29.8696 1171.57 27.9923C1174.73 26.0296 1178.69 25.0483 1183.47 25.0483C1186.12 25.0483 1188.64 25.347 1191.02 25.9443C1193.5 26.4563 1195.63 27.395 1197.42 28.7603C1199.22 30.1256 1200.62 32.003 1201.65 34.3923C1202.76 36.6963 1203.31 39.5976 1203.31 43.0963C1203.31 45.7416 1203.18 48.9843 1202.93 52.8243C1202.67 56.6643 1202.37 60.8456 1202.03 65.3683C1201.69 69.8056 1201.31 74.4136 1200.88 79.1923C1200.45 83.8856 1200.11 88.4083 1199.86 92.7603C1199.77 93.699 1199.69 94.4243 1199.6 94.9363C1199.52 95.4483 1199.34 95.8323 1199.09 96.0883C1198.92 96.3443 1198.62 96.515 1198.19 96.6003C1197.77 96.6856 1197.17 96.7283 1196.4 96.7283H1192.3C1189.57 96.7283 1187.36 96.4723 1185.65 95.9603C1183.94 95.4483 1182.62 94.723 1181.68 93.7843C1180.74 92.8456 1180.06 91.6936 1179.63 90.3283C1179.29 88.8776 1179.12 87.2563 1179.12 85.4643C1179.12 84.355 1179.16 82.7763 1179.25 80.7283C1179.42 78.6803 1179.59 76.4616 1179.76 74.0723C1180.02 71.683 1180.23 69.2083 1180.4 66.6483C1180.66 64.0883 1180.87 61.7416 1181.04 59.6083C1181.3 57.3896 1181.47 55.4696 1181.55 53.8483C1181.72 52.227 1181.81 51.1603 1181.81 50.6483C1181.81 48.4296 1181.34 46.467 1180.4 44.7603C1179.55 43.0536 1177.84 42.2003 1175.28 42.2003C1173.06 42.2003 1171.14 42.9256 1169.52 44.3763C1167.9 45.827 1166.53 47.8323 1165.42 50.3923C1164.32 52.9523 1163.42 55.9816 1162.74 59.4803C1162.05 62.979 1161.58 66.7763 1161.33 70.8723C1161.16 73.5176 1160.94 76.547 1160.69 79.9603C1160.43 83.3736 1160.13 87.6403 1159.79 92.7603C1159.71 93.699 1159.62 94.4243 1159.54 94.9363C1159.45 95.4483 1159.28 95.8323 1159.02 96.0883C1158.85 96.3443 1158.56 96.515 1158.13 96.6003C1157.7 96.6856 1157.1 96.7283 1156.34 96.7283H1152.24C1149.51 96.7283 1147.29 96.4723 1145.58 95.9603C1143.88 95.4483 1142.56 94.723 1141.62 93.7843C1140.68 92.8456 1140 91.6936 1139.57 90.3283C1139.23 88.8776 1139.06 87.2563 1139.06 85.4643C1139.06 83.7576 1139.18 81.283 1139.44 78.0403C1139.78 74.7123 1140.08 71.299 1140.34 67.8003C1140.68 64.2163 1140.98 60.8456 1141.23 57.6883C1141.57 54.4456 1141.74 52.099 1141.74 50.6483C1141.74 48.4296 1141.28 46.467 1140.34 44.7603C1139.48 43.0536 1137.78 42.2003 1135.22 42.2003C1132.91 42.2003 1130.95 43.0536 1129.33 44.7603C1127.71 46.467 1126.34 48.771 1125.23 51.6723C1124.21 54.4883 1123.36 57.8163 1122.67 61.6563C1122.08 65.4963 1121.65 69.507 1121.39 73.6883Z" fill="#DEDEDE"/>
<path d="M1227.93 96.7283C1225.29 96.7283 1223.11 96.4723 1221.4 95.9603C1219.78 95.363 1218.46 94.5523 1217.44 93.5283C1216.5 92.5043 1215.82 91.267 1215.39 89.8163C1215.05 88.2803 1214.88 86.531 1214.88 84.5683C1214.88 83.2883 1214.92 81.4963 1215 79.1923C1215.18 76.803 1215.43 73.5603 1215.77 69.4643C1216.11 65.283 1216.5 60.035 1216.92 53.7203C1217.44 47.3203 1218.03 39.427 1218.72 30.0403C1218.8 28.163 1219.02 27.0536 1219.36 26.7123C1219.61 26.4563 1220.3 26.3283 1221.4 26.3283H1226.4C1229.04 26.3283 1231.18 26.5843 1232.8 27.0963C1234.5 27.6083 1235.83 28.3763 1236.76 29.4003C1237.79 30.4243 1238.47 31.6616 1238.81 33.1123C1239.24 34.563 1239.45 36.1843 1239.45 37.9763C1239.45 39.2563 1239.37 41.1763 1239.2 43.7363C1239.03 46.2963 1238.77 49.795 1238.43 54.2323C1238.17 58.5843 1237.79 64.0456 1237.28 70.6163C1236.76 77.1016 1236.12 84.9523 1235.36 94.1683C1235.27 95.1923 1235.06 95.875 1234.72 96.2163C1234.38 96.5576 1233.65 96.7283 1232.54 96.7283H1227.93ZM1218.84 11.2243C1218.84 7.81097 1220.08 5.12298 1222.56 3.16031C1225.03 1.19764 1228.36 0.216309 1232.54 0.216309C1236.21 0.216309 1238.86 0.984306 1240.48 2.5203C1242.18 3.97097 1243.04 5.93364 1243.04 8.4083C1243.04 11.5656 1241.84 14.211 1239.45 16.3443C1237.15 18.3923 1233.74 19.4163 1229.21 19.4163C1222.3 19.4163 1218.84 16.6856 1218.84 11.2243Z" fill="#DEDEDE"/>
<path d="M1278.27 43.6083C1278.01 46.851 1277.71 50.051 1277.37 53.2083C1277.12 56.3656 1276.86 59.3523 1276.6 62.1683C1276.35 64.9843 1276.14 67.5016 1275.96 69.7203C1275.88 71.939 1275.84 73.6456 1275.84 74.8403C1275.84 77.059 1276.09 78.5523 1276.6 79.3203C1277.12 80.003 1277.97 80.3443 1279.16 80.3443C1280.1 80.3443 1280.91 80.1736 1281.6 79.8323C1282.28 79.491 1282.92 79.107 1283.52 78.6803C1284.11 78.2536 1284.63 77.8696 1285.05 77.5283C1285.56 77.187 1286.12 77.0163 1286.72 77.0163C1287.31 77.0163 1287.87 77.3576 1288.38 78.0403C1288.89 78.723 1289.15 80.3016 1289.15 82.7763C1289.15 87.4696 1287.87 91.1816 1285.31 93.9123C1282.75 96.643 1278.35 98.0083 1272.12 98.0083C1265.98 98.0083 1261.42 96.6003 1258.43 93.7843C1255.53 90.883 1254.08 86.4883 1254.08 80.6003C1254.08 79.3203 1254.12 77.827 1254.2 76.1203C1254.38 74.3283 1254.59 72.0243 1254.84 69.2083C1255.1 66.3923 1255.4 62.9363 1255.74 58.8403C1256.17 54.7443 1256.59 49.667 1257.02 43.6083H1250.24C1249.55 43.6083 1249.13 43.4803 1248.96 43.2243C1248.87 42.883 1248.83 42.4136 1248.83 41.8163L1249.21 35.2883C1249.3 34.179 1249.43 33.1123 1249.6 32.0883C1249.85 30.979 1250.28 29.9976 1250.88 29.1443C1251.56 28.291 1252.5 27.6083 1253.69 27.0963C1254.89 26.5843 1256.47 26.3283 1258.43 26.3283C1259.03 24.7923 1259.71 22.9576 1260.48 20.8243C1261.24 18.691 1262.01 16.643 1262.78 14.6803C1263.55 12.6323 1264.27 10.9256 1264.96 9.5603C1265.72 8.19497 1266.41 7.51231 1267 7.51231H1270.72C1274.3 7.51231 1276.78 8.62164 1278.14 10.8403C1279.51 13.059 1280.19 15.7043 1280.19 18.7763C1280.19 20.483 1280.06 23.0003 1279.8 26.3283H1293.24C1294.61 26.3283 1295.29 26.9256 1295.29 28.1203L1294.78 35.0323C1294.61 37.5923 1293.88 39.683 1292.6 41.3043C1291.41 42.8403 1288.89 43.6083 1285.05 43.6083H1278.27Z" fill="#DEDEDE"/>
<path d="M1331.7 25.0483C1338.95 25.0483 1344.28 26.499 1347.7 29.4003C1351.11 32.2163 1352.82 35.843 1352.82 40.2803C1352.82 44.035 1351.62 46.8936 1349.23 48.8563C1346.93 50.819 1343.56 51.8003 1339.12 51.8003C1337.93 51.8003 1337.12 51.6723 1336.69 51.4163C1336.26 51.1603 1336.05 50.691 1336.05 50.0083C1336.05 49.2403 1335.96 48.387 1335.79 47.4483C1335.71 46.4243 1335.41 45.4856 1334.9 44.6323C1334.47 43.6936 1333.75 42.9256 1332.72 42.3283C1331.78 41.731 1330.42 41.4323 1328.63 41.4323C1326.24 41.4323 1324.32 42.0296 1322.87 43.2243C1321.41 44.3336 1320.69 45.7416 1320.69 47.4483C1320.69 49.2403 1321.41 50.691 1322.87 51.8003C1324.4 52.8243 1326.28 53.8056 1328.5 54.7443C1330.8 55.683 1333.28 56.6643 1335.92 57.6883C1338.57 58.627 1341 59.907 1343.22 61.5283C1345.52 63.1496 1347.4 65.1976 1348.85 67.6723C1350.39 70.0616 1351.15 73.1763 1351.15 77.0163C1351.15 83.1603 1348.98 88.195 1344.63 92.1203C1340.27 96.0456 1333.75 98.0083 1325.04 98.0083C1322.65 98.0083 1319.88 97.795 1316.72 97.3683C1313.65 97.027 1310.71 96.4723 1307.89 95.7043C1305.07 94.851 1302.68 93.7416 1300.72 92.3763C1298.84 91.011 1297.91 89.3043 1297.91 87.2563C1297.91 86.4883 1298.03 85.5496 1298.29 84.4403C1298.63 83.331 1299.1 82.2643 1299.7 81.2403C1300.38 80.2163 1301.15 79.363 1302 78.6803C1302.94 77.9123 1304.05 77.5283 1305.33 77.5283C1306.35 77.5283 1307.29 77.7843 1308.15 78.2963C1309 78.8083 1309.98 79.363 1311.09 79.9603C1312.28 80.4723 1313.73 80.9843 1315.44 81.4963C1317.15 82.0083 1319.41 82.2643 1322.23 82.2643C1324.36 82.2643 1326.24 82.0083 1327.86 81.4963C1329.56 80.9843 1330.42 79.8323 1330.42 78.0403C1330.42 76.419 1329.73 75.139 1328.37 74.2003C1327 73.1763 1325.25 72.2376 1323.12 71.3843C1321.07 70.531 1318.81 69.635 1316.34 68.6963C1313.95 67.6723 1311.69 66.3496 1309.55 64.7283C1307.51 63.107 1305.8 61.059 1304.43 58.5843C1303.07 56.0243 1302.39 52.739 1302.39 48.7283C1302.39 44.3763 1303.24 40.707 1304.95 37.7203C1306.74 34.6483 1309 32.1736 1311.73 30.2963C1314.55 28.419 1317.7 27.0963 1321.2 26.3283C1324.7 25.475 1328.2 25.0483 1331.7 25.0483Z" fill="#DEDEDE"/>
<path d="M1372.11 73.9443C1375.69 73.9443 1378.25 74.8403 1379.79 76.6323C1381.33 78.339 1382.09 80.771 1382.09 83.9283C1382.09 85.2083 1381.92 86.7016 1381.58 88.4083C1381.24 90.0296 1380.6 91.5656 1379.66 93.0163C1378.81 94.3816 1377.57 95.5763 1375.95 96.6003C1374.33 97.539 1372.2 98.0083 1369.55 98.0083C1365.63 98.0083 1362.98 97.027 1361.61 95.0643C1360.25 93.0163 1359.57 90.499 1359.57 87.5123C1359.57 85.8056 1359.78 84.1416 1360.21 82.5203C1360.63 80.899 1361.32 79.4483 1362.25 78.1683C1363.19 76.8883 1364.47 75.8643 1366.09 75.0963C1367.72 74.3283 1369.72 73.9443 1372.11 73.9443Z" fill="#DEDEDE"/>
</svg>
