<svg width="32" height="26" viewBox="0 0 32 26" fill="none" xmlns="http://www.w3.org/2000/svg">
<path d="M5.10038 0.946777H27.0587C28.2347 0.946704 29.3662 1.37449 30.221 2.14239C31.0759 2.91028 31.5892 3.96006 31.6558 5.07639L31.6629 5.32422V20.8136C31.663 21.9317 31.213 23.0075 30.4053 23.8202C29.5977 24.633 28.4935 25.121 27.3194 25.1843L27.0587 25.1911H5.10038C3.92435 25.1911 2.79288 24.7633 1.93806 23.9955C1.08324 23.2276 0.569881 22.1778 0.503299 21.0615L0.496216 20.8136V5.32422C0.496139 4.2061 0.946084 3.13034 1.75375 2.31762C2.56142 1.50489 3.66557 1.01681 4.83972 0.953512L5.10038 0.946777ZM29.5379 8.90025L16.5697 15.3115C16.4441 15.3736 16.3067 15.4112 16.1656 15.422C16.0245 15.4329 15.8825 15.4168 15.748 15.3748L15.5894 15.3115L2.62122 8.90025V20.8136C2.62124 21.4052 2.85521 21.9751 3.27668 22.4102C3.69815 22.8454 4.27631 23.114 4.89638 23.1626L5.10038 23.1707H27.0587C27.6811 23.1707 28.2807 22.948 28.7385 22.547C29.1962 22.146 29.4785 21.596 29.5294 21.0062L29.5379 20.8136V8.90025ZM27.0587 2.96713H5.10038C4.4782 2.96716 3.87877 3.1896 3.42108 3.59032C2.96339 3.99104 2.68091 4.54072 2.62972 5.13026L2.62122 5.32422V6.62263L16.0795 13.2763L29.5379 6.62263V5.32422C29.5378 4.73246 29.3037 4.16236 28.8819 3.72718C28.4601 3.292 27.8816 3.02357 27.2613 2.97522L27.0587 2.96713Z" fill="black"/>
</svg>
