<svg width="726" height="934" viewBox="0 0 726 934" fill="none" xmlns="http://www.w3.org/2000/svg">
<path d="M399.462 734.186C434.421 734.186 463.838 729.07 487.713 718.838C512.44 708.606 533.33 697.095 550.384 684.305C567.437 671.515 582.359 660.004 595.149 649.772C608.791 639.54 622.434 634.424 636.076 634.424C653.13 634.424 661.656 647.214 661.656 672.794C661.656 686.437 659.951 703.064 656.54 722.675C653.13 741.434 648.44 762.75 642.471 786.625C639.061 801.12 630.534 816.894 616.891 833.948C604.102 851.001 586.196 867.202 563.174 882.55C540.152 897.045 511.587 909.408 477.481 919.64C444.227 929.02 405.857 933.709 362.371 933.709C318.885 933.709 275.4 927.314 231.914 914.524C188.428 901.734 149.632 879.991 115.525 849.296C81.4186 818.6 53.707 777.246 32.3904 725.233C11.0738 673.221 0.415527 607.992 0.415527 529.547C0.415527 501.409 2.12085 469.008 5.53151 432.343C9.79483 394.826 17.4688 356.456 28.5534 317.233C39.6381 278.011 54.986 239.641 74.5973 202.124C95.0612 163.754 121.067 129.647 152.616 99.8042C184.165 69.9609 222.534 46.0863 267.726 28.1804C313.769 9.4218 368.34 0.0424805 431.437 0.0424805C481.744 0.0424805 525.23 6.01111 561.895 17.9484C599.412 29.8857 630.108 46.5126 653.982 67.8292C678.71 88.2932 696.616 112.594 707.7 140.732C719.637 168.87 725.606 198.713 725.606 230.262C725.606 284.832 709.406 324.907 677.004 350.487C645.456 375.215 600.264 387.578 541.431 387.578C522.672 387.578 510.735 386.299 505.619 383.741C501.356 380.331 499.224 373.936 499.224 364.556C498.371 335.566 497.518 310.412 496.666 289.096C495.813 267.779 492.829 250.299 487.713 236.657C482.597 222.161 474.497 211.929 463.412 205.961C453.18 199.139 438.685 195.729 419.926 195.729C392.641 195.729 369.193 201.697 349.581 213.635C330.823 224.719 314.622 239.641 300.98 258.4C288.19 276.306 277.531 296.77 269.005 319.791C261.331 342.813 254.936 366.262 249.82 390.136C245.556 414.011 242.572 437.033 240.867 459.202C240.014 481.371 239.588 500.556 239.588 516.757C239.588 595.202 252.378 651.051 277.958 684.305C304.39 717.559 344.892 734.186 399.462 734.186Z" fill="#EFEFEF"/>
</svg>
