<svg width="668" height="934" viewBox="0 0 668 934" fill="none" xmlns="http://www.w3.org/2000/svg">
<path d="M341.545 734.227C376.504 734.227 405.921 729.111 429.796 718.879C454.523 708.647 475.413 697.136 492.466 684.346C509.52 671.556 524.441 660.045 537.231 649.813C550.874 639.581 564.516 634.465 578.159 634.465C595.212 634.465 603.739 647.255 603.739 672.835C603.739 686.477 602.034 703.104 598.623 722.716C595.212 741.474 590.523 762.791 584.554 786.665C581.143 801.161 572.617 816.935 558.974 833.988C546.184 851.042 528.278 867.242 505.256 882.59C482.234 897.085 453.67 909.449 419.564 919.681C386.31 929.06 347.94 933.75 304.454 933.75C260.968 933.75 217.482 927.355 173.996 914.565C130.511 901.775 91.7144 880.032 57.6078 849.336C23.5012 818.64 -4.21034 777.286 -25.5269 725.274C-46.8435 673.261 -57.5018 608.032 -57.5018 529.587C-57.5018 501.449 -55.7965 469.048 -52.3858 432.384C-48.1225 394.866 -40.4486 356.497 -29.3639 317.274C-18.2793 278.052 -2.93134 239.682 16.6799 202.164C37.1439 163.795 63.1501 129.688 94.6987 99.8448C126.247 70.0016 164.617 46.127 209.808 28.2211C255.852 9.46245 310.423 0.0831299 373.52 0.0831299C423.827 0.0831299 467.313 6.05176 503.977 17.9891C541.495 29.9263 572.19 46.5533 596.065 67.8699C620.792 88.3338 638.698 112.635 649.783 140.773C661.72 168.911 667.689 198.754 667.689 230.302C667.689 284.873 651.488 324.948 619.087 350.528C587.538 375.255 542.347 387.619 483.513 387.619C464.755 387.619 452.817 386.34 447.701 383.782C443.438 380.371 441.306 373.976 441.306 364.597C440.454 335.606 439.601 310.453 438.748 289.136C437.896 267.82 434.912 250.34 429.796 236.697C424.68 222.202 416.579 211.97 405.495 206.001C395.263 199.18 380.767 195.769 362.009 195.769C334.724 195.769 311.275 201.738 291.664 213.675C272.905 224.76 256.705 239.682 243.062 258.44C230.272 276.346 219.614 296.81 211.087 319.832C203.413 342.854 197.018 366.302 191.902 390.177C187.639 414.051 184.655 437.073 182.949 459.243C182.097 481.412 181.67 500.597 181.67 516.797C181.67 595.242 194.46 651.092 220.04 684.346C246.473 717.6 286.974 734.227 341.545 734.227Z" fill="#EFEFEF"/>
</svg>
