<svg width="665" height="761" viewBox="0 0 665 761" fill="none" xmlns="http://www.w3.org/2000/svg">
<path d="M463.477 641.458C463.477 621.541 464.835 595.738 467.551 564.05C471.172 531.458 474.341 497.507 477.057 462.198C480.678 425.983 483.847 391.127 486.563 357.629C490.185 324.131 491.995 296.065 491.995 273.431C491.995 249.891 486.11 229.068 474.341 210.961C463.476 191.949 441.748 182.442 409.155 182.442C377.468 182.442 351.212 190.138 330.389 205.529C309.566 220.92 291.911 248.986 277.426 289.727C263.845 330.468 252.528 386.6 243.475 458.124C234.421 529.647 225.82 621.541 217.672 733.805C216.767 744.669 214.503 751.912 210.882 755.533C207.26 759.155 199.565 760.966 187.795 760.966H138.906C110.84 760.966 87.7532 758.25 69.6461 752.817C52.4443 746.48 38.4112 737.879 27.547 727.015C17.588 716.151 10.3452 703.023 5.81838 687.632C2.19695 671.335 0.38623 652.775 0.38623 631.952C0.38623 618.372 0.83891 599.359 1.74427 574.915C3.55498 549.565 6.27105 515.161 9.89248 471.704C13.5139 427.341 17.588 371.662 22.1148 304.666C27.547 236.764 33.8844 153.018 41.1273 53.4289C42.0327 33.5111 44.2961 21.7414 47.9175 18.12C50.6336 15.4039 57.8764 14.0459 69.6461 14.0459H122.609C149.77 14.0459 171.951 17.2147 189.153 23.5521C207.26 29.8897 221.746 38.4905 232.61 49.3548C243.475 59.3138 251.17 71.5361 255.697 86.0219C260.224 99.6022 262.94 113.635 263.845 128.121C291.911 80.1369 324.051 47.0914 360.266 28.9843C396.48 9.97181 441.748 0.465576 496.069 0.465576C534.094 0.465576 567.14 4.53968 595.206 12.6879C623.272 20.8361 646.359 34.8691 664.466 54.787C683.478 73.7995 697.511 99.1495 706.565 130.837C715.619 161.619 720.145 200.097 720.145 246.27C720.145 260.756 719.24 281.579 717.429 308.74C715.619 335.9 713.355 365.777 710.639 398.37C707.923 430.058 704.754 463.556 701.133 498.865C698.417 533.268 695.701 565.409 692.984 595.285C690.268 625.162 688.005 651.417 686.194 674.051C684.384 696.685 683.478 711.624 683.478 718.866C683.478 738.784 681.215 751.007 676.688 755.533C672.161 759.155 662.202 760.966 646.811 760.966H603.354C574.383 760.966 550.843 758.25 532.736 752.817C514.629 747.385 500.596 739.69 490.637 729.731C480.678 719.772 473.435 707.549 468.909 693.064C465.287 677.673 463.477 660.471 463.477 641.458Z" fill="#FFAC2F"/>
</svg>
