<svg width="138" height="177" viewBox="0 0 138 177" fill="none" xmlns="http://www.w3.org/2000/svg">
<path d="M76.0836 139.222C82.6906 139.222 88.2502 138.255 92.7623 136.321C97.4356 134.388 101.384 132.212 104.607 129.795C107.83 127.378 110.65 125.202 113.067 123.268C115.645 121.335 118.224 120.368 120.802 120.368C124.025 120.368 125.636 122.785 125.636 127.619C125.636 130.198 125.314 133.34 124.669 137.046C124.025 140.592 123.139 144.62 122.011 149.133C121.366 151.872 119.754 154.853 117.176 158.076C114.759 161.299 111.375 164.361 107.024 167.262C102.673 170.001 97.2744 172.338 90.8285 174.271C84.5438 176.044 77.2922 176.93 69.0737 176.93C60.8552 176.93 52.6367 175.722 44.4181 173.305C36.1996 170.887 28.8674 166.778 22.4216 160.977C15.9757 155.176 10.7384 147.36 6.70971 137.53C2.68103 127.7 0.666687 115.372 0.666687 100.547C0.666687 95.2288 0.988981 89.1052 1.63357 82.1759C2.43931 75.0854 3.88963 67.8338 5.98454 60.421C8.07946 53.0082 10.9801 45.7566 14.6865 38.6661C18.554 31.4145 23.469 24.9686 29.4315 19.3285C35.3939 13.6883 42.6455 9.17619 51.1863 5.79211C59.8883 2.24687 70.2017 0.474243 82.1266 0.474243C91.6343 0.474243 99.8528 1.60227 106.782 3.85833C113.873 6.11439 119.674 9.25676 124.186 13.2854C128.859 17.153 132.243 21.7457 134.338 27.0635C136.594 32.3814 137.722 38.0215 137.722 43.984C137.722 54.2974 134.661 61.8713 128.537 66.7057C122.575 71.379 114.034 73.7156 102.915 73.7156C99.3693 73.7156 97.1133 73.4739 96.1464 72.9905C95.3407 72.3459 94.9378 71.1373 94.9378 69.3647C94.7766 63.8857 94.6155 59.1318 94.4543 55.1031C94.2932 51.0745 93.7292 47.7709 92.7623 45.1926C91.7954 42.4531 90.2645 40.5193 88.1696 39.3913C86.2358 38.1021 83.4963 37.4575 79.9511 37.4575C74.7944 37.4575 70.3628 38.5856 66.6565 40.8416C63.1112 42.9365 60.0494 45.7566 57.4711 49.3018C55.0539 52.6859 53.0395 56.5535 51.4281 60.9044C49.9777 65.2554 48.7691 69.687 47.8022 74.1991C46.9965 78.7112 46.4325 83.0622 46.1102 87.252C45.949 91.4418 45.8685 95.0676 45.8685 98.1294C45.8685 112.955 48.2857 123.51 53.1201 129.795C58.1157 136.08 65.7701 139.222 76.0836 139.222Z" fill="#EFEFEF"/>
</svg>
