<svg width="219" height="480" viewBox="0 0 219 480" fill="none" xmlns="http://www.w3.org/2000/svg">
<path d="M0.696346 5.66782C0.696346 2.90641 2.93493 0.667856 5.69635 0.667856L243.739 0.667877C246.501 0.667877 248.739 2.90643 248.739 5.66788L248.739 197.966C248.739 270.603 234.104 327.928 204.833 369.94C176.162 411.09 127.432 447.531 58.6436 479.264C56.2197 480.382 53.3407 479.382 52.1255 477.005L3.02097 380.965C1.7451 378.469 2.77392 375.413 5.28488 374.168C46.5339 353.716 75.2257 333.264 91.3603 312.811C107.042 293.301 116.208 270.34 118.858 243.928C119.147 241.05 116.85 238.604 113.958 238.604L5.69633 238.604C2.93491 238.604 0.696326 236.365 0.696326 233.604L0.696346 5.66782Z" fill="#57BF55" fill-opacity="0.9"/>
</svg>
