<svg width="151" height="222" viewBox="0 0 151 222" fill="none" xmlns="http://www.w3.org/2000/svg">
<path d="M73.1625 173.925C81.4234 173.925 88.3746 172.716 94.0162 170.298C99.8592 167.88 104.796 165.16 108.825 162.138C112.855 159.116 116.381 156.396 119.403 153.978C122.627 151.56 125.851 150.351 129.074 150.351C133.104 150.351 135.119 153.374 135.119 159.418C135.119 162.642 134.716 166.571 133.91 171.205C133.104 175.638 131.996 180.675 130.586 186.316C129.78 189.742 127.765 193.469 124.541 197.499C121.519 201.528 117.288 205.357 111.848 208.983C106.407 212.409 99.6577 215.33 91.5983 217.748C83.7404 219.964 74.6736 221.072 64.3979 221.072C54.1222 221.072 43.8465 219.561 33.5708 216.539C23.2951 213.517 14.1275 208.379 6.06814 201.125C-1.99124 193.872 -8.53949 184.1 -13.5766 171.809C-18.6137 159.519 -21.1323 144.105 -21.1323 125.569C-21.1323 118.92 -20.7293 111.263 -19.9234 102.599C-18.9159 93.7341 -17.1026 84.6673 -14.4833 75.399C-11.864 66.1307 -8.23727 57.0639 -3.60312 48.1986C1.23251 39.1318 7.37779 31.0724 14.8327 24.0205C22.2876 16.9685 31.3544 11.3269 42.0331 7.09578C52.9133 2.66311 65.8083 0.446777 80.7182 0.446777C92.6058 0.446777 102.881 1.85717 111.545 4.67795C120.411 7.49873 127.664 11.4277 133.306 16.4648C139.149 21.3004 143.38 27.0427 145.999 33.6917C148.82 40.3407 150.23 47.3927 150.23 54.8476C150.23 67.7426 146.402 77.2124 138.746 83.2569C131.291 89.1 120.612 92.0215 106.71 92.0215C102.277 92.0215 99.4562 91.7193 98.2473 91.1148C97.2399 90.3089 96.7362 88.7978 96.7362 86.5814C96.5347 79.731 96.3332 73.7872 96.1317 68.75C95.9302 63.7129 95.2251 59.5825 94.0162 56.3587C92.8072 52.9335 90.8931 50.5157 88.2738 49.1053C85.856 47.4934 82.4308 46.6875 77.9981 46.6875C71.5506 46.6875 66.0098 48.0979 61.3756 50.9187C56.943 53.538 53.1148 57.0639 49.891 61.4966C46.8688 65.7278 44.3502 70.5634 42.3354 76.0035C40.522 81.4436 39.0109 86.9844 37.802 92.626C36.7945 98.2675 36.0893 103.708 35.6864 108.946C35.4849 114.185 35.3841 118.718 35.3841 122.546C35.3841 141.083 38.4064 154.28 44.4509 162.138C50.697 169.996 60.2675 173.925 73.1625 173.925Z" fill="#EFEFEF"/>
</svg>
