<svg width="207" height="113" viewBox="0 0 207 113" fill="none" xmlns="http://www.w3.org/2000/svg">
<path d="M3.31687 2.61748C3.34354 2.40415 3.42354 2.25748 3.55687 2.17748C3.71687 2.07081 3.86354 2.01748 3.99687 2.01748C5.8102 2.01748 7.50354 1.96415 9.07687 1.85748C10.6769 1.72415 11.9302 1.65748 12.8369 1.65748C15.1035 1.65748 16.9969 1.88415 18.5169 2.33748C20.0635 2.79081 21.3035 3.49748 22.2369 4.45748C23.1969 5.41748 23.8769 6.65748 24.2769 8.17748C24.6769 9.69748 24.8769 11.5241 24.8769 13.6575C24.8769 15.8175 24.6502 17.9375 24.1969 20.0175C23.7702 22.0708 23.0102 23.8975 21.9169 25.4975C20.8235 27.0975 19.3435 28.3908 17.4769 29.3775C15.6369 30.3375 13.3035 30.8175 10.4769 30.8175C9.17021 30.8175 7.97021 30.7908 6.87687 30.7375C5.8102 30.6841 4.8902 30.5241 4.11687 30.2575C3.34354 29.9908 2.74354 29.5908 2.31687 29.0575C1.8902 28.5241 1.67687 27.7908 1.67687 26.8575C1.67687 26.5108 1.6902 25.9908 1.71687 25.2975C1.7702 24.6041 1.82354 23.7775 1.87687 22.8175C1.95687 21.8575 2.03687 20.8041 2.11687 19.6575C2.22354 18.4841 2.3302 17.2575 2.43687 15.9775C2.6502 13.3375 2.8102 11.2308 2.91687 9.65748C3.0502 8.08415 3.1302 6.85748 3.15687 5.97748C3.2102 5.07081 3.23687 4.39081 3.23687 3.93748C3.26354 3.48415 3.2902 3.04415 3.31687 2.61748ZM10.7569 24.4975C12.2502 24.4975 13.4369 24.1775 14.3169 23.5375C15.2235 22.8975 15.9169 22.0841 16.3969 21.0975C16.8769 20.1108 17.1969 19.0308 17.3569 17.8575C17.5169 16.6841 17.5969 15.5775 17.5969 14.5375C17.5969 13.4175 17.5169 12.4441 17.3569 11.6175C17.2235 10.7641 16.9702 10.0575 16.5969 9.49748C16.2502 8.93748 15.7569 8.52415 15.1169 8.25748C14.4769 7.96415 13.6769 7.81748 12.7169 7.81748C12.4235 7.81748 12.0502 7.83081 11.5969 7.85748C11.1435 7.88415 10.5969 7.92415 9.95687 7.97748C9.90354 8.96415 9.83687 10.1375 9.75687 11.4975C9.67687 12.8308 9.58354 14.2441 9.47687 15.7375C9.39687 17.2041 9.30354 18.6975 9.19687 20.2175C9.09021 21.7108 8.98354 23.0975 8.87687 24.3775C9.27687 24.4308 9.63687 24.4708 9.95687 24.4975C10.2769 24.4975 10.5435 24.4975 10.7569 24.4975ZM44.8375 17.9775C44.6775 17.9775 44.4908 17.9775 44.2775 17.9775C44.0908 17.9508 43.9042 17.9241 43.7175 17.8975C43.5308 17.8441 43.3708 17.7908 43.2375 17.7375C43.1042 17.6575 43.0375 17.5641 43.0375 17.4575C43.0375 17.1108 43.0508 16.7908 43.0775 16.4975C43.1042 16.2041 43.1175 15.8975 43.1175 15.5775C43.1175 14.9908 43.0375 14.5108 42.8775 14.1375C42.7175 13.7641 42.3975 13.5775 41.9175 13.5775C41.1708 13.5775 40.5442 14.0708 40.0375 15.0575C39.5575 16.0175 39.2508 17.4708 39.1175 19.4175C39.0642 20.2708 38.9842 21.2441 38.8775 22.3375C38.7975 23.4041 38.7175 24.4441 38.6375 25.4575C38.5575 26.4441 38.4908 27.3241 38.4375 28.0975C38.3842 28.8708 38.3575 29.3775 38.3575 29.6175C38.3575 29.8841 38.2642 30.0841 38.0775 30.2175C37.8908 30.3508 37.6908 30.4175 37.4775 30.4175H36.0375C35.2108 30.4175 34.5308 30.3375 33.9975 30.1775C33.4908 29.9908 33.0775 29.7375 32.7575 29.4175C32.4642 29.0975 32.2508 28.7108 32.1175 28.2575C32.0108 27.7775 31.9575 27.2308 31.9575 26.6175C31.9575 26.2175 31.9708 25.6575 31.9975 24.9375C32.0508 24.1908 32.1308 23.1775 32.2375 21.8975C32.3442 20.5908 32.4642 18.9508 32.5975 16.9775C32.7575 14.9775 32.9442 12.5108 33.1575 9.57748C33.2108 8.80415 33.4908 8.41748 33.9975 8.41748H35.5575C36.3042 8.41748 36.9308 8.49748 37.4375 8.65748C37.9442 8.81748 38.3575 9.04415 38.6775 9.33748C38.9975 9.60415 39.2242 9.92415 39.3575 10.2975C39.5175 10.6708 39.6242 11.0575 39.6775 11.4575C39.9975 10.8441 40.3708 10.3241 40.7975 9.89748C41.2508 9.44415 41.7175 9.08415 42.1975 8.81748C42.6775 8.52415 43.1708 8.32415 43.6775 8.21748C44.1842 8.08415 44.6508 8.01748 45.0775 8.01748C45.5842 8.01748 46.0908 8.11081 46.5975 8.29748C47.1308 8.48415 47.6108 8.76415 48.0375 9.13748C48.4642 9.51081 48.7975 9.99081 49.0375 10.5775C49.3042 11.1641 49.4375 11.8575 49.4375 12.6575C49.4375 13.3775 49.3308 14.0575 49.1175 14.6975C48.9042 15.3375 48.5975 15.9108 48.1975 16.4175C47.7975 16.8975 47.3042 17.2841 46.7175 17.5775C46.1575 17.8441 45.5308 17.9775 44.8375 17.9775ZM53.7019 25.4975C53.7019 23.0975 54.7819 21.2175 56.9419 19.8575C59.1019 18.4975 62.2885 17.7641 66.5019 17.6575C66.5285 17.3641 66.5419 17.1241 66.5419 16.9375C66.5685 16.7241 66.5819 16.4708 66.5819 16.1775C66.5819 15.3241 66.4219 14.6441 66.1019 14.1375C65.7819 13.6308 65.1152 13.3775 64.1019 13.3775C63.5419 13.3775 63.0885 13.4575 62.7419 13.6175C62.3952 13.7775 62.1152 14.0041 61.9019 14.2975C61.6885 14.5641 61.5152 14.8975 61.3819 15.2975C61.2485 15.6975 61.1285 16.1375 61.0219 16.6175C60.9685 16.8575 60.8485 17.0175 60.6619 17.0975C60.4752 17.1508 60.1819 17.1775 59.7819 17.1775C57.0619 17.1775 55.7019 16.1508 55.7019 14.0975C55.7019 13.2708 55.8885 12.4841 56.2619 11.7375C56.6619 10.9908 57.2352 10.3508 57.9819 9.81748C58.7552 9.25748 59.7152 8.81748 60.8619 8.49748C62.0085 8.17748 63.3419 8.01748 64.8619 8.01748C67.8219 8.01748 69.9685 8.63081 71.3019 9.85748C72.6352 11.0841 73.3019 12.8175 73.3019 15.0575C73.3019 15.3508 73.2619 15.8841 73.1819 16.6575C73.1285 17.4041 73.0485 18.2041 72.9419 19.0575C72.8619 19.8841 72.7819 20.6708 72.7019 21.4175C72.6485 22.1641 72.6219 22.6841 72.6219 22.9775C72.6219 23.6441 72.7419 24.1241 72.9819 24.4175C73.2219 24.6841 73.4885 24.8708 73.7819 24.9775C74.1019 25.0841 74.3819 25.1641 74.6219 25.2175C74.8619 25.2708 74.9819 25.4041 74.9819 25.6175C74.9819 26.2041 74.9019 26.8041 74.7419 27.4175C74.5819 28.0308 74.3152 28.5908 73.9419 29.0975C73.5952 29.6041 73.1019 30.0175 72.4619 30.3375C71.8485 30.6575 71.0885 30.8175 70.1819 30.8175C68.9019 30.8175 67.9419 30.5108 67.3019 29.8975C66.6619 29.2841 66.2352 28.4308 66.0219 27.3375C65.3819 28.2708 64.5419 29.0841 63.5019 29.7775C62.4885 30.4708 61.1552 30.8175 59.5019 30.8175C58.7019 30.8175 57.9419 30.7241 57.2219 30.5375C56.5285 30.3508 55.9152 30.0441 55.3819 29.6175C54.8752 29.1908 54.4619 28.6441 54.1419 27.9775C53.8485 27.2841 53.7019 26.4575 53.7019 25.4975ZM66.1419 20.9375C65.4485 20.9375 64.7685 20.9908 64.1019 21.0975C63.4352 21.2041 62.8352 21.3775 62.3019 21.6175C61.7952 21.8308 61.3819 22.1241 61.0619 22.4975C60.7419 22.8708 60.5819 23.3241 60.5819 23.8575C60.5819 24.4708 60.7685 24.8975 61.1419 25.1375C61.5419 25.3775 61.9685 25.4975 62.4219 25.4975C62.8485 25.4975 63.2752 25.4041 63.7019 25.2175C64.1285 25.0308 64.5019 24.7508 64.8219 24.3775C65.1685 23.9775 65.4619 23.4975 65.7019 22.9375C65.9419 22.3775 66.0885 21.7108 66.1419 20.9375ZM102.686 26.1375C103.032 24.1908 103.326 22.4975 103.566 21.0575C103.832 19.5908 104.046 18.3241 104.206 17.2575C104.392 16.1908 104.539 15.2708 104.646 14.4975C104.779 13.7241 104.886 13.0441 104.966 12.4575C105.072 11.8441 105.152 11.3108 105.206 10.8575C105.286 10.3775 105.366 9.88415 105.446 9.37748C105.499 9.08415 105.632 8.85748 105.846 8.69748C106.086 8.53748 106.526 8.45748 107.166 8.45748C107.512 8.45748 107.992 8.48415 108.606 8.53748C109.246 8.56415 109.872 8.65748 110.486 8.81748C111.099 8.97748 111.619 9.23081 112.046 9.57748C112.499 9.89748 112.726 10.3508 112.726 10.9375C112.726 11.3641 112.606 12.0041 112.366 12.8575C112.126 13.6841 111.819 14.6441 111.446 15.7375C111.072 16.8308 110.646 18.0041 110.166 19.2575C109.686 20.4841 109.192 21.7108 108.686 22.9375C108.206 24.1375 107.739 25.2841 107.286 26.3775C106.832 27.4708 106.446 28.4175 106.126 29.2175C105.912 29.6975 105.699 30.0175 105.486 30.1775C105.299 30.3375 104.952 30.4175 104.446 30.4175H102.086C101.339 30.4175 100.726 30.3241 100.246 30.1375C99.7656 29.9508 99.379 29.6975 99.0856 29.3775C98.7923 29.0575 98.5656 28.6975 98.4056 28.2975C98.2456 27.8708 98.1256 27.4175 98.0456 26.9375C97.779 25.5775 97.499 23.7508 97.2056 21.4575C96.9123 19.1641 96.6456 16.4575 96.4056 13.3375C96.2723 13.9241 96.1123 14.7108 95.9256 15.6975C95.7656 16.6841 95.579 17.7508 95.3656 18.8975C95.179 20.0441 94.979 21.2175 94.7656 22.4175C94.5523 23.6175 94.3523 24.7375 94.1656 25.7775C93.979 26.7908 93.8056 27.6708 93.6456 28.4175C93.4856 29.1375 93.3523 29.6041 93.2456 29.8175C93.1123 30.0841 92.939 30.2575 92.7256 30.3375C92.539 30.3908 92.259 30.4175 91.8856 30.4175H89.0856C88.3923 30.4175 87.7923 30.3241 87.2856 30.1375C86.8056 29.9241 86.379 29.6575 86.0056 29.3375C85.659 29.0175 85.3656 28.6575 85.1256 28.2575C84.9123 27.8308 84.7523 27.3908 84.6456 26.9375C83.179 21.2308 82.0723 16.9241 81.3256 14.0175C80.6056 11.1108 80.2456 9.55081 80.2456 9.33748C80.2456 9.09748 80.3656 8.88415 80.6056 8.69748C80.8456 8.51081 81.1523 8.41748 81.5256 8.41748C82.6723 8.41748 83.659 8.47081 84.4856 8.57748C85.3123 8.65748 85.9923 8.81748 86.5256 9.05748C87.0856 9.29748 87.5123 9.63081 87.8056 10.0575C88.099 10.4841 88.2856 11.0441 88.3656 11.7375C88.3923 12.1108 88.4456 12.8708 88.5256 14.0175C88.6056 15.1641 88.6856 16.4708 88.7656 17.9375C88.8723 19.3775 88.9656 20.8441 89.0456 22.3375C89.1523 23.8308 89.2456 25.0975 89.3256 26.1375C89.6456 24.4841 89.899 23.1641 90.0856 22.1775C90.299 21.1908 90.4723 20.3641 90.6056 19.6975C90.739 19.0308 90.8456 18.4441 90.9256 17.9375C91.0323 17.4308 91.1523 16.8308 91.2856 16.1375C91.419 15.4441 91.5656 14.5775 91.7256 13.5375C91.9123 12.4975 92.1656 11.1108 92.4856 9.37748C92.5923 8.73748 93.299 8.41748 94.6056 8.41748C95.4323 8.41748 96.2056 8.44415 96.9256 8.49748C97.6456 8.55081 98.2856 8.68415 98.8456 8.89748C99.4056 9.08415 99.8856 9.37748 100.286 9.77748C100.686 10.1508 100.966 10.6708 101.126 11.3375C101.179 11.5241 101.219 11.7108 101.246 11.8975C101.299 12.0841 101.352 12.3508 101.406 12.6975C101.459 13.0441 101.512 13.5241 101.566 14.1375C101.646 14.7508 101.726 15.5775 101.806 16.6175C101.912 17.6575 102.032 18.9508 102.166 20.4975C102.299 22.0441 102.472 23.9241 102.686 26.1375ZM122.92 30.4175C122.094 30.4175 121.414 30.3375 120.88 30.1775C120.374 29.9908 119.96 29.7375 119.64 29.4175C119.347 29.0975 119.134 28.7108 119 28.2575C118.894 27.7775 118.84 27.2308 118.84 26.6175C118.84 26.2175 118.854 25.6575 118.88 24.9375C118.934 24.1908 119.014 23.1775 119.12 21.8975C119.227 20.5908 119.347 18.9508 119.48 16.9775C119.64 14.9775 119.827 12.5108 120.04 9.57748C120.067 8.99081 120.134 8.64415 120.24 8.53748C120.32 8.45748 120.534 8.41748 120.88 8.41748H122.44C123.267 8.41748 123.934 8.49748 124.44 8.65748C124.974 8.81748 125.387 9.05748 125.68 9.37748C126 9.69748 126.214 10.0841 126.32 10.5375C126.454 10.9908 126.52 11.4975 126.52 12.0575C126.52 12.4575 126.494 13.0575 126.44 13.8575C126.387 14.6575 126.307 15.7508 126.2 17.1375C126.12 18.4975 126 20.2041 125.84 22.2575C125.68 24.2841 125.48 26.7375 125.24 29.6175C125.214 29.9375 125.147 30.1508 125.04 30.2575C124.934 30.3641 124.707 30.4175 124.36 30.4175H122.92ZM120.08 3.69748C120.08 2.63081 120.467 1.79081 121.24 1.17748C122.014 0.564147 123.054 0.25748 124.36 0.25748C125.507 0.25748 126.334 0.497479 126.84 0.977478C127.374 1.43081 127.64 2.04415 127.64 2.81748C127.64 3.80414 127.267 4.63081 126.52 5.29748C125.8 5.93748 124.734 6.25748 123.32 6.25748C121.16 6.25748 120.08 5.40415 120.08 3.69748ZM147.69 26.8975C147.69 26.3108 147.73 25.5508 147.81 24.6175C147.917 23.6575 148.01 22.6575 148.09 21.6175C148.197 20.5508 148.29 19.5241 148.37 18.5375C148.477 17.5508 148.53 16.7241 148.53 16.0575C148.53 15.3641 148.357 14.7508 148.01 14.2175C147.69 13.6575 147.05 13.3775 146.09 13.3775C145.157 13.3775 144.384 13.6041 143.77 14.0575C143.157 14.5108 142.637 15.3375 142.21 16.5375C141.81 17.7375 141.477 19.3908 141.21 21.4975C140.944 23.6041 140.69 26.3108 140.45 29.6175C140.424 29.9375 140.357 30.1508 140.25 30.2575C140.144 30.3641 139.917 30.4175 139.57 30.4175H138.13C137.304 30.4175 136.624 30.3375 136.09 30.1775C135.584 29.9908 135.17 29.7375 134.85 29.4175C134.557 29.0975 134.344 28.7108 134.21 28.2575C134.104 27.7775 134.05 27.2308 134.05 26.6175C134.05 26.2175 134.064 25.6575 134.09 24.9375C134.144 24.1908 134.224 23.1775 134.33 21.8975C134.437 20.5908 134.557 18.9508 134.69 16.9775C134.85 14.9775 135.037 12.5108 135.25 9.57748C135.277 8.99081 135.344 8.64415 135.45 8.53748C135.53 8.45748 135.744 8.41748 136.09 8.41748H137.65C138.45 8.41748 139.104 8.51081 139.61 8.69748C140.144 8.88415 140.57 9.13748 140.89 9.45748C141.21 9.75081 141.437 10.1108 141.57 10.5375C141.704 10.9375 141.784 11.3508 141.81 11.7775C142.637 10.3641 143.584 9.39081 144.65 8.85748C145.717 8.29748 147.05 8.01748 148.65 8.01748C149.77 8.01748 150.744 8.13748 151.57 8.37748C152.397 8.61748 153.077 9.03081 153.61 9.61748C154.17 10.1775 154.584 10.9241 154.85 11.8575C155.117 12.7641 155.25 13.8975 155.25 15.2575C155.25 15.6841 155.224 16.2975 155.17 17.0975C155.117 17.8975 155.05 18.7775 154.97 19.7375C154.89 20.6708 154.797 21.6575 154.69 22.6975C154.61 23.7108 154.53 24.6575 154.45 25.5375C154.37 26.4175 154.304 27.1908 154.25 27.8575C154.197 28.5241 154.17 28.9641 154.17 29.1775C154.17 29.7641 154.104 30.1241 153.97 30.2575C153.837 30.3641 153.544 30.4175 153.09 30.4175H151.81C150.957 30.4175 150.264 30.3375 149.73 30.1775C149.197 30.0175 148.784 29.7908 148.49 29.4975C148.197 29.2041 147.984 28.8441 147.85 28.4175C147.744 27.9641 147.69 27.4575 147.69 26.8975ZM175.896 25.6975C175.229 26.8975 174.416 27.7908 173.456 28.3775C172.496 28.9375 171.296 29.2175 169.856 29.2175C168.763 29.2175 167.763 29.0441 166.856 28.6975C165.949 28.3508 165.176 27.8041 164.536 27.0575C163.896 26.3108 163.389 25.3775 163.016 24.2575C162.669 23.1108 162.496 21.7508 162.496 20.1775C162.496 18.8975 162.629 17.5508 162.896 16.1375C163.163 14.6975 163.643 13.3775 164.336 12.1775C165.056 10.9775 166.029 9.99081 167.256 9.21748C168.483 8.41748 170.056 8.01748 171.976 8.01748C172.776 8.01748 173.456 8.11081 174.016 8.29748C174.603 8.45748 175.096 8.68415 175.496 8.97748C175.923 9.27081 176.256 9.61748 176.496 10.0175C176.763 10.4175 176.963 10.8441 177.096 11.2975C177.096 11.3241 177.096 11.2308 177.096 11.0175C177.123 10.7775 177.149 10.5108 177.176 10.2175C177.203 9.92415 177.216 9.64415 177.216 9.37748C177.243 9.08415 177.256 8.89748 177.256 8.81748C177.283 8.55081 177.456 8.41748 177.776 8.41748H179.616C181.003 8.41748 182.003 8.71081 182.616 9.29748C183.256 9.85748 183.576 10.9375 183.576 12.5375C183.576 12.7508 183.563 13.2441 183.536 14.0175C183.509 14.7641 183.456 15.6708 183.376 16.7375C183.323 17.8041 183.243 18.9908 183.136 20.2975C183.029 21.5775 182.909 22.8708 182.776 24.1775C182.643 25.4841 182.496 26.7375 182.336 27.9375C182.176 29.1375 182.003 30.1908 181.816 31.0975C181.629 32.0041 181.309 32.8841 180.856 33.7375C180.403 34.5908 179.763 35.3508 178.936 36.0175C178.109 36.6841 177.043 37.2175 175.736 37.6175C174.456 38.0175 172.883 38.2175 171.016 38.2175C169.603 38.2175 168.363 38.0841 167.296 37.8175C166.256 37.5508 165.389 37.1908 164.696 36.7375C164.003 36.3108 163.469 35.8175 163.096 35.2575C162.749 34.6975 162.576 34.1375 162.576 33.5775C162.576 33.0708 162.683 32.6308 162.896 32.2575C163.109 31.8841 163.389 31.5775 163.736 31.3375C164.083 31.0975 164.456 30.9108 164.856 30.7775C165.283 30.6708 165.683 30.6175 166.056 30.6175C166.509 30.6175 166.843 30.7508 167.056 31.0175C167.269 31.2841 167.509 31.5775 167.776 31.8975C168.043 32.2441 168.416 32.5508 168.896 32.8175C169.376 33.0841 170.123 33.2175 171.136 33.2175C172.896 33.2175 174.123 32.5641 174.816 31.2575C175.536 29.9775 175.896 28.1241 175.896 25.6975ZM172.536 23.8975C173.496 23.8975 174.243 23.6708 174.776 23.2175C175.336 22.7641 175.763 22.2175 176.056 21.5775C176.349 20.9375 176.536 20.2708 176.616 19.5775C176.696 18.8841 176.736 18.2841 176.736 17.7775C176.736 16.1775 176.483 15.0441 175.976 14.3775C175.496 13.6841 174.763 13.3375 173.776 13.3375C172.789 13.3375 172.016 13.6041 171.456 14.1375C170.896 14.6708 170.469 15.3108 170.176 16.0575C169.909 16.7775 169.736 17.5108 169.656 18.2575C169.576 18.9775 169.536 19.5375 169.536 19.9375C169.536 21.2708 169.763 22.2708 170.216 22.9375C170.669 23.5775 171.443 23.8975 172.536 23.8975ZM22.7169 67.1375C23.0635 65.1908 23.3569 63.4975 23.5969 62.0575C23.8635 60.5908 24.0769 59.3241 24.2369 58.2575C24.4235 57.1908 24.5702 56.2708 24.6769 55.4975C24.8102 54.7241 24.9169 54.0441 24.9969 53.4575C25.1035 52.8441 25.1835 52.3108 25.2369 51.8575C25.3169 51.3775 25.3969 50.8841 25.4769 50.3775C25.5302 50.0841 25.6635 49.8575 25.8769 49.6975C26.1169 49.5375 26.5569 49.4575 27.1969 49.4575C27.5435 49.4575 28.0235 49.4841 28.6369 49.5375C29.2769 49.5641 29.9035 49.6575 30.5169 49.8175C31.1302 49.9775 31.6502 50.2308 32.0769 50.5775C32.5302 50.8975 32.7569 51.3508 32.7569 51.9375C32.7569 52.3641 32.6369 53.0041 32.3969 53.8575C32.1569 54.6841 31.8502 55.6441 31.4769 56.7375C31.1035 57.8308 30.6769 59.0041 30.1969 60.2575C29.7169 61.4841 29.2235 62.7108 28.7169 63.9375C28.2369 65.1375 27.7702 66.2841 27.3169 67.3775C26.8635 68.4708 26.4769 69.4175 26.1569 70.2175C25.9435 70.6975 25.7302 71.0175 25.5169 71.1775C25.3302 71.3375 24.9835 71.4175 24.4769 71.4175H22.1169C21.3702 71.4175 20.7569 71.3241 20.2769 71.1375C19.7969 70.9508 19.4102 70.6975 19.1169 70.3775C18.8235 70.0575 18.5969 69.6975 18.4369 69.2975C18.2769 68.8708 18.1569 68.4175 18.0769 67.9375C17.8102 66.5775 17.5302 64.7508 17.2369 62.4575C16.9435 60.1641 16.6769 57.4575 16.4369 54.3375C16.3035 54.9241 16.1435 55.7108 15.9569 56.6975C15.7969 57.6841 15.6102 58.7508 15.3969 59.8975C15.2102 61.0441 15.0102 62.2175 14.7969 63.4175C14.5835 64.6175 14.3835 65.7375 14.1969 66.7775C14.0102 67.7908 13.8369 68.6708 13.6769 69.4175C13.5169 70.1375 13.3835 70.6041 13.2769 70.8175C13.1435 71.0841 12.9702 71.2575 12.7569 71.3375C12.5702 71.3908 12.2902 71.4175 11.9169 71.4175H9.11687C8.42354 71.4175 7.82354 71.3241 7.31687 71.1375C6.83687 70.9241 6.41021 70.6575 6.03687 70.3375C5.6902 70.0175 5.39687 69.6575 5.15687 69.2575C4.94354 68.8308 4.78354 68.3908 4.67687 67.9375C3.2102 62.2308 2.10354 57.9241 1.35687 55.0175C0.636871 52.1108 0.276871 50.5508 0.276871 50.3375C0.276871 50.0975 0.396871 49.8841 0.636871 49.6975C0.876871 49.5108 1.18354 49.4175 1.55687 49.4175C2.70354 49.4175 3.6902 49.4708 4.51687 49.5775C5.34354 49.6575 6.02354 49.8175 6.55687 50.0575C7.11687 50.2975 7.54354 50.6308 7.83687 51.0575C8.1302 51.4841 8.31687 52.0441 8.39687 52.7375C8.42354 53.1108 8.47687 53.8708 8.55687 55.0175C8.63687 56.1641 8.71687 57.4708 8.79687 58.9375C8.90354 60.3775 8.99687 61.8441 9.07687 63.3375C9.18354 64.8308 9.27687 66.0975 9.35687 67.1375C9.67687 65.4841 9.93021 64.1641 10.1169 63.1775C10.3302 62.1908 10.5035 61.3641 10.6369 60.6975C10.7702 60.0308 10.8769 59.4441 10.9569 58.9375C11.0635 58.4308 11.1835 57.8308 11.3169 57.1375C11.4502 56.4441 11.5969 55.5775 11.7569 54.5375C11.9435 53.4975 12.1969 52.1108 12.5169 50.3775C12.6235 49.7375 13.3302 49.4175 14.6369 49.4175C15.4635 49.4175 16.2369 49.4441 16.9569 49.4975C17.6769 49.5508 18.3169 49.6841 18.8769 49.8975C19.4369 50.0841 19.9169 50.3775 20.3169 50.7775C20.7169 51.1508 20.9969 51.6708 21.1569 52.3375C21.2102 52.5241 21.2502 52.7108 21.2769 52.8975C21.3302 53.0841 21.3835 53.3508 21.4369 53.6975C21.4902 54.0441 21.5435 54.5241 21.5969 55.1375C21.6769 55.7508 21.7569 56.5775 21.8369 57.6175C21.9435 58.6575 22.0635 59.9508 22.1969 61.4975C22.3302 63.0441 22.5035 64.9241 22.7169 67.1375ZM42.9516 71.4175C42.1249 71.4175 41.4449 71.3375 40.9116 71.1775C40.4049 70.9908 39.9916 70.7375 39.6716 70.4175C39.3782 70.0975 39.1649 69.7108 39.0316 69.2575C38.9249 68.7775 38.8716 68.2308 38.8716 67.6175C38.8716 67.2175 38.8849 66.6575 38.9116 65.9375C38.9649 65.1908 39.0449 64.1775 39.1516 62.8975C39.2582 61.5908 39.3782 59.9508 39.5116 57.9775C39.6716 55.9775 39.8582 53.5108 40.0716 50.5775C40.0982 49.9908 40.1649 49.6441 40.2716 49.5375C40.3516 49.4575 40.5649 49.4175 40.9116 49.4175H42.4716C43.2982 49.4175 43.9649 49.4975 44.4716 49.6575C45.0049 49.8175 45.4182 50.0575 45.7116 50.3775C46.0316 50.6975 46.2449 51.0841 46.3516 51.5375C46.4849 51.9908 46.5516 52.4975 46.5516 53.0575C46.5516 53.4575 46.5249 54.0575 46.4716 54.8575C46.4182 55.6575 46.3382 56.7508 46.2316 58.1375C46.1516 59.4975 46.0316 61.2041 45.8716 63.2575C45.7116 65.2841 45.5116 67.7375 45.2716 70.6175C45.2449 70.9375 45.1782 71.1508 45.0716 71.2575C44.9649 71.3641 44.7382 71.4175 44.3916 71.4175H42.9516ZM40.1116 44.6975C40.1116 43.6308 40.4982 42.7908 41.2716 42.1775C42.0449 41.5641 43.0849 41.2575 44.3916 41.2575C45.5382 41.2575 46.3649 41.4975 46.8716 41.9775C47.4049 42.4308 47.6716 43.0441 47.6716 43.8175C47.6716 44.8041 47.2982 45.6308 46.5516 46.2975C45.8316 46.9375 44.7649 47.2575 43.3516 47.2575C41.1916 47.2575 40.1116 46.4041 40.1116 44.6975ZM62.6816 54.8175C62.6016 55.8308 62.5082 56.8308 62.4016 57.8175C62.3216 58.8041 62.2416 59.7375 62.1616 60.6175C62.0816 61.4975 62.0149 62.2841 61.9616 62.9775C61.9349 63.6708 61.9216 64.2041 61.9216 64.5775C61.9216 65.2708 62.0016 65.7375 62.1616 65.9775C62.3216 66.1908 62.5882 66.2975 62.9616 66.2975C63.2549 66.2975 63.5082 66.2441 63.7216 66.1375C63.9349 66.0308 64.1349 65.9108 64.3216 65.7775C64.5082 65.6441 64.6682 65.5241 64.8016 65.4175C64.9616 65.3108 65.1349 65.2575 65.3216 65.2575C65.5082 65.2575 65.6816 65.3641 65.8416 65.5775C66.0016 65.7908 66.0816 66.2841 66.0816 67.0575C66.0816 68.5241 65.6816 69.6841 64.8816 70.5375C64.0816 71.3908 62.7082 71.8175 60.7616 71.8175C58.8416 71.8175 57.4149 71.3775 56.4816 70.4975C55.5749 69.5908 55.1216 68.2175 55.1216 66.3775C55.1216 65.9775 55.1349 65.5108 55.1616 64.9775C55.2149 64.4175 55.2816 63.6975 55.3616 62.8175C55.4416 61.9375 55.5349 60.8575 55.6416 59.5775C55.7749 58.2975 55.9082 56.7108 56.0416 54.8175H53.9216C53.7082 54.8175 53.5749 54.7775 53.5216 54.6975C53.4949 54.5908 53.4816 54.4441 53.4816 54.2575L53.6016 52.2175C53.6282 51.8708 53.6682 51.5375 53.7216 51.2175C53.8016 50.8708 53.9349 50.5641 54.1216 50.2975C54.3349 50.0308 54.6282 49.8175 55.0016 49.6575C55.3749 49.4975 55.8682 49.4175 56.4816 49.4175C56.6682 48.9375 56.8816 48.3641 57.1216 47.6975C57.3616 47.0308 57.6016 46.3908 57.8416 45.7775C58.0816 45.1375 58.3082 44.6041 58.5216 44.1775C58.7616 43.7508 58.9749 43.5375 59.1616 43.5375H60.3216C61.4416 43.5375 62.2149 43.8841 62.6416 44.5775C63.0682 45.2708 63.2816 46.0975 63.2816 47.0575C63.2816 47.5908 63.2416 48.3775 63.1616 49.4175H67.3616C67.7882 49.4175 68.0016 49.6041 68.0016 49.9775L67.8416 52.1375C67.7882 52.9375 67.5616 53.5908 67.1616 54.0975C66.7882 54.5775 66.0016 54.8175 64.8016 54.8175H62.6816ZM87.3381 66.4575C87.4181 65.5775 87.4981 64.6575 87.5781 63.6975C87.6848 62.7375 87.7648 61.8175 87.8181 60.9375C87.8981 60.0575 87.9648 59.2708 88.0181 58.5775C88.0715 57.8841 88.0981 57.3775 88.0981 57.0575C88.0981 56.3641 87.9248 55.7508 87.5781 55.2175C87.2581 54.6575 86.6181 54.3775 85.6581 54.3775C84.3781 54.3775 83.3381 54.9775 82.5381 56.1775C81.7648 57.3775 81.3115 58.9775 81.1781 60.9775C81.1248 61.5375 81.0581 62.3241 80.9781 63.3375C80.8981 64.3241 80.8181 65.3375 80.7381 66.3775C80.6581 67.3908 80.5781 68.3108 80.4981 69.1375C80.4448 69.9375 80.4181 70.4308 80.4181 70.6175C80.4181 70.9375 80.3515 71.1508 80.2181 71.2575C80.1115 71.3641 79.8848 71.4175 79.5381 71.4175H78.0981C77.2715 71.4175 76.5915 71.3375 76.0581 71.1775C75.5515 70.9908 75.1381 70.7375 74.8181 70.4175C74.5248 70.0975 74.3115 69.7108 74.1781 69.2575C74.0715 68.7775 74.0181 68.2308 74.0181 67.6175C74.0181 67.0308 74.0581 66.2175 74.1381 65.1775C74.2448 64.1108 74.3781 62.6575 74.5381 60.8175C74.6981 58.9508 74.8848 56.5775 75.0981 53.6975C75.3115 50.8175 75.5381 47.2441 75.7781 42.9775C75.8048 42.3908 75.8715 42.0441 75.9781 41.9375C76.0581 41.8575 76.2715 41.8175 76.6181 41.8175H78.1781C78.9781 41.8175 79.6448 41.9108 80.1781 42.0975C80.7115 42.2841 81.1381 42.5375 81.4581 42.8575C81.7781 43.1775 82.0048 43.5508 82.1381 43.9775C82.2715 44.3775 82.3381 44.8041 82.3381 45.2575C82.3381 45.7375 82.2848 46.6308 82.1781 47.9375C82.0981 49.2441 81.9915 50.7775 81.8581 52.5375C82.6581 51.2041 83.5381 50.2841 84.4981 49.7775C85.4848 49.2708 86.7248 49.0175 88.2181 49.0175C89.3381 49.0175 90.3115 49.1375 91.1381 49.3775C91.9648 49.6175 92.6448 50.0308 93.1781 50.6175C93.7381 51.1775 94.1515 51.9241 94.4181 52.8575C94.6848 53.7641 94.8181 54.8975 94.8181 56.2575C94.8181 56.6841 94.7781 57.4175 94.6981 58.4575C94.6181 59.4975 94.5115 60.6841 94.3781 62.0175C94.2715 63.3508 94.1515 64.7508 94.0181 66.2175C93.9115 67.6575 93.8181 68.9775 93.7381 70.1775C93.7115 70.4708 93.6848 70.6975 93.6581 70.8575C93.6315 71.0175 93.5781 71.1375 93.4981 71.2175C93.4448 71.2975 93.3515 71.3508 93.2181 71.3775C93.0848 71.4041 92.8981 71.4175 92.6581 71.4175H91.3781C90.5248 71.4175 89.8315 71.3375 89.2981 71.1775C88.7648 71.0175 88.3515 70.7908 88.0581 70.4975C87.7648 70.2041 87.5515 69.8441 87.4181 69.4175C87.3115 68.9641 87.2581 68.4575 87.2581 67.8975C87.2581 67.6308 87.2581 67.3775 87.2581 67.1375C87.2848 66.8975 87.3115 66.6708 87.3381 66.4575ZM14.9169 108.897C14.9169 108.311 14.9569 107.551 15.0369 106.617C15.1435 105.657 15.2369 104.657 15.3169 103.617C15.4235 102.551 15.5169 101.524 15.5969 100.537C15.7035 99.5508 15.7569 98.7241 15.7569 98.0575C15.7569 97.3641 15.5835 96.7508 15.2369 96.2175C14.9169 95.6575 14.2769 95.3775 13.3169 95.3775C12.3835 95.3775 11.6102 95.6041 10.9969 96.0575C10.3835 96.5108 9.86354 97.3375 9.43687 98.5375C9.03687 99.7375 8.70354 101.391 8.43687 103.497C8.17021 105.604 7.91687 108.311 7.67687 111.617C7.6502 111.937 7.58354 112.151 7.47687 112.257C7.3702 112.364 7.14354 112.417 6.79687 112.417H5.35687C4.5302 112.417 3.8502 112.337 3.31687 112.177C2.8102 111.991 2.39687 111.737 2.07687 111.417C1.78354 111.097 1.5702 110.711 1.43687 110.257C1.3302 109.777 1.27687 109.231 1.27687 108.617C1.27687 108.217 1.2902 107.657 1.31687 106.937C1.3702 106.191 1.4502 105.177 1.55687 103.897C1.66354 102.591 1.78354 100.951 1.91687 98.9775C2.07687 96.9775 2.26354 94.5108 2.47687 91.5775C2.50354 90.9908 2.5702 90.6441 2.67687 90.5375C2.75687 90.4575 2.9702 90.4175 3.31687 90.4175H4.87687C5.67687 90.4175 6.33021 90.5108 6.83687 90.6975C7.3702 90.8841 7.79687 91.1375 8.11687 91.4575C8.43687 91.7508 8.66354 92.1108 8.79687 92.5375C8.93021 92.9375 9.01021 93.3508 9.03687 93.7775C9.86354 92.3641 10.8102 91.3908 11.8769 90.8575C12.9435 90.2975 14.2769 90.0175 15.8769 90.0175C16.9969 90.0175 17.9702 90.1375 18.7969 90.3775C19.6235 90.6175 20.3035 91.0308 20.8369 91.6175C21.3969 92.1775 21.8102 92.9241 22.0769 93.8575C22.3435 94.7641 22.4769 95.8975 22.4769 97.2575C22.4769 97.6841 22.4502 98.2975 22.3969 99.0975C22.3435 99.8975 22.2769 100.777 22.1969 101.737C22.1169 102.671 22.0235 103.657 21.9169 104.697C21.8369 105.711 21.7569 106.657 21.6769 107.537C21.5969 108.417 21.5302 109.191 21.4769 109.857C21.4235 110.524 21.3969 110.964 21.3969 111.177C21.3969 111.764 21.3302 112.124 21.1969 112.257C21.0635 112.364 20.7702 112.417 20.3169 112.417H19.0369C18.1835 112.417 17.4902 112.337 16.9569 112.177C16.4235 112.017 16.0102 111.791 15.7169 111.497C15.4235 111.204 15.2102 110.844 15.0769 110.417C14.9702 109.964 14.9169 109.457 14.9169 108.897ZM39.0025 112.817C37.1625 112.817 35.6292 112.564 34.4025 112.057C33.2025 111.524 32.2425 110.804 31.5225 109.897C30.8025 108.991 30.2958 107.937 30.0025 106.737C29.7092 105.511 29.5625 104.204 29.5625 102.817C29.5625 101.217 29.7492 99.6575 30.1225 98.1375C30.5225 96.5908 31.1892 95.2175 32.1225 94.0175C33.0558 92.8175 34.2825 91.8575 35.8025 91.1375C37.3492 90.3908 39.2692 90.0175 41.5625 90.0175C44.9225 90.0175 47.3225 90.8441 48.7625 92.4975C50.2292 94.1241 50.9625 96.4175 50.9625 99.3775C50.9625 100.204 50.8958 101.124 50.7625 102.137C50.6558 103.124 50.4292 104.111 50.0825 105.097C49.7625 106.084 49.3092 107.044 48.7225 107.977C48.1625 108.911 47.4425 109.737 46.5625 110.457C45.6825 111.177 44.6158 111.751 43.3625 112.177C42.1358 112.604 40.6825 112.817 39.0025 112.817ZM40.8825 95.3375C39.8692 95.3375 39.0558 95.6041 38.4425 96.1375C37.8558 96.6441 37.4025 97.2708 37.0825 98.0175C36.7892 98.7375 36.5892 99.5108 36.4825 100.337C36.4025 101.137 36.3625 101.817 36.3625 102.377C36.3625 104.137 36.6425 105.431 37.2025 106.257C37.7625 107.084 38.5625 107.497 39.6025 107.497C40.5358 107.497 41.2958 107.204 41.8825 106.617C42.4958 106.031 42.9625 105.324 43.2825 104.497C43.6292 103.671 43.8558 102.804 43.9625 101.897C44.0958 100.991 44.1625 100.231 44.1625 99.6175C44.1625 98.2841 43.9092 97.2441 43.4025 96.4975C42.9225 95.7241 42.0825 95.3375 40.8825 95.3375ZM75.1825 112.777C73.5292 112.777 72.3425 112.337 71.6225 111.457C70.9025 110.577 70.5425 109.124 70.5425 107.097C70.5425 106.777 70.5558 106.377 70.5825 105.897C70.6358 105.417 70.6892 104.804 70.7425 104.057C70.8225 103.284 70.9158 102.337 71.0225 101.217C71.1292 100.097 71.2358 98.7375 71.3425 97.1375C71.4758 95.5375 71.6092 93.6575 71.7425 91.4975C71.9025 89.3375 72.0625 86.8308 72.2225 83.9775C72.2492 83.3908 72.3158 83.0441 72.4225 82.9375C72.5025 82.8575 72.7158 82.8175 73.0625 82.8175H74.6225C75.4225 82.8175 76.0892 82.9108 76.6225 83.0975C77.1558 83.2841 77.5825 83.5375 77.9025 83.8575C78.2225 84.1775 78.4492 84.5508 78.5825 84.9775C78.7158 85.3775 78.7825 85.8041 78.7825 86.2575C78.7825 86.7908 78.7425 87.5641 78.6625 88.5775C78.6092 89.5641 78.5292 90.6841 78.4225 91.9375C78.3158 93.1908 78.2092 94.4975 78.1025 95.8575C77.9958 97.2175 77.8892 98.5241 77.7825 99.7775C77.6758 101.004 77.5825 102.111 77.5025 103.097C77.4492 104.084 77.4225 104.831 77.4225 105.337C77.4225 106.031 77.5425 106.524 77.7825 106.817C78.0492 107.111 78.3292 107.324 78.6225 107.457C78.9158 107.564 79.1825 107.644 79.4225 107.697C79.6892 107.724 79.8225 107.804 79.8225 107.937C79.8225 108.524 79.7558 109.111 79.6225 109.697C79.4892 110.257 79.2492 110.777 78.9025 111.257C78.5558 111.711 78.0758 112.084 77.4625 112.377C76.8758 112.644 76.1158 112.777 75.1825 112.777ZM90.7328 112.417C89.9061 112.417 89.2261 112.337 88.6928 112.177C88.1861 111.991 87.7728 111.737 87.4528 111.417C87.1595 111.097 86.9461 110.711 86.8128 110.257C86.7061 109.777 86.6528 109.231 86.6528 108.617C86.6528 108.217 86.6661 107.657 86.6928 106.937C86.7461 106.191 86.8261 105.177 86.9328 103.897C87.0395 102.591 87.1595 100.951 87.2928 98.9775C87.4528 96.9775 87.6395 94.5108 87.8528 91.5775C87.8795 90.9908 87.9461 90.6441 88.0528 90.5375C88.1328 90.4575 88.3461 90.4175 88.6928 90.4175H90.2528C91.0795 90.4175 91.7461 90.4975 92.2528 90.6575C92.7861 90.8175 93.1995 91.0575 93.4928 91.3775C93.8128 91.6975 94.0261 92.0841 94.1328 92.5375C94.2661 92.9908 94.3328 93.4975 94.3328 94.0575C94.3328 94.4575 94.3061 95.0575 94.2528 95.8575C94.1995 96.6575 94.1195 97.7508 94.0128 99.1375C93.9328 100.497 93.8128 102.204 93.6528 104.257C93.4928 106.284 93.2928 108.737 93.0528 111.617C93.0261 111.937 92.9595 112.151 92.8528 112.257C92.7461 112.364 92.5195 112.417 92.1728 112.417H90.7328ZM87.8928 85.6975C87.8928 84.6308 88.2795 83.7908 89.0528 83.1775C89.8261 82.5641 90.8661 82.2575 92.1728 82.2575C93.3195 82.2575 94.1461 82.4975 94.6528 82.9775C95.1861 83.4308 95.4528 84.0441 95.4528 84.8175C95.4528 85.8041 95.0795 86.6308 94.3328 87.2975C93.6128 87.9375 92.5461 88.2575 91.1328 88.2575C88.9728 88.2575 87.8928 87.4041 87.8928 85.6975ZM108.783 105.217C108.703 106.444 108.609 107.617 108.503 108.737C108.396 109.831 108.316 110.791 108.263 111.617C108.236 111.937 108.169 112.151 108.063 112.257C107.956 112.364 107.729 112.417 107.383 112.417H105.943C105.116 112.417 104.436 112.337 103.903 112.177C103.396 111.991 102.983 111.737 102.663 111.417C102.369 111.097 102.156 110.711 102.023 110.257C101.916 109.777 101.863 109.231 101.863 108.617C101.863 108.217 101.876 107.657 101.903 106.937C101.956 106.191 102.036 105.177 102.143 103.897C102.249 102.591 102.369 100.951 102.503 98.9775C102.663 96.9775 102.849 94.5108 103.063 91.5775C103.089 90.9908 103.156 90.6441 103.263 90.5375C103.343 90.4575 103.556 90.4175 103.903 90.4175H105.463C106.263 90.4175 106.916 90.5108 107.423 90.6975C107.929 90.8841 108.343 91.1241 108.663 91.4175C108.983 91.7108 109.209 92.0575 109.343 92.4575C109.476 92.8575 109.556 93.2708 109.583 93.6975C110.356 92.2575 111.236 91.2841 112.223 90.7775C113.209 90.2708 114.369 90.0175 115.703 90.0175C116.423 90.0175 117.116 90.0841 117.783 90.2175C118.449 90.3508 119.049 90.5775 119.583 90.8975C120.116 91.2175 120.569 91.6441 120.943 92.1775C121.316 92.6841 121.583 93.3375 121.743 94.1375C122.569 92.5908 123.476 91.5241 124.463 90.9375C125.449 90.3241 126.689 90.0175 128.183 90.0175C129.009 90.0175 129.796 90.1108 130.543 90.2975C131.316 90.4575 131.983 90.7508 132.543 91.1775C133.103 91.6041 133.543 92.1908 133.863 92.9375C134.209 93.6575 134.383 94.5641 134.383 95.6575C134.383 96.4841 134.343 97.4975 134.263 98.6975C134.183 99.8975 134.089 101.204 133.983 102.617C133.876 104.004 133.756 105.444 133.623 106.937C133.489 108.404 133.383 109.817 133.303 111.177C133.276 111.471 133.249 111.697 133.223 111.857C133.196 112.017 133.143 112.137 133.063 112.217C133.009 112.297 132.916 112.351 132.783 112.377C132.649 112.404 132.463 112.417 132.223 112.417H130.943C130.089 112.417 129.396 112.337 128.863 112.177C128.329 112.017 127.916 111.791 127.623 111.497C127.329 111.204 127.116 110.844 126.983 110.417C126.876 109.964 126.823 109.457 126.823 108.897C126.823 108.551 126.836 108.057 126.863 107.417C126.916 106.777 126.969 106.084 127.023 105.337C127.103 104.591 127.169 103.817 127.223 103.017C127.303 102.217 127.369 101.484 127.423 100.817C127.503 100.124 127.556 99.5241 127.583 99.0175C127.636 98.5108 127.663 98.1775 127.663 98.0175C127.663 97.3241 127.516 96.7108 127.223 96.1775C126.956 95.6441 126.423 95.3775 125.623 95.3775C124.929 95.3775 124.329 95.6041 123.823 96.0575C123.316 96.5108 122.889 97.1375 122.543 97.9375C122.196 98.7375 121.916 99.6841 121.703 100.777C121.489 101.871 121.343 103.057 121.263 104.337C121.209 105.164 121.143 106.111 121.063 107.177C120.983 108.244 120.889 109.577 120.783 111.177C120.756 111.471 120.729 111.697 120.703 111.857C120.676 112.017 120.623 112.137 120.543 112.217C120.489 112.297 120.396 112.351 120.263 112.377C120.129 112.404 119.943 112.417 119.703 112.417H118.423C117.569 112.417 116.876 112.337 116.343 112.177C115.809 112.017 115.396 111.791 115.103 111.497C114.809 111.204 114.596 110.844 114.463 110.417C114.356 109.964 114.303 109.457 114.303 108.897C114.303 108.364 114.343 107.591 114.423 106.577C114.529 105.537 114.623 104.471 114.703 103.377C114.809 102.257 114.903 101.204 114.983 100.217C115.089 99.2041 115.143 98.4708 115.143 98.0175C115.143 97.3241 114.996 96.7108 114.703 96.1775C114.436 95.6441 113.903 95.3775 113.103 95.3775C112.383 95.3775 111.769 95.6441 111.263 96.1775C110.756 96.7108 110.329 97.4308 109.983 98.3375C109.663 99.2175 109.396 100.257 109.183 101.457C108.996 102.657 108.863 103.911 108.783 105.217ZM146.077 112.417C145.25 112.417 144.57 112.337 144.037 112.177C143.53 111.991 143.117 111.737 142.797 111.417C142.503 111.097 142.29 110.711 142.157 110.257C142.05 109.777 141.997 109.231 141.997 108.617C141.997 108.217 142.01 107.657 142.037 106.937C142.09 106.191 142.17 105.177 142.277 103.897C142.383 102.591 142.503 100.951 142.637 98.9775C142.797 96.9775 142.983 94.5108 143.197 91.5775C143.223 90.9908 143.29 90.6441 143.397 90.5375C143.477 90.4575 143.69 90.4175 144.037 90.4175H145.597C146.423 90.4175 147.09 90.4975 147.597 90.6575C148.13 90.8175 148.543 91.0575 148.837 91.3775C149.157 91.6975 149.37 92.0841 149.477 92.5375C149.61 92.9908 149.677 93.4975 149.677 94.0575C149.677 94.4575 149.65 95.0575 149.597 95.8575C149.543 96.6575 149.463 97.7508 149.357 99.1375C149.277 100.497 149.157 102.204 148.997 104.257C148.837 106.284 148.637 108.737 148.397 111.617C148.37 111.937 148.303 112.151 148.197 112.257C148.09 112.364 147.863 112.417 147.517 112.417H146.077ZM143.237 85.6975C143.237 84.6308 143.623 83.7908 144.397 83.1775C145.17 82.5641 146.21 82.2575 147.517 82.2575C148.663 82.2575 149.49 82.4975 149.997 82.9775C150.53 83.4308 150.797 84.0441 150.797 84.8175C150.797 85.8041 150.423 86.6308 149.677 87.2975C148.957 87.9375 147.89 88.2575 146.477 88.2575C144.317 88.2575 143.237 87.4041 143.237 85.6975ZM165.807 95.8175C165.727 96.8308 165.633 97.8308 165.527 98.8175C165.447 99.8041 165.367 100.737 165.287 101.617C165.207 102.497 165.14 103.284 165.087 103.977C165.06 104.671 165.047 105.204 165.047 105.577C165.047 106.271 165.127 106.737 165.287 106.977C165.447 107.191 165.713 107.297 166.087 107.297C166.38 107.297 166.633 107.244 166.847 107.137C167.06 107.031 167.26 106.911 167.447 106.777C167.633 106.644 167.793 106.524 167.927 106.417C168.087 106.311 168.26 106.257 168.447 106.257C168.633 106.257 168.807 106.364 168.967 106.577C169.127 106.791 169.207 107.284 169.207 108.057C169.207 109.524 168.807 110.684 168.007 111.537C167.207 112.391 165.833 112.817 163.887 112.817C161.967 112.817 160.54 112.377 159.607 111.497C158.7 110.591 158.247 109.217 158.247 107.377C158.247 106.977 158.26 106.511 158.287 105.977C158.34 105.417 158.407 104.697 158.487 103.817C158.567 102.937 158.66 101.857 158.767 100.577C158.9 99.2975 159.033 97.7108 159.167 95.8175H157.047C156.833 95.8175 156.7 95.7775 156.647 95.6975C156.62 95.5908 156.607 95.4441 156.607 95.2575L156.727 93.2175C156.753 92.8708 156.793 92.5375 156.847 92.2175C156.927 91.8708 157.06 91.5641 157.247 91.2975C157.46 91.0308 157.753 90.8175 158.127 90.6575C158.5 90.4975 158.993 90.4175 159.607 90.4175C159.793 89.9375 160.007 89.3641 160.247 88.6975C160.487 88.0308 160.727 87.3908 160.967 86.7775C161.207 86.1375 161.433 85.6041 161.647 85.1775C161.887 84.7508 162.1 84.5375 162.287 84.5375H163.447C164.567 84.5375 165.34 84.8841 165.767 85.5775C166.193 86.2708 166.407 87.0975 166.407 88.0575C166.407 88.5908 166.367 89.3775 166.287 90.4175H170.487C170.913 90.4175 171.127 90.6041 171.127 90.9775L170.967 93.1375C170.913 93.9375 170.687 94.5908 170.287 95.0975C169.913 95.5775 169.127 95.8175 167.927 95.8175H165.807ZM186.503 90.0175C188.77 90.0175 190.436 90.4708 191.503 91.3775C192.57 92.2575 193.103 93.3908 193.103 94.7775C193.103 95.9508 192.73 96.8441 191.983 97.4575C191.263 98.0708 190.21 98.3775 188.823 98.3775C188.45 98.3775 188.196 98.3375 188.063 98.2575C187.93 98.1775 187.863 98.0308 187.863 97.8175C187.863 97.5775 187.836 97.3108 187.783 97.0175C187.756 96.6975 187.663 96.4041 187.503 96.1375C187.37 95.8441 187.143 95.6041 186.823 95.4175C186.53 95.2308 186.103 95.1375 185.543 95.1375C184.796 95.1375 184.196 95.3241 183.743 95.6975C183.29 96.0441 183.063 96.4841 183.063 97.0175C183.063 97.5775 183.29 98.0308 183.743 98.3775C184.223 98.6975 184.81 99.0041 185.503 99.2975C186.223 99.5908 186.996 99.8975 187.823 100.217C188.65 100.511 189.41 100.911 190.103 101.417C190.823 101.924 191.41 102.564 191.863 103.337C192.343 104.084 192.583 105.057 192.583 106.257C192.583 108.177 191.903 109.751 190.543 110.977C189.183 112.204 187.143 112.817 184.423 112.817C183.676 112.817 182.81 112.751 181.823 112.617C180.863 112.511 179.943 112.337 179.063 112.097C178.183 111.831 177.436 111.484 176.823 111.057C176.236 110.631 175.943 110.097 175.943 109.457C175.943 109.217 175.983 108.924 176.063 108.577C176.17 108.231 176.316 107.897 176.503 107.577C176.716 107.257 176.956 106.991 177.223 106.777C177.516 106.537 177.863 106.417 178.263 106.417C178.583 106.417 178.876 106.497 179.143 106.657C179.41 106.817 179.716 106.991 180.063 107.177C180.436 107.337 180.89 107.497 181.423 107.657C181.956 107.817 182.663 107.897 183.543 107.897C184.21 107.897 184.796 107.817 185.303 107.657C185.836 107.497 186.103 107.137 186.103 106.577C186.103 106.071 185.89 105.671 185.463 105.377C185.036 105.057 184.49 104.764 183.823 104.497C183.183 104.231 182.476 103.951 181.703 103.657C180.956 103.337 180.25 102.924 179.583 102.417C178.943 101.911 178.41 101.271 177.983 100.497C177.556 99.6975 177.343 98.6708 177.343 97.4175C177.343 96.0575 177.61 94.9108 178.143 93.9775C178.703 93.0175 179.41 92.2441 180.263 91.6575C181.143 91.0708 182.13 90.6575 183.223 90.4175C184.316 90.1508 185.41 90.0175 186.503 90.0175ZM203.132 105.297C204.252 105.297 205.052 105.577 205.532 106.137C206.012 106.671 206.252 107.431 206.252 108.417C206.252 108.817 206.199 109.284 206.092 109.817C205.986 110.324 205.786 110.804 205.492 111.257C205.226 111.684 204.839 112.057 204.332 112.377C203.826 112.671 203.159 112.817 202.332 112.817C201.106 112.817 200.279 112.511 199.852 111.897C199.426 111.257 199.212 110.471 199.212 109.537C199.212 109.004 199.279 108.484 199.412 107.977C199.546 107.471 199.759 107.017 200.052 106.617C200.346 106.217 200.746 105.897 201.252 105.657C201.759 105.417 202.386 105.297 203.132 105.297Z" fill="#B5B5B5"/>
</svg>
