<svg width="215" height="185" viewBox="0 0 215 185" fill="none" xmlns="http://www.w3.org/2000/svg">
<rect x="187.591" y="126.809" width="62.4941" height="148.064" transform="rotate(129.834 187.591 126.809)" fill="#FFE458"/>
<path fill-rule="evenodd" clip-rule="evenodd" d="M67.9572 93.7832C65.9861 93.7948 64.0425 93.9939 63.6383 94.2253C62.6799 94.7741 62.4532 95.9347 63.1862 96.5391C63.5051 96.8021 65.0023 96.9697 66.5128 96.9117L69.2596 96.8058L69.0938 98.1248L68.928 99.4437L66.5608 99.7109C63.7257 100.031 62.5642 100.486 62.1874 101.423C61.9953 101.901 62.1595 102.331 62.7079 102.783C63.3246 103.291 64.053 103.342 65.8672 103.004C69.1595 102.391 69.6559 102.543 70.7281 104.491C72.1072 106.998 76.8782 110.797 79.5622 111.527C83.9461 112.719 84.9776 112.137 86.6476 110.905C90.1077 108.354 90.099 103.253 86.6269 98.5168C83.2382 93.8934 76.2336 91.2677 72.5348 93.2339C71.9884 93.5244 69.9288 93.7716 67.9572 93.7832ZM81.2072 77.8441C80.0479 77.7072 78.5415 77.7884 77.8595 78.025C76.3452 78.5497 76.0457 78.8826 76.1459 79.9278C76.2604 81.1179 76.7223 81.3328 78.6917 81.1122C79.6664 81.0032 80.5379 80.975 80.6288 81.0499C80.7194 81.1246 80.6228 81.6874 80.414 82.3C80.0551 83.353 79.8896 83.4346 77.4096 83.7862C74.4149 84.2106 73.183 84.7743 72.996 85.8055C72.7541 87.1408 74.078 87.644 76.6145 87.1807C79.9925 86.5635 80.1998 86.6491 81.3866 89.1487C82.2938 91.0594 82.707 91.5318 85.3745 93.709C87.7611 95.6569 88.7687 96.2734 90.4631 96.8228C92.7621 97.5676 96.5115 97.6184 98.0803 96.9257C106.089 93.3891 101.44 80.8915 91.0308 77.9755C89.6618 77.5921 87.8955 77.506 86.1057 77.7353C84.5708 77.932 82.3666 77.9808 81.2072 77.8441ZM97.3687 93.2769C95.331 94.7793 91.105 93.9552 88.0871 91.4669C87.1833 90.7217 86.5276 90.0207 86.63 89.9098C86.732 89.7986 87.5718 89.584 88.4957 89.433C90.7767 89.0606 94.4272 87.3291 95.3884 86.1639C96.1636 85.2242 96.1889 85.2252 97.0654 86.2238C99.0345 88.4671 99.1838 91.9386 97.3687 93.2769ZM84.4564 108.152C83.0589 108.834 80.389 108.346 78.0285 106.978C75.4468 105.481 75.2444 104.893 77.1801 104.512C78.9055 104.172 81.934 102.482 82.887 101.326C83.5726 100.495 83.6402 100.497 84.3677 101.39C86.2495 103.699 86.296 107.255 84.4564 108.152Z" fill="black"/>
<path d="M16.2886 5.67334C4.80871 5.67334 5.76846 11.01 5.76846 21.4536C5.76846 29.5181 3.78749 37.9803 9.66481 43.8576C19.5584 53.7512 19.7953 38.3642 19.7953 31.9737C19.7953 23.3147 18.9867 15.521 16.2886 7.4267" stroke="black" stroke-width="10" stroke-linecap="round"/>
<path d="M21.5488 16.1935C29.0659 16.1935 37.329 19.9875 37.329 28.467C37.329 37.492 24.4207 36.7501 21.5488 42.4939" stroke="black" stroke-width="10" stroke-linecap="round"/>
<path d="M16.2886 119.526C4.80871 119.526 5.76846 124.862 5.76846 135.306C5.76846 143.37 3.78749 151.832 9.66481 157.71C19.5584 167.603 19.7953 152.216 19.7953 145.826C19.7953 137.167 18.9867 129.373 16.2886 121.279" stroke="black" stroke-width="10" stroke-linecap="round"/>
<path d="M21.5488 130.046C29.0659 130.046 37.329 133.84 37.329 142.319C37.329 151.344 24.4207 150.602 21.5488 156.346" stroke="black" stroke-width="10" stroke-linecap="round"/>
<path d="M45.9767 95.7486C60.704 82.1305 66.9513 61.9146 81.5893 48.379" stroke="black" stroke-width="10" stroke-linecap="round"/>
<path d="M42.4529 96.2655C58.4585 113.575 74.4688 131.099 91.236 147.42C93.8943 150.008 93.9582 150.827 96.9387 148.071C99.5413 145.664 103.527 142.152 104.658 138.712C105.866 135.033 111.213 127.467 114.049 124.844C116.241 122.817 119.597 114.027 122.432 117.093C126.667 121.673 132.111 124.357 136.209 128.789C138.438 131.199 142.274 132.145 144.45 134.498C145.462 135.592 149.416 139.197 150.798 139.406C153.671 139.839 159.887 146.387 161.979 148.649" stroke="black" stroke-width="10" stroke-linecap="round"/>
<path d="M82.7988 46.5692C89.8468 54.1911 96.8947 61.8131 103.943 69.4351C107.119 72.8704 110.296 76.3056 113.472 79.7409C115.842 82.303 116.207 81.3941 118.634 79.1496C122.334 75.7289 125.486 70.5853 128.105 66.2763C131.182 61.2153 134.027 55.5342 137.574 50.8163C138.276 49.8825 140.555 43.128 141.987 44.6774C144.059 46.9175 145.418 52.975 145.755 55.9304C146.72 64.3978 148.813 73.3323 150.995 81.554C153.714 91.8003 156.057 102.087 159.071 112.255C161.609 120.818 162.85 129.7 165.749 138.142C168.438 145.972 169.306 154.43 172.651 161.83" stroke="black" stroke-width="10" stroke-linecap="round"/>
<path d="M151.807 139.286C158.465 146.487 165.879 151.921 172.75 159.351" stroke="black" stroke-width="10" stroke-linecap="round"/>
<path d="M98.4409 113.809C101.892 110.155 104.879 107.643 105.99 102.792C106.249 101.663 104.891 98.1809 105.612 98.6113C108.028 100.054 110.43 100.634 113.229 100.555" stroke="black" stroke-width="7" stroke-linecap="round"/>
<path d="M38.874 27.1907C54.666 27.1907 70.5582 24.0861 87.0361 25.0015C93.501 25.3607 101.812 33.2077 103.394 38.7447C104.474 42.5235 103.455 47.8825 103.455 51.819C103.455 56.6537 102.189 58.1812 100.171 62.2176" stroke="black" stroke-width="10" stroke-linecap="round"/>
<path d="M38.874 143.217C47.8146 143.217 54.4611 152.474 62.955 151.974C70.0318 151.558 71.6665 136.673 76.0901 134.461" stroke="black" stroke-width="10" stroke-linecap="round"/>
</svg>
