<svg width="174" height="190" viewBox="0 0 174 190" fill="none" xmlns="http://www.w3.org/2000/svg">
<ellipse cx="130.909" cy="40.0759" rx="33.7903" ry="28.584" transform="rotate(-24.3691 130.909 40.0759)" fill="#D9D9D9"/>
<rect x="0.905273" y="90.8384" width="69.1376" height="102.673" transform="rotate(-15.2337 0.905273 90.8384)" fill="#D9D9D9"/>
<rect x="15.3623" y="98.8726" width="46.7114" height="64.396" transform="rotate(-18.1898 15.3623 98.8726)" fill="white"/>
<path d="M9.18945 82.0667L33.4484 177.916" stroke="black" stroke-opacity="0.8" stroke-width="5" stroke-linecap="round"/>
<path d="M7.32896 82.5377C12.9423 81.1169 18.013 77.8532 23.6082 76.4371C28.7264 75.1417 33.8445 73.8463 38.9627 72.5509C49.0342 70.0019 59.6652 68.3014 69.4418 65.827" stroke="black" stroke-opacity="0.8" stroke-width="5" stroke-linecap="round"/>
<path d="M34.6146 178.611C52.5103 174.081 69.7444 167.739 87.1862 163.325" stroke="black" stroke-opacity="0.8" stroke-width="5" stroke-linecap="round"/>
<path d="M70.6072 66.5221C74.5924 82.2676 79.6137 98.1949 83.6673 114.211C85.6381 121.998 86.5339 129.449 88.5071 137.246C89.7786 142.269 95.7777 156.201 92.2985 160.05" stroke="black" stroke-opacity="0.8" stroke-width="5" stroke-linecap="round"/>
<path d="M19.4604 91.3494C24.5294 111.377 30.4369 130.806 35.4646 150.671" stroke="black" stroke-opacity="0.8" stroke-width="5" stroke-linecap="round"/>
<path d="M36.6309 151.365C43.7653 149.56 50.8996 147.754 58.034 145.948C61.6012 145.046 65.1684 144.143 68.7356 143.24C71.8852 142.443 74.6584 143.518 77.5761 141.002" stroke="black" stroke-opacity="0.8" stroke-width="5" stroke-linecap="round"/>
<path d="M25.0441 89.9362C37.1568 86.8705 48.3068 83.0583 60.1704 80.0557" stroke="black" stroke-opacity="0.8" stroke-width="5" stroke-linecap="round"/>
<path d="M66.0122 87.4888C68.1831 96.0663 72.1694 103.992 74.3503 112.608C76.5877 121.449 78.8252 130.289 81.0627 139.13" stroke="black" stroke-opacity="0.8" stroke-width="5" stroke-linecap="round"/>
<path d="M105.234 42.2559C102.777 42.2559 102.364 42.3499 101.242 44.3693C100.606 45.5136 98.9852 49.6554 100.303 50.7096C104.034 53.6948 105.234 46.2355 105.234 44.1345C105.234 41.0628 104.944 46.5326 105.469 46.9524C106.368 47.6718 105.901 48.831 107.582 48.831C108.924 48.831 108.472 48.0252 109.226 47.422C112.483 44.8168 107.889 40.0638 105.234 39.9076C103.718 39.8184 101.456 38.3014 99.8333 39.2032C98.9554 39.6909 98.3173 40.0408 97.6155 40.7426C97.0432 41.3148 97.0029 42.3598 96.5457 42.7255C95.436 43.6133 95.8412 47.9333 95.8412 49.3006C95.8412 51.5157 96.3037 52.3723 97.8242 53.8928C99.1256 55.1942 100.867 54.9364 102.651 54.9364C103.667 54.9364 104.178 55.4648 105.234 55.4061C106.345 55.3444 107.231 54.2652 108.261 53.971C111.656 53.0009 109.674 45.7127 108.991 43.6648" stroke="black" stroke-opacity="0.8" stroke-width="2" stroke-linecap="round"/>
<path d="M117.606 30.5344C118.253 32.9639 118.05 36.22 118.175 38.7673C118.278 40.8516 117.571 43.4044 118.334 45.3682" stroke="black" stroke-opacity="0.8" stroke-width="2" stroke-linecap="round"/>
<path d="M122.932 29.9758C123.941 32.5733 123.769 36.472 123.636 39.276C123.555 40.9642 125.334 44.8385 124.17 46.1228" stroke="black" stroke-opacity="0.8" stroke-width="2" stroke-linecap="round"/>
<path d="M113.958 37.9995C118.403 36.2715 122.534 34.1616 126.92 32.4567" stroke="black" stroke-opacity="0.8" stroke-width="2" stroke-linecap="round"/>
<path d="M113.811 44.103L127.819 38.6577" stroke="black" stroke-opacity="0.8" stroke-width="2" stroke-linecap="round"/>
<path d="M139.693 22.0803C136.836 22.0803 133.008 25.1238 132.648 28.1858C132.428 30.0587 132.658 30.534 134.996 30.534C136.624 30.534 138.194 30.6262 139.693 29.96C140.632 29.5425 142.98 28.0567 142.98 30.2992C142.98 31.9393 142.739 33.0423 141.467 34.1869C140.303 35.2349 134.735 37.9961 133.587 35.7002" stroke="black" stroke-opacity="0.8" stroke-width="2" stroke-linecap="round"/>
<path d="M133.587 21.6111C138.167 26.7634 138.214 33.683 141.102 39.4578" stroke="black" stroke-opacity="0.8" stroke-width="2" stroke-linecap="round"/>
<path d="M84.2407 55.4106C84.2407 60.5953 83.1284 66.1527 83.1284 70.9831C83.1284 73.9122 95.8566 68.2234 97.5885 67.6461" stroke="black" stroke-opacity="0.8" stroke-width="3" stroke-linecap="round"/>
<path d="M83.5424 55.0621C83.3624 53.4426 81.9185 52.2748 81.9185 50.5964C81.9185 48.8372 81.9185 47.078 81.9185 45.3188C81.9185 41.8277 82.1933 39.7385 83.5424 36.7031C88.0814 26.4903 98.9264 17.6296 107.901 11.3974C117.08 5.02305 129.286 4.72144 139.973 4.72144C143.192 4.72144 147.989 7.70219 149.49 10.4051C151.406 13.853 155.033 17.319 155.76 21.3212C157.361 30.1265 159 39.3802 154.813 47.7546C150.796 55.7882 144.332 60.9485 135.958 63.9935C122.824 68.7695 108.914 73.0594 96.5335 64.8055" stroke="black" stroke-opacity="0.8" stroke-width="3" stroke-linecap="round"/>
</svg>
