<svg width="142" height="113" viewBox="0 0 142 113" fill="none" xmlns="http://www.w3.org/2000/svg">
<rect x="11.7314" y="0.286621" width="127.333" height="100.086" fill="#D9D9D9"/>
<rect x="9.11328" y="22.9204" width="59.2917" height="54.6702" transform="rotate(-5.63347 9.11328 22.9204)" fill="white"/>
<rect x="81.0449" y="28.2402" width="41.2093" height="60.3699" transform="rotate(-5.63347 81.0449 28.2402)" fill="white"/>
<path d="M2.93555 12.2766C2.93555 44.7548 4.97631 77.8952 4.97631 110.233" stroke="black" stroke-opacity="0.8" stroke-width="5" stroke-linecap="round"/>
<path d="M2.93555 12.2766C15.4304 12.2766 27.9631 11.2562 40.1794 11.2562C50.8649 11.2562 61.2563 8.19507 71.8112 8.19507C92.7289 8.19507 113.647 8.19507 134.564 8.19507" stroke="black" stroke-opacity="0.8" stroke-width="5" stroke-linecap="round"/>
<path d="M10.0781 23.5007C10.0781 33.0521 11.0985 42.7763 11.0985 52.5815C11.0985 61.7793 13.1393 70.7869 13.1393 79.6216" stroke="black" stroke-opacity="0.8" stroke-width="5" stroke-linecap="round"/>
<path d="M10.0781 23.5007C30.9585 23.5007 50.4072 19.4192 71.3009 19.4192" stroke="black" stroke-opacity="0.8" stroke-width="5" stroke-linecap="round"/>
<path d="M70.2812 20.4397C70.2812 29.2713 73.3424 37.4703 73.3424 46.9696C73.3424 56.1443 74.3628 65.8997 74.3628 74.5198" stroke="black" stroke-opacity="0.8" stroke-width="5" stroke-linecap="round"/>
<path d="M73.3422 75.54C53.2411 75.54 34.1734 81.6623 14.1602 81.6623" stroke="black" stroke-opacity="0.8" stroke-width="5" stroke-linecap="round"/>
<path d="M78.4434 21.46C78.4434 27.5208 80.4841 33.4609 80.4841 39.8268C80.4841 43.0607 81.3385 46.0227 81.5045 49.0102C81.6527 51.6787 80.6387 55.7353 81.7312 58.1936C83.7139 62.6546 83.2755 71.7041 83.5453 76.5604C83.8749 82.4942 85.586 87.7441 85.586 93.9069" stroke="black" stroke-opacity="0.8" stroke-width="5" stroke-linecap="round"/>
<path d="M77.4238 20.4397C93.2028 20.4397 107.29 18.3989 123.341 18.3989" stroke="black" stroke-opacity="0.8" stroke-width="5" stroke-linecap="round"/>
<path d="M126.401 19.4192C126.401 31.7799 129.463 43.7259 129.463 56.1528C129.463 62.6153 129.463 69.0777 129.463 75.5401C129.463 78.8205 127.851 92.591 130.483 93.9069" stroke="black" stroke-opacity="0.8" stroke-width="5" stroke-linecap="round"/>
<path d="M84.5664 94.9272H127.422" stroke="black" stroke-opacity="0.8" stroke-width="5" stroke-linecap="round"/>
<path d="M23.7511 38.6368C26.3084 38.6368 30.8741 38.5436 32.5617 36.4341C34.0774 34.5394 37.7937 32.4693 40.0507 32.4693C42.7947 32.4693 46.2605 30.1042 49.106 32.6651C51.4007 34.7303 53.0891 36.8746 56.3502 36.8746C63.8553 36.8746 65.0706 44.8996 63.4476 50.58C62.0476 55.4802 57.6865 61.3915 55.2734 65.9496C52.3581 71.4561 42.3532 70.9247 40.5401 64.579C38.8809 58.7719 28.6524 67.7117 25.5132 67.7117C21.1703 67.7117 21.1079 63.4352 21.1079 60.2227C21.1079 56.797 23.5605 55.615 25.5132 53.1742C28.1323 49.9004 27.6155 47.5433 24.4364 45C21.1569 42.3764 23.0496 39.5178 27.2753 39.5178" stroke="black" stroke-opacity="0.8" stroke-width="3" stroke-linecap="round"/>
<path d="M90.2397 48.3772C90.759 43.7039 103.037 43.0377 103.037 48.9589C103.037 52.1404 101.194 65.8836 104.847 66.9273C110.561 68.5599 114.672 62.5143 114.672 57.6846C114.672 49.283 116.245 47.2138 125.142 47.2138" stroke="black" stroke-opacity="0.8" stroke-width="3" stroke-linecap="round"/>
<path d="M3.12402 109.518C25.6124 109.518 46.0608 106.309 68.9089 106.309C91.8815 106.309 115.44 104.705 137.903 104.705" stroke="black" stroke-opacity="0.8" stroke-width="5" stroke-linecap="round"/>
<path d="M137.145 7.63867C137.145 40.391 139.497 72.3375 139.497 105.256" stroke="black" stroke-opacity="0.8" stroke-width="5" stroke-linecap="round"/>
<path fill-rule="evenodd" clip-rule="evenodd" d="M49.6911 43.3599C50.385 42.5282 51.1489 41.7738 51.3884 41.6833C51.9561 41.4688 52.5274 41.7784 52.5274 42.3005C52.5274 42.5276 52.0751 43.221 51.5224 43.8411L50.5173 44.9687L51.1345 45.3595L51.7516 45.7503L52.6924 44.8401C53.8192 43.7499 54.4181 43.4164 54.9474 43.5844C55.2172 43.6701 55.3418 43.8898 55.3418 44.2804C55.3418 44.7196 55.1088 45.0463 54.3312 45.6972C52.9202 46.8787 52.811 47.1422 53.2624 48.278C53.8429 49.7389 53.786 53.0901 53.1572 54.4832C52.1301 56.7587 51.5224 56.9923 50.4166 57.2699C48.1253 57.845 45.9658 56.0583 45.1713 52.9303C44.3958 49.8772 45.7312 45.9895 47.8579 45.1086C48.1721 44.9786 48.9969 44.1917 49.6911 43.3599ZM38.3012 43.4055C38.6484 42.8661 39.2094 42.2558 39.5482 42.0494C40.3 41.5908 40.5459 41.5802 40.954 41.9881C41.4185 42.4526 41.3482 42.7236 40.5662 43.4815C40.1792 43.8566 39.8626 44.2163 39.8626 44.281C39.8626 44.3455 40.135 44.5013 40.4677 44.627C41.0396 44.8429 41.1321 44.8013 42.1481 43.8727C43.3749 42.7514 44.0446 42.4261 44.5471 42.7073C45.1979 43.0716 44.9484 43.8088 43.8653 44.7222C42.4227 45.9387 42.3865 46.0565 43.0314 47.4335C43.5243 48.4861 43.5802 48.8265 43.5707 50.7185C43.5623 52.4114 43.4714 53.0541 43.112 53.9646C42.6241 55.1997 41.3349 56.8071 40.4928 57.2301C36.1936 59.3893 32.52 53.0493 34.9227 47.6165C35.2387 46.902 35.8197 46.123 36.5426 45.4443C37.1625 44.8624 37.9538 43.9449 38.3012 43.4055ZM39.1945 55.6528C40.5439 55.3141 41.6718 53.2342 41.6718 51.0848C41.6718 50.4411 41.6039 49.918 41.5211 49.9227C41.4382 49.9271 41.0537 50.2081 40.6667 50.5471C39.7114 51.3839 37.7011 52.3264 36.8711 52.3266C36.2016 52.3268 36.1932 52.3378 36.3102 53.0585C36.5729 54.6776 37.9926 55.9545 39.1945 55.6528ZM50.0153 55.3784C50.7929 55.0242 51.5194 53.7217 51.7645 52.2425C52.0327 50.6249 51.8537 50.3332 51.0155 51.0207C50.2684 51.6336 48.4931 52.3268 47.6699 52.3268C47.0777 52.3268 47.0552 52.3563 47.1794 52.9769C47.5003 54.5817 48.9919 55.8448 50.0153 55.3784Z" fill="black"/>
</svg>
