<svg width="186" height="207" viewBox="0 0 186 207" fill="none" xmlns="http://www.w3.org/2000/svg">
<rect x="57.9243" y="13.7666" width="119.721" height="159.924" transform="rotate(18.7834 57.9243 13.7666)" fill="#D9D9D9"/>
<rect x="62.4712" y="29.1902" width="97.8068" height="118.445" transform="rotate(18.9762 62.4712 29.1902)" fill="white"/>
<path d="M61.4541 7.65991C50.0679 33.9796 38.6818 60.2993 27.2956 86.619C19.5164 104.601 13.5396 123.376 5.80199 141.262" stroke="black" stroke-opacity="0.8" stroke-width="5" stroke-linecap="round"/>
<path d="M60.5508 7.26899C70.8114 11.7078 81.6131 14.2355 92.0528 18.7518" stroke="black" stroke-opacity="0.8" stroke-width="5" stroke-linecap="round"/>
<path d="M95.0576 9.3252C92.1825 15.9711 92.1477 23.49 89.3643 29.9239C85.808 38.1445 94.2416 40.0786 100.438 42.759C113.465 48.3947 126.009 48.4581 138.985 54.0719" stroke="black" stroke-opacity="0.8" stroke-width="5" stroke-linecap="round"/>
<path d="M94.5376 8.04935C97.9642 9.53172 101.555 8.90443 105.098 8.86927C108.668 8.83383 113.833 10.4431 117.232 11.9135C124.688 15.1389 133.249 15.8656 140.838 19.1489C142.795 19.9957 150.197 21.8654 149.842 24.5874C149.414 27.8614 149.582 32.1949 148.257 35.2581C145.334 42.0163 144.498 50.6527 138.382 55.7928" stroke="black" stroke-opacity="0.8" stroke-width="5" stroke-linecap="round"/>
<path d="M147.175 41.0212C157.238 45.3743 167.096 48.3879 177.14 52.7329" stroke="black" stroke-opacity="0.8" stroke-width="5" stroke-linecap="round"/>
<path d="M176.684 53.7866C171.795 65.0866 170.344 77.1159 165.484 88.3513C160.535 99.7902 156.356 112.344 151.265 124.112C141.098 147.612 135.402 172.347 125.39 195.491" stroke="black" stroke-opacity="0.8" stroke-width="5" stroke-linecap="round"/>
<path d="M6.16016 141.409C0.727477 153.967 16.1121 156.69 22.7191 163.864C26.4732 167.94 34.1218 169.77 39.2264 171.978C45.1203 174.528 51.0142 177.078 56.908 179.627C67.8358 184.355 79.5901 186.404 90.126 190.244C97.7179 193.012 116.326 203.107 123.424 197.143" stroke="black" stroke-opacity="0.8" stroke-width="5" stroke-linecap="round"/>
<path d="M88.8687 28.3081C82.0146 25.343 74.7748 23.4621 68.3893 20.6996" stroke="black" stroke-opacity="0.8" stroke-width="5" stroke-linecap="round"/>
<path d="M64.7725 20.3857C56.2001 40.2011 49.3513 61.7148 41.9469 81.824C38.1323 92.1841 33.8078 103.53 29.5513 113.369C25.6092 122.481 24.7476 133.149 20.6312 142.664" stroke="black" stroke-opacity="0.8" stroke-width="5" stroke-linecap="round"/>
<path d="M20.6308 142.665C35.6503 149.162 49.3419 157.587 64.5084 164.149C71.5023 167.174 78.3028 167.614 84.9168 170.475C91.8635 173.481 100.02 175.795 107.362 176.432" stroke="black" stroke-opacity="0.8" stroke-width="5" stroke-linecap="round"/>
<path d="M142.018 50.05C148.633 52.9116 155.208 54.5048 161.444 57.2026" stroke="black" stroke-opacity="0.8" stroke-width="5" stroke-linecap="round"/>
<path d="M162.64 60.2222C158.344 70.1516 156.63 79.8985 152.438 89.5885C148.257 99.2518 143.456 110.282 141.493 120.51C140.555 125.402 137.15 130.71 135.169 135.29C132.973 140.367 132.069 145.349 129.84 150.5C125.8 159.839 123.687 170.508 119.41 180.393" stroke="black" stroke-opacity="0.8" stroke-width="5" stroke-linecap="round"/>
<path d="M119.411 180.393C114.933 178.456 110.939 177.979 106.308 175.976" stroke="black" stroke-opacity="0.8" stroke-width="5" stroke-linecap="round"/>
<path d="M78.8732 51.7796C87.9045 55.6866 97.7552 56.3764 106.751 60.2682C110.619 61.9414 115.389 61.6236 119.152 63.2518C123.498 65.1319 127.844 67.0119 132.19 68.892" stroke="black" stroke-opacity="0.8" stroke-width="3" stroke-linecap="round"/>
<path d="M74.9687 60.8055C92.1227 68.2265 110.258 71.3097 127.851 78.9208" stroke="black" stroke-opacity="0.8" stroke-width="3" stroke-linecap="round"/>
<path d="M56.7244 67.1999C69.0868 72.548 82.2207 73.4675 95.0653 79.0242C101.338 81.7379 109.147 81.5441 115.422 84.2589C121.576 86.9213 127.921 88.4757 134.409 91.2824" stroke="black" stroke-opacity="0.8" stroke-width="3" stroke-linecap="round"/>
<path d="M66.1562 78.4234C74.6665 82.1051 83.382 86.7381 92.1878 88.4282C100.566 90.0363 110.365 92.7863 118.036 96.1049" stroke="black" stroke-opacity="0.8" stroke-width="3" stroke-linecap="round"/>
<path d="M57.372 87.7198C62.8351 90.0832 68.5407 91.703 73.8521 93.6587C79.4357 95.7146 84.7652 95.9987 90.2646 98.3777C100.683 102.885 111.497 106.372 122.289 111.041" stroke="black" stroke-opacity="0.8" stroke-width="3" stroke-linecap="round"/>
<path d="M52.0873 95.7577C63.7278 100.794 74.6402 102.828 86.4373 107.932C97.7145 112.811 110.342 114.244 121.277 118.975" stroke="black" stroke-opacity="0.8" stroke-width="3" stroke-linecap="round"/>
<path d="M35.5676 134.031C49.0269 139.853 62.8728 145.009 76.208 150.778C87.9472 155.857 100.986 158.996 112.711 164.068" stroke="black" stroke-opacity="0.8" stroke-width="3" stroke-linecap="round"/>
<path d="M90.933 137.134C85.2419 134.672 78.3323 145.93 87.0075 147.064C88.3535 147.24 93.2967 145.164 93.8749 143.827C95.1656 140.844 89.9742 139.221 87.9139 138.329" stroke="black" stroke-opacity="0.8" stroke-width="3" stroke-linecap="round"/>
<path d="M103.711 132.655L95.8101 150.919" stroke="black" stroke-opacity="0.8" stroke-width="3" stroke-linecap="round"/>
<path d="M109.217 139.206C108.49 140.438 99.6579 142.965 100.49 143.956C103.195 147.174 106.649 149.451 109.272 152.573" stroke="black" stroke-opacity="0.8" stroke-width="3" stroke-linecap="round"/>
</svg>
