<svg width="159" height="108" viewBox="0 0 159 108" fill="none" xmlns="http://www.w3.org/2000/svg">
<rect x="41.4204" y="34.9498" width="117.511" height="72.2649" fill="#D9D9D9"/>
<rect y="11.3418" width="127.634" height="56.8805" fill="#D9D9D9"/>
<path d="M37.5351 32.8292C37.5351 44.4922 37.5351 56.1553 37.5351 67.8183C37.5351 76.6086 34.7686 91.973 38.5954 99.6265" stroke="black" stroke-opacity="0.8" stroke-width="5" stroke-linecap="round"/>
<path d="M36.4741 32.8292C46.1933 32.8292 55.9125 32.8292 65.6317 32.8292C74.8433 32.8292 84.4712 34.9498 94.2591 34.9498C104.249 34.9498 112.948 32.2916 122.356 31.769C132.533 31.2036 141.901 28.5881 152.044 28.5881" stroke="black" stroke-opacity="0.8" stroke-width="5" stroke-linecap="round"/>
<path d="M104.332 52.9745C98.7985 52.9745 82.8122 52.2184 80.9468 58.7471C79.0348 65.4393 81.3702 65.736 87.603 67.5827C92.4773 69.027 97.7734 68.5952 102.682 69.9978C112.269 72.7369 103.323 84.4264 96.9099 84.7827C89.2208 85.2099 76.7646 85.9292 76.7646 75.2403" stroke="black" stroke-opacity="0.8" stroke-width="5" stroke-linecap="round"/>
<path d="M91.6084 46.6128V94.3252" stroke="black" stroke-opacity="0.8" stroke-width="5" stroke-linecap="round"/>
<path d="M135.225 9.39514C135.225 16.3766 134.311 22.4393 134.311 29.494" stroke="black" stroke-opacity="0.8" stroke-width="5" stroke-linecap="round"/>
<path d="M131.57 8.48169C122.263 8.48169 113.662 11.2224 104.62 11.2224C94.9509 11.2224 86.2479 14.8768 76.7554 14.8768C56.944 14.8768 37.8307 13.9632 18.2861 13.9632" stroke="black" stroke-opacity="0.8" stroke-width="5" stroke-linecap="round"/>
<path d="M15.5455 15.79C15.5455 25.1209 13.9316 36.8635 16.4084 45.5322C17.5318 49.4642 17.3727 55.1109 17.3727 59.1852C17.3727 63.932 18.2863 69.0794 18.2863 73.3458" stroke="black" stroke-opacity="0.8" stroke-width="5" stroke-linecap="round"/>
<path d="M18.2861 73.346C23.5656 73.346 28.3098 72.4324 33.817 72.4324" stroke="black" stroke-opacity="0.8" stroke-width="5" stroke-linecap="round"/>
<path d="M4.83691 5.74075C24.0853 5.74075 43.3337 5.74075 62.582 5.74075C67.6858 5.74075 72.7895 5.74075 77.8932 5.74075C81.7723 5.74075 88.8025 7.17456 92.3295 5.53773C96.0111 3.82919 102.703 3.91358 106.766 3.91358C108.922 3.91358 110.525 3 112.89 3C115.07 3 113.328 7.5551 113.328 9.39508" stroke="black" stroke-opacity="0.8" stroke-width="5" stroke-linecap="round"/>
<path d="M38.8032 100.121C58.0067 100.121 77.4772 101.571 96.672 102.637C115.874 103.704 136.08 101.379 154.541 101.379" stroke="black" stroke-opacity="0.8" stroke-width="5" stroke-linecap="round"/>
<path d="M152.024 32.1881C152.024 43.7199 152.024 55.2518 152.024 66.7836C152.024 72.4447 152.024 78.1057 152.024 83.7668C152.024 89.2013 154.54 94.1716 154.54 100.121" stroke="black" stroke-opacity="0.8" stroke-width="5" stroke-linecap="round"/>
<path d="M4.83691 7.02783C4.83691 18.0962 6.09493 29.9956 6.09493 40.3653C6.09493 46.0249 7.35295 50.8058 7.35295 56.0905C7.35295 65.3715 8.69948 62.3806 16.1591 62.3806" stroke="black" stroke-opacity="0.8" stroke-width="5" stroke-linecap="round"/>
</svg>
