<svg width="152" height="151" viewBox="0 0 152 151" fill="none" xmlns="http://www.w3.org/2000/svg">
<rect x="20.9658" y="58.1019" width="98.6444" height="32.5897" transform="rotate(26.3394 20.9658 58.1019)" fill="#D9D9D9"/>
<path d="M89.1729 84.1728L15.3286 47.6477C14.2944 47.1361 13.043 47.6035 12.5972 48.6677L2.46322 72.8623C2.04129 73.8697 2.53337 75.0412 3.53304 75.4811C59.787 100.231 72.3933 111.778 71.6189 114.469C85.5579 146.224 92.1605 150.28 93.7194 148.339C93.7438 135.274 86.7726 120.33 83.2839 114.491C109.353 147.202 115.886 146.825 115.894 142.548C112.175 135.075 101.936 120.747 97.2819 114.517C126.166 138.834 131.068 137.132 129.909 133.242L103.132 105.196C138.552 127.659 142.758 123.934 140.434 119.263L103.156 92.3643C115.981 95.8877 140.234 101.299 134.647 94.756C129.06 88.2131 102.003 84.9743 89.1729 84.1728Z" stroke="black" stroke-width="4"/>
<path d="M102.816 10.165C102.414 10.7814 125.486 19.5444 127.658 20.7023C134.542 24.3709 143.487 26.1726 149.535 30.8917" stroke="black" stroke-width="4" stroke-linecap="round"/>
<path d="M88.1296 36.3131C91.3842 38.8524 94.4874 41.4037 98.8233 42.2543C105.203 43.5057 110.439 47.1136 116.403 49.0911C121.865 50.9022 127.104 53.1511 132.544 55.0236C135.021 55.8761 136.889 56.6665 138.921 58.2519" stroke="black" stroke-width="4" stroke-linecap="round"/>
<path d="M127.256 22.7002C122.804 22.7002 116.748 32.1883 114.888 35.7002C112.308 40.5734 113.773 49.5126 120.756 49.5126" stroke="black" stroke-width="4" stroke-linecap="round"/>
<path d="M131.543 23.9583C136.525 28.3865 134.685 34.9748 131.859 40.0623C129.465 44.3715 124.878 50.4826 119.544 50.4826" stroke="black" stroke-width="4" stroke-linecap="round"/>
<path d="M118.333 8.18274L97.477 55.1093" stroke="black" stroke-width="4" stroke-linecap="round"/>
<path d="M93.4434 51.0559C95.7518 51.0559 101.802 53.3371 102.784 55.3017" stroke="black" stroke-width="4" stroke-linecap="round"/>
<path d="M102.784 56.1509C102.784 59.5653 99.4309 64.1268 97.0281 66.5296C95.9141 67.6437 87.332 64.3094 86.6494 62.9442" stroke="black" stroke-width="4" stroke-linecap="round"/>
<path d="M92.594 51.0559C92.594 55.314 87.499 58.6862 87.499 62.9443" stroke="black" stroke-width="4" stroke-linecap="round"/>
<path d="M94.292 54.4526C94.292 56.5306 94.0989 58.496 93.2541 60.3968C92.9275 61.1318 92.2299 62.5023 93.8202 62.048C94.7452 61.7837 93.9968 60.3412 94.4807 59.7363C95.7065 58.2041 94.2615 56.151 96.8395 56.151C98.9972 56.151 99.8442 56.8859 99.4342 58.3211C98.6241 61.1563 95.8988 64.6427 93.0182 64.6427C87.4907 64.6427 87.9128 62.9652 90.0462 58.6985" stroke="black" stroke-width="4" stroke-linecap="round"/>
<path d="M95.9902 55.3018H100.236" stroke="black" stroke-width="4" stroke-linecap="round"/>
<path d="M89.2988 65.7969C89.2988 66.4712 89.3615 70.6547 89.758 70.159C90.7927 68.8656 93.2261 68.0442 93.8906 66.7152" stroke="black" stroke-width="2" stroke-linecap="round"/>
<path d="M90.2178 68.552C90.2178 66.1495 92.1235 63.1679 93.432 61.2052" stroke="black" stroke-width="2" stroke-linecap="round"/>
<path d="M90.3564 68.552L86.6498 74.8952" stroke="black" stroke-width="2" stroke-linecap="round"/>
<path d="M98.1399 57.875C97.0944 57.875 96.4531 58.2568 95.6895 57.875" stroke="black" stroke-width="4" stroke-linecap="round"/>
<path d="M114.623 40.8084C117.9 40.8084 120.519 42.6904 123.562 42.6904C125.052 42.6904 126.054 43.6314 127.797 43.6314C130.624 43.6314 129.212 42.1161 127.326 41.6971C125.094 41.2009 120.312 41.0309 118.596 39.6583C115.573 37.2395 115.8 35.1625 120.269 35.1625C123.562 35.1625 126.856 35.1625 130.149 35.1625C133.452 35.1625 125.66 33.2805 124.503 33.2805C121.703 33.2805 116.851 29.8111 122.151 29.5166C125.577 29.3263 129.07 29.5166 132.502 29.5166" stroke="black" stroke-width="4" stroke-linecap="round"/>
<path d="M94.2529 66.8357C94.8415 66.9093 95.1917 67.4747 95.8504 67.4747" stroke="black" stroke-width="4" stroke-linecap="round"/>
<path fill-rule="evenodd" clip-rule="evenodd" d="M79.4664 89.782C79.2343 88.6934 79.1089 87.5973 79.1877 87.3464C79.3744 86.7514 79.9871 86.4859 80.4091 86.817C80.5927 86.9611 80.8664 87.7666 81.0172 88.6067L81.2911 90.1345L81.9985 89.8835L82.7059 89.6325L82.5668 88.2945C82.4003 86.6921 82.5105 85.9964 82.9821 85.6751C83.2225 85.5113 83.4792 85.5499 83.7949 85.7977C84.15 86.0763 84.2663 86.4719 84.2993 87.5134C84.3594 89.4035 84.5032 89.6589 85.7077 90.0145C87.2569 90.4719 89.93 92.6435 90.6573 94.0356C91.8454 96.3092 91.6488 96.9487 91.1717 98.0187C90.1832 100.236 87.369 100.848 84.3364 99.5064C81.3763 98.1968 79.0805 94.6512 79.7173 92.3732C79.8115 92.0367 79.6986 90.8708 79.4664 89.782ZM72.2786 99.0187C72.0627 98.3959 71.9252 97.5552 71.9732 97.1504C72.0794 96.2517 72.2268 96.0462 72.8154 95.975C73.4856 95.8941 73.6601 96.1229 73.7767 97.2358C73.8345 97.7866 73.9244 98.2707 73.9767 98.3118C74.0289 98.3527 74.3276 98.2313 74.6402 98.042C75.1776 97.7166 75.2026 97.6155 75.0964 96.2051C74.9681 94.502 75.1299 93.7544 75.6761 93.5265C76.3833 93.2315 76.821 93.9007 76.8724 95.3558C76.9407 97.2936 77.013 97.3976 78.5353 97.7497C79.6989 98.0189 80.0095 98.1896 81.5331 99.3974C82.8963 100.478 83.3582 100.959 83.8662 101.827C84.5552 103.005 85.037 105.067 84.8447 106.016C83.8633 110.861 76.4076 109.809 73.5397 104.421C73.1626 103.712 72.9014 102.749 72.8113 101.734C72.7341 100.863 72.4942 99.6416 72.2786 99.0187ZM82.7461 106.065C83.3282 104.759 82.3623 102.528 80.6247 101.165C80.1043 100.757 79.6383 100.48 79.5895 100.55C79.5406 100.619 79.5238 101.109 79.5524 101.636C79.623 102.939 79.1097 105.162 78.5833 105.834C78.1589 106.375 78.1625 106.389 78.8193 106.751C80.2949 107.566 82.2277 107.228 82.7461 106.065ZM89.3881 97.1433C89.595 96.29 89.0029 94.8765 87.9625 93.7402C86.8249 92.4973 86.4756 92.4569 86.4996 93.5707C86.5213 94.5634 85.9556 96.4382 85.4334 97.1037C85.0577 97.5825 85.0673 97.6194 85.6478 97.9126C87.1487 98.6712 89.1159 98.2665 89.3881 97.1433Z" fill="black"/>
</svg>
