<svg width="49" height="49" viewBox="0 0 49 49" fill="none" xmlns="http://www.w3.org/2000/svg">
<path d="M14.9438 48.5327C13.6258 48.5327 12.4971 48.0632 11.5577 47.1241C10.6183 46.185 10.1494 45.0574 10.151 43.7414C10.151 42.4238 10.6207 41.2954 11.5601 40.3563C12.4995 39.4173 13.6274 38.9485 14.9438 38.9501C16.2618 38.9501 17.3904 39.4196 18.3298 40.3587C19.2692 41.2978 19.7381 42.4254 19.7365 43.7414C19.7365 45.059 19.2668 46.1874 18.3274 47.1265C17.3881 48.0656 16.2602 48.5343 14.9438 48.5327ZM38.9074 48.5327C37.5894 48.5327 36.4607 48.0632 35.5214 47.1241C34.582 46.185 34.1131 45.0574 34.1147 43.7414C34.1147 42.4238 34.5844 41.2954 35.5238 40.3563C36.4631 39.4173 37.591 38.9485 38.9074 38.9501C40.2254 38.9501 41.3541 39.4196 42.2935 40.3587C43.2329 41.2978 43.7018 42.4254 43.7002 43.7414C43.7002 45.059 43.2305 46.1874 42.2911 47.1265C41.3517 48.0656 40.2238 48.5343 38.9074 48.5327ZM14.9438 36.5544C13.1465 36.5544 11.7885 35.7655 10.8699 34.1875C9.95133 32.6096 9.91139 31.0428 10.7501 29.4873L13.9852 23.6179L5.35829 5.41094H2.90201C2.22304 5.41094 1.66389 5.18096 1.22455 4.721C0.785219 4.26103 0.565552 3.69246 0.565552 3.01529C0.565552 2.33652 0.795603 1.76716 1.25571 1.30719C1.71581 0.847224 2.28455 0.61804 2.96192 0.619637H6.85602C7.29535 0.619637 7.71472 0.73942 8.11411 0.978985C8.5135 1.21855 8.81305 1.55793 9.01275 1.99714L10.6303 5.41094H45.9767C47.0551 5.41094 47.794 5.81022 48.1934 6.60877C48.5928 7.40732 48.5728 8.2458 48.1334 9.12421L39.6263 24.4564C39.187 25.2549 38.6079 25.8738 37.889 26.313C37.1701 26.7522 36.3513 26.9718 35.4327 26.9718H17.5798L14.9438 31.7631H41.3637C42.0427 31.7631 42.6018 31.9931 43.0412 32.4531C43.4805 32.9131 43.7002 33.4816 43.7002 34.1588C43.7002 34.8376 43.4701 35.4069 43.01 35.8669C42.5499 36.3269 41.9812 36.556 41.3038 36.5544H14.9438Z" fill="#8B8B8B"/>
</svg>
