<svg width="34" height="48" viewBox="0 0 34 48" fill="none" xmlns="http://www.w3.org/2000/svg">
<path d="M9.6997 3.99225C10.473 1.34131 13.2489 -0.180833 15.8998 0.592454L30.2997 4.79294C32.9506 5.56622 34.4728 8.34211 33.6995 10.993L29.3514 25.8988C27.2352 33.1536 24.149 38.466 20.0928 41.8359C16.912 44.4785 12.575 46.4569 7.0819 47.7708C4.43899 48.403 1.90416 46.5672 1.42818 43.8918L1.02457 41.6231C0.542354 38.9125 2.36066 36.3757 4.99741 35.5838C7.44247 34.8495 9.36934 33.964 10.778 32.9274C11.6006 32.3334 12.3407 31.6573 12.9985 30.8989C14.8904 28.7175 13.2973 25.6199 10.5252 24.8113L8.96765 24.3569C6.31671 23.5836 4.79457 20.8078 5.56786 18.1568L9.6997 3.99225Z" fill="#FFAC2F"/>
</svg>
